<svg xmlns="http://www.w3.org/2000/svg" width="270" height="450" viewBox="0 0 270 450">
  <metadata><?xpacket begin="﻿" id="W5M0MpCehiHzreSzNTczkc9d"?>
<x:xmpmeta xmlns:x="adobe:ns:meta/" x:xmptk="Adobe XMP Core 5.6-c138 79.159824, 2016/09/14-01:09:01        ">
   <rdf:RDF xmlns:rdf="http://www.w3.org/1999/02/22-rdf-syntax-ns#">
      <rdf:Description rdf:about=""/>
   </rdf:RDF>
</x:xmpmeta>
                                                                                                    
                                                                                                    
                                                                                                    
                                                                                                    
                                                                                                    
                                                                                                    
                                                                                                    
                                                                                                    
                                                                                                    
                                                                                                    
                                                                                                    
                                                                                                    
                                                                                                    
                                                                                                    
                                                                                                    
                                                                                                    
                                                                                                    
                                                                                                    
                                                                                                    
                                                                                                    
                           
<?xpacket end="w"?></metadata>
<defs>
    <style>
      .cls-1 {
        fill: #fff;
        fill-rule: evenodd;
      }
    </style>
  </defs>
  <path class="cls-1" d="M15,180c-15.1,0-19.132-30-10.573-30C15,150,15,165,15,165s0-15,10.573-15C34.132,150,30.1,180,15,180Zm0,30c-15.1,0-19.132-30-10.573-30C15,180,15,195,15,195s0-15,10.573-15C34.132,180,30.1,210,15,210Zm30,0c-15.1,0-19.132-30-10.573-30C45,180,45,195,45,195s0-15,10.573-15C64.132,180,60.1,210,45,210Zm0-30c-15.1,0-19.132-30-10.573-30C45,150,45,165,45,165s0-15,10.573-15C64.132,150,60.1,180,45,180Zm30,0c-15.1,0-19.132-30-10.573-30C75,150,75,165,75,165s0-15,10.573-15C94.132,150,90.1,180,75,180Zm30,0c-15.1,0-19.132-30-10.573-30C105,150,105,165,105,165s0-15,10.573-15C124.132,150,120.1,180,105,180Zm30,0c-15.1,0-19.132-30-10.573-30C135,150,135,165,135,165s0-15,10.573-15C154.132,150,150.1,180,135,180Zm30,0c-15.1,0-19.132-30-10.573-30C165,150,165,165,165,165s0-15,10.573-15C184.132,150,180.1,180,165,180Zm30,0c-15.1,0-19.132-30-10.573-30C195,150,195,165,195,165s0-15,10.573-15C214.132,150,210.1,180,195,180Zm30,0c-15.1,0-19.132-30-10.573-30C225,150,225,165,225,165s0-15,10.573-15C244.132,150,240.1,180,225,180Zm30,0c-15.1,0-19.132-30-10.573-30C255,150,255,165,255,165s0-15,10.573-15C274.132,150,270.1,180,255,180ZM75,210c-15.1,0-19.132-30-10.573-30C75,180,75,195,75,195s0-15,10.573-15C94.132,180,90.1,210,75,210Zm30,0c-15.1,0-19.132-30-10.573-30C105,180,105,195,105,195s0-15,10.573-15C124.132,180,120.1,210,105,210Zm30,0c-15.1,0-19.132-30-10.573-30C135,180,135,195,135,195s0-15,10.573-15C154.132,180,150.1,210,135,210Zm30,0c-15.1,0-19.132-30-10.573-30C165,180,165,195,165,195s0-15,10.573-15C184.132,180,180.1,210,165,210Zm30,0c-15.1,0-19.132-30-10.573-30C195,180,195,195,195,195s0-15,10.573-15C214.132,180,210.1,210,195,210Zm30,0c-15.1,0-19.132-30-10.573-30C225,180,225,195,225,195s0-15,10.573-15C244.132,180,240.1,210,225,210Zm30,0c-15.1,0-19.132-30-10.573-30C255,180,255,195,255,195s0-15,10.573-15C274.132,180,270.1,210,255,210ZM15,450c-15.1,0-19.132-30-10.573-30C15,420,15,435,15,435s0-15,10.573-15C34.132,420,30.1,450,15,450Zm30,0c-15.1,0-19.132-30-10.573-30C45,420,45,435,45,435s0-15,10.573-15C64.132,420,60.1,450,45,450Zm30,0c-15.1,0-19.132-30-10.573-30C75,420,75,435,75,435s0-15,10.573-15C94.132,420,90.1,450,75,450Zm30,0c-15.1,0-19.132-30-10.573-30C105,420,105,435,105,435s0-15,10.573-15C124.132,420,120.1,450,105,450Zm30,0c-15.1,0-19.132-30-10.573-30C135,420,135,435,135,435s0-15,10.573-15C154.132,420,150.1,450,135,450Zm30,0c-15.1,0-19.132-30-10.573-30C165,420,165,435,165,435s0-15,10.573-15C184.132,420,180.1,450,165,450Zm30,0c-15.1,0-19.132-30-10.573-30C195,420,195,435,195,435s0-15,10.573-15C214.132,420,210.1,450,195,450Zm30,0c-15.1,0-19.132-30-10.573-30C225,420,225,435,225,435s0-15,10.573-15C244.132,420,240.1,450,225,450Zm30,0c-15.1,0-19.132-30-10.573-30C255,420,255,435,255,435s0-15,10.573-15C274.132,420,270.1,450,255,450ZM105,420c-15.1,0-19.132-30-10.573-30C105,390,105,405,105,405s0-15,10.573-15C124.132,390,120.1,420,105,420ZM75,390c-15.1,0-19.132-30-10.573-30C75,360,75,375,75,375s0-15,10.573-15C94.132,360,90.1,390,75,390ZM45,360c-15.1,0-19.132-30-10.573-30C45,330,45,345,45,345s0-15,10.573-15C64.132,330,60.1,360,45,360Zm30-30c-15.1,0-19.132-30-10.573-30C75,300,75,315,75,315s0-15,10.573-15C94.132,300,90.1,330,75,330Zm30-30c-15.1,0-19.132-30-10.573-30C105,270,105,285,105,285s0-15,10.573-15C124.132,270,120.1,300,105,300Zm30-30c-15.1,0-19.132-30-10.573-30C135,240,135,255,135,255s0-15,10.573-15C154.132,240,150.1,270,135,270Zm30,30c-15.1,0-19.132-30-10.573-30C165,270,165,285,165,285s0-15,10.573-15C184.132,270,180.1,300,165,300Zm30,30c-15.1,0-19.132-30-10.573-30C195,300,195,315,195,315s0-15,10.573-15C214.132,300,210.1,330,195,330Zm30,30c-15.1,0-19.132-30-10.573-30C225,330,225,345,225,345s0-15,10.573-15C244.132,330,240.1,360,225,360Zm-30,30c-15.1,0-19.132-30-10.573-30C195,360,195,375,195,375s0-15,10.573-15C214.132,360,210.1,390,195,390Zm-30,30c-15.1,0-19.132-30-10.573-30C165,390,165,405,165,405s0-15,10.573-15C184.132,390,180.1,420,165,420Zm30,0c-15.1,0-19.132-30-10.573-30C195,390,195,405,195,405s0-15,10.573-15C214.132,390,210.1,420,195,420Zm30,0c-15.1,0-19.132-30-10.573-30C225,390,225,405,225,405s0-15,10.573-15C244.132,390,240.1,420,225,420Zm0-30c-15.1,0-19.132-30-10.573-30C225,360,225,375,225,375s0-15,10.573-15C244.132,360,240.1,390,225,390Zm30,30c-15.1,0-19.132-30-10.573-30C255,390,255,405,255,405s0-15,10.573-15C274.132,390,270.1,420,255,420Zm0-30c-15.1,0-19.132-30-10.573-30C255,360,255,375,255,375s0-15,10.573-15C274.132,360,270.1,390,255,390Zm0-30c-15.1,0-19.132-30-10.573-30C255,330,255,345,255,345s0-15,10.573-15C274.132,330,270.1,360,255,360ZM15,360c-15.1,0-19.132-30-10.573-30C15,330,15,345,15,345s0-15,10.573-15C34.132,330,30.1,360,15,360Zm0,30c-15.1,0-19.132-30-10.573-30C15,360,15,375,15,375s0-15,10.573-15C34.132,360,30.1,390,15,390Zm0,30c-15.1,0-19.132-30-10.573-30C15,390,15,405,15,405s0-15,10.573-15C34.132,390,30.1,420,15,420Zm30-30c-15.1,0-19.132-30-10.573-30C45,360,45,375,45,375s0-15,10.573-15C64.132,360,60.1,390,45,390Zm0,30c-15.1,0-19.132-30-10.573-30C45,390,45,405,45,405s0-15,10.573-15C64.132,390,60.1,420,45,420Zm30,0c-15.1,0-19.132-30-10.573-30C75,390,75,405,75,405s0-15,10.573-15C94.132,390,90.1,420,75,420ZM15,330c-15.1,0-19.132-30-10.573-30C15,300,15,315,15,315s0-15,10.573-15C34.132,300,30.1,330,15,330Zm30,0c-15.1,0-19.132-30-10.573-30C45,300,45,315,45,315s0-15,10.573-15C64.132,300,60.1,330,45,330ZM15,300c-15.1,0-19.132-30-10.573-30C15,270,15,285,15,285s0-15,10.573-15C34.132,270,30.1,300,15,300Zm30,0c-15.1,0-19.132-30-10.573-30C45,270,45,285,45,285s0-15,10.573-15C64.132,270,60.1,300,45,300Zm30,0c-15.1,0-19.132-30-10.573-30C75,270,75,285,75,285s0-15,10.573-15C94.132,270,90.1,300,75,300ZM15,270c-15.1,0-19.132-30-10.573-30C15,240,15,255,15,255s0-15,10.573-15C34.132,240,30.1,270,15,270Zm30,0c-15.1,0-19.132-30-10.573-30C45,240,45,255,45,255s0-15,10.573-15C64.132,240,60.1,270,45,270Zm30,0c-15.1,0-19.132-30-10.573-30C75,240,75,255,75,255s0-15,10.573-15C94.132,240,90.1,270,75,270Zm30,0c-15.1,0-19.132-30-10.573-30C105,240,105,255,105,255s0-15,10.573-15C124.132,240,120.1,270,105,270Zm60,0c-15.1,0-19.132-30-10.573-30C165,240,165,255,165,255s0-15,10.573-15C184.132,240,180.1,270,165,270Zm30,0c-15.1,0-19.132-30-10.573-30C195,240,195,255,195,255s0-15,10.573-15C214.132,240,210.1,270,195,270Zm0,30c-15.1,0-19.132-30-10.573-30C195,270,195,285,195,285s0-15,10.573-15C214.132,270,210.1,300,195,300Zm30,0c-15.1,0-19.132-30-10.573-30C225,270,225,285,225,285s0-15,10.573-15C244.132,270,240.1,300,225,300Zm0,30c-15.1,0-19.132-30-10.573-30C225,300,225,315,225,315s0-15,10.573-15C244.132,300,240.1,330,225,330Zm30,0c-15.1,0-19.132-30-10.573-30C255,300,255,315,255,315s0-15,10.573-15C274.132,300,270.1,330,255,330Zm0-30c-15.1,0-19.132-30-10.573-30C255,270,255,285,255,285s0-15,10.573-15C274.132,270,270.1,300,255,300Zm-30-30c-15.1,0-19.132-30-10.573-30C225,240,225,255,225,255s0-15,10.573-15C244.132,240,240.1,270,225,270Zm30,0c-15.1,0-19.132-30-10.573-30C255,240,255,255,255,255s0-15,10.573-15C274.132,240,270.1,270,255,270Zm0-30c-15.1,0-19.132-30-10.573-30C255,210,255,225,255,225s0-15,10.573-15C274.132,210,270.1,240,255,240Zm-30,0c-15.1,0-19.132-30-10.573-30C225,210,225,225,225,225s0-15,10.573-15C244.132,210,240.1,240,225,240Zm-30,0c-15.1,0-19.132-30-10.573-30C195,210,195,225,195,225s0-15,10.573-15C214.132,210,210.1,240,195,240Zm-30,0c-15.1,0-19.132-30-10.573-30C165,210,165,225,165,225s0-15,10.573-15C184.132,210,180.1,240,165,240Zm-30,0c-15.1,0-19.132-30-10.573-30C135,210,135,225,135,225s0-15,10.573-15C154.132,210,150.1,240,135,240Zm-30,0c-15.1,0-19.132-30-10.573-30C105,210,105,225,105,225s0-15,10.573-15C124.132,210,120.1,240,105,240Zm-30,0c-15.1,0-19.132-30-10.573-30C75,210,75,225,75,225s0-15,10.573-15C94.132,210,90.1,240,75,240Zm-30,0c-15.1,0-19.132-30-10.573-30C45,210,45,225,45,225s0-15,10.573-15C64.132,210,60.1,240,45,240Zm-30,0c-15.1,0-19.132-30-10.573-30C15,210,15,225,15,225s0-15,10.573-15C34.132,210,30.1,240,15,240ZM15,30C-0.1,30-4.132,0,4.427,0,15,0,15,15,15,15S15,0,25.573,0C34.132,0,30.1,30,15,30Zm30,0C29.9,30,25.868,0,34.427,0,45,0,45,15,45,15S45,0,55.573,0C64.132,0,60.1,30,45,30Zm30,0C59.9,30,55.868,0,64.427,0,75,0,75,15,75,15S75,0,85.573,0C94.132,0,90.1,30,75,30Zm30,0C89.9,30,85.868,0,94.427,0,105,0,105,15,105,15s0-15,10.573-15C124.132,0,120.1,30,105,30Zm30,0c-15.1,0-19.132-30-10.573-30C135,0,135,15,135,15s0-15,10.573-15C154.132,0,150.1,30,135,30Zm30,0c-15.1,0-19.132-30-10.573-30C165,0,165,15,165,15s0-15,10.573-15C184.132,0,180.1,30,165,30Zm30,0c-15.1,0-19.132-30-10.573-30C195,0,195,15,195,15s0-15,10.573-15C214.132,0,210.1,30,195,30Zm30,0c-15.1,0-19.132-30-10.573-30C225,0,225,15,225,15s0-15,10.573-15C244.132,0,240.1,30,225,30Zm30,0c-15.1,0-19.132-30-10.573-30C255,0,255,15,255,15s0-15,10.573-15C274.132,0,270.1,30,255,30ZM15,60C-0.1,60-4.132,30,4.427,30,15,30,15,45,15,45s0-15,10.573-15C34.132,30,30.1,60,15,60Zm30,0C29.9,60,25.868,30,34.427,30,45,30,45,45,45,45s0-15,10.573-15C64.132,30,60.1,60,45,60Zm30,0C59.9,60,55.868,30,64.427,30,75,30,75,45,75,45s0-15,10.573-15C94.132,30,90.1,60,75,60Zm30,0C89.9,60,85.868,30,94.427,30,105,30,105,45,105,45s0-15,10.573-15C124.132,30,120.1,60,105,60Zm30,0c-15.1,0-19.132-30-10.573-30C135,30,135,45,135,45s0-15,10.573-15C154.132,30,150.1,60,135,60Zm30,0c-15.1,0-19.132-30-10.573-30C165,30,165,45,165,45s0-15,10.573-15C184.132,30,180.1,60,165,60Zm30,0c-15.1,0-19.132-30-10.573-30C195,30,195,45,195,45s0-15,10.573-15C214.132,30,210.1,60,195,60Zm30,0c-15.1,0-19.132-30-10.573-30C225,30,225,45,225,45s0-15,10.573-15C244.132,30,240.1,60,225,60Zm30,0c-15.1,0-19.132-30-10.573-30C255,30,255,45,255,45s0-15,10.573-15C274.132,30,270.1,60,255,60ZM15,90C-0.1,90-4.132,60,4.427,60,15,60,15,75,15,75s0-15,10.573-15C34.132,60,30.1,90,15,90Zm30,0C29.9,90,25.868,60,34.427,60,45,60,45,75,45,75s0-15,10.573-15C64.132,60,60.1,90,45,90Zm30,0C59.9,90,55.868,60,64.427,60,75,60,75,75,75,75s0-15,10.573-15C94.132,60,90.1,90,75,90Zm30,0C89.9,90,85.868,60,94.427,60,105,60,105,75,105,75s0-15,10.573-15C124.132,60,120.1,90,105,90Zm30,0c-15.1,0-19.132-30-10.573-30C135,60,135,75,135,75s0-15,10.573-15C154.132,60,150.1,90,135,90Zm30,0c-15.1,0-19.132-30-10.573-30C165,60,165,75,165,75s0-15,10.573-15C184.132,60,180.1,90,165,90Zm30,0c-15.1,0-19.132-30-10.573-30C195,60,195,75,195,75s0-15,10.573-15C214.132,60,210.1,90,195,90Zm30,0c-15.1,0-19.132-30-10.573-30C225,60,225,75,225,75s0-15,10.573-15C244.132,60,240.1,90,225,90Zm30,0c-15.1,0-19.132-30-10.573-30C255,60,255,75,255,75s0-15,10.573-15C274.132,60,270.1,90,255,90ZM15,120C-0.1,120-4.132,90,4.427,90,15,90,15,105,15,105s0-15,10.573-15C34.132,90,30.1,120,15,120Zm30,0c-15.1,0-19.132-30-10.573-30C45,90,45,105,45,105s0-15,10.573-15C64.132,90,60.1,120,45,120Zm30,0c-15.1,0-19.132-30-10.573-30C75,90,75,105,75,105s0-15,10.573-15C94.132,90,90.1,120,75,120Zm30,0c-15.1,0-19.132-30-10.573-30C105,90,105,105,105,105s0-15,10.573-15C124.132,90,120.1,120,105,120Zm30,0c-15.1,0-19.132-30-10.573-30C135,90,135,105,135,105s0-15,10.573-15C154.132,90,150.1,120,135,120Zm30,0c-15.1,0-19.132-30-10.573-30C165,90,165,105,165,105s0-15,10.573-15C184.132,90,180.1,120,165,120Zm30,0c-15.1,0-19.132-30-10.573-30C195,90,195,105,195,105s0-15,10.573-15C214.132,90,210.1,120,195,120Zm30,0c-15.1,0-19.132-30-10.573-30C225,90,225,105,225,105s0-15,10.573-15C244.132,90,240.1,120,225,120Zm30,0c-15.1,0-19.132-30-10.573-30C255,90,255,105,255,105s0-15,10.573-15C274.132,90,270.1,120,255,120ZM15,150c-15.1,0-19.132-30-10.573-30C15,120,15,135,15,135s0-15,10.573-15C34.132,120,30.1,150,15,150Zm30,0c-15.1,0-19.132-30-10.573-30C45,120,45,135,45,135s0-15,10.573-15C64.132,120,60.1,150,45,150Zm30,0c-15.1,0-19.132-30-10.573-30C75,120,75,135,75,135s0-15,10.573-15C94.132,120,90.1,150,75,150Zm30,0c-15.1,0-19.132-30-10.573-30C105,120,105,135,105,135s0-15,10.573-15C124.132,120,120.1,150,105,150Zm30,0c-15.1,0-19.132-30-10.573-30C135,120,135,135,135,135s0-15,10.573-15C154.132,120,150.1,150,135,150Zm30,0c-15.1,0-19.132-30-10.573-30C165,120,165,135,165,135s0-15,10.573-15C184.132,120,180.1,150,165,150Zm30,0c-15.1,0-19.132-30-10.573-30C195,120,195,135,195,135s0-15,10.573-15C214.132,120,210.1,150,195,150Zm30,0c-15.1,0-19.132-30-10.573-30C225,120,225,135,225,135s0-15,10.573-15C244.132,120,240.1,150,225,150Zm30,0c-15.1,0-19.132-30-10.573-30C255,120,255,135,255,135s0-15,10.573-15C274.132,120,270.1,150,255,150Z"/>
</svg>
