<svg xmlns="http://www.w3.org/2000/svg" width="270" height="210" viewBox="0 0 270 210">
  <metadata><?xpacket begin="﻿" id="W5M0MpCehiHzreSzNTczkc9d"?>
<x:xmpmeta xmlns:x="adobe:ns:meta/" x:xmptk="Adobe XMP Core 5.6-c138 79.159824, 2016/09/14-01:09:01        ">
   <rdf:RDF xmlns:rdf="http://www.w3.org/1999/02/22-rdf-syntax-ns#">
      <rdf:Description rdf:about=""/>
   </rdf:RDF>
</x:xmpmeta>
                                                                                                    
                                                                                                    
                                                                                                    
                                                                                                    
                                                                                                    
                                                                                                    
                                                                                                    
                                                                                                    
                                                                                                    
                                                                                                    
                                                                                                    
                                                                                                    
                                                                                                    
                                                                                                    
                                                                                                    
                                                                                                    
                                                                                                    
                                                                                                    
                                                                                                    
                                                                                                    
                           
<?xpacket end="w"?></metadata>
<defs>
    <style>
      .cls-1 {
        fill: #fff;
        fill-rule: evenodd;
      }
    </style>
  </defs>
  <path class="cls-1" d="M15-60C-0.1-60-4.132-90,4.427-90,15-90,15-75,15-75s0-15,10.573-15C34.132-90,30.1-60,15-60Zm0,30C-0.1-30-4.132-60,4.427-60,15-60,15-45,15-45s0-15,10.573-15C34.132-60,30.1-30,15-30Zm30,0C29.9-30,25.868-60,34.427-60,45-60,45-45,45-45s0-15,10.573-15C64.132-60,60.1-30,45-30Zm0-30C29.9-60,25.868-90,34.427-90,45-90,45-75,45-75s0-15,10.573-15C64.132-90,60.1-60,45-60Zm30,0C59.9-60,55.868-90,64.427-90,75-90,75-75,75-75s0-15,10.573-15C94.132-90,90.1-60,75-60Zm30,0C89.9-60,85.868-90,94.427-90,105-90,105-75,105-75s0-15,10.573-15C124.132-90,120.1-60,105-60Zm30,0c-15.1,0-19.132-30-10.573-30C135-90,135-75,135-75s0-15,10.573-15C154.132-90,150.1-60,135-60Zm30,0c-15.1,0-19.132-30-10.573-30C165-90,165-75,165-75s0-15,10.573-15C184.132-90,180.1-60,165-60Zm30,0c-15.1,0-19.132-30-10.573-30C195-90,195-75,195-75s0-15,10.573-15C214.132-90,210.1-60,195-60Zm30,0c-15.1,0-19.132-30-10.573-30C225-90,225-75,225-75s0-15,10.573-15C244.132-90,240.1-60,225-60Zm30,0c-15.1,0-19.132-30-10.573-30C255-90,255-75,255-75s0-15,10.573-15C274.132-90,270.1-60,255-60ZM75-30C59.9-30,55.868-60,64.427-60,75-60,75-45,75-45s0-15,10.573-15C94.132-60,90.1-30,75-30Zm30,0C89.9-30,85.868-60,94.427-60,105-60,105-45,105-45s0-15,10.573-15C124.132-60,120.1-30,105-30Zm30,0c-15.1,0-19.132-30-10.573-30C135-60,135-45,135-45s0-15,10.573-15C154.132-60,150.1-30,135-30Zm30,0c-15.1,0-19.132-30-10.573-30C165-60,165-45,165-45s0-15,10.573-15C184.132-60,180.1-30,165-30Zm30,0c-15.1,0-19.132-30-10.573-30C195-60,195-45,195-45s0-15,10.573-15C214.132-60,210.1-30,195-30Zm30,0c-15.1,0-19.132-30-10.573-30C225-60,225-45,225-45s0-15,10.573-15C244.132-60,240.1-30,225-30Zm30,0c-15.1,0-19.132-30-10.573-30C255-60,255-45,255-45s0-15,10.573-15C274.132-60,270.1-30,255-30ZM15,210c-15.1,0-19.132-30-10.573-30C15,180,15,195,15,195s0-15,10.573-15C34.132,180,30.1,210,15,210Zm30,0c-15.1,0-19.132-30-10.573-30C45,180,45,195,45,195s0-15,10.573-15C64.132,180,60.1,210,45,210Zm30,0c-15.1,0-19.132-30-10.573-30C75,180,75,195,75,195s0-15,10.573-15C94.132,180,90.1,210,75,210Zm30,0c-15.1,0-19.132-30-10.573-30C105,180,105,195,105,195s0-15,10.573-15C124.132,180,120.1,210,105,210Zm30,0c-15.1,0-19.132-30-10.573-30C135,180,135,195,135,195s0-15,10.573-15C154.132,180,150.1,210,135,210Zm30,0c-15.1,0-19.132-30-10.573-30C165,180,165,195,165,195s0-15,10.573-15C184.132,180,180.1,210,165,210Zm30,0c-15.1,0-19.132-30-10.573-30C195,180,195,195,195,195s0-15,10.573-15C214.132,180,210.1,210,195,210Zm30,0c-15.1,0-19.132-30-10.573-30C225,180,225,195,225,195s0-15,10.573-15C244.132,180,240.1,210,225,210Zm30,0c-15.1,0-19.132-30-10.573-30C255,180,255,195,255,195s0-15,10.573-15C274.132,180,270.1,210,255,210ZM105,180c-15.1,0-19.132-30-10.573-30C105,150,105,165,105,165s0-15,10.573-15C124.132,150,120.1,180,105,180ZM75,150c-15.1,0-19.132-30-10.573-30C75,120,75,135,75,135s0-15,10.573-15C94.132,120,90.1,150,75,150ZM45,120c-15.1,0-19.132-30-10.573-30C45,90,45,105,45,105s0-15,10.573-15C64.132,90,60.1,120,45,120ZM75,90C59.9,90,55.868,60,64.427,60,75,60,75,75,75,75s0-15,10.573-15C94.132,60,90.1,90,75,90Zm30-30C89.9,60,85.868,30,94.427,30,105,30,105,45,105,45s0-15,10.573-15C124.132,30,120.1,60,105,60Zm30-30c-15.1,0-19.132-30-10.573-30C135,0,135,15,135,15s0-15,10.573-15C154.132,0,150.1,30,135,30Zm30,30c-15.1,0-19.132-30-10.573-30C165,30,165,45,165,45s0-15,10.573-15C184.132,30,180.1,60,165,60Zm30,30c-15.1,0-19.132-30-10.573-30C195,60,195,75,195,75s0-15,10.573-15C214.132,60,210.1,90,195,90Zm30,30c-15.1,0-19.132-30-10.573-30C225,90,225,105,225,105s0-15,10.573-15C244.132,90,240.1,120,225,120Zm-30,30c-15.1,0-19.132-30-10.573-30C195,120,195,135,195,135s0-15,10.573-15C214.132,120,210.1,150,195,150Zm-30,30c-15.1,0-19.132-30-10.573-30C165,150,165,165,165,165s0-15,10.573-15C184.132,150,180.1,180,165,180Zm30,0c-15.1,0-19.132-30-10.573-30C195,150,195,165,195,165s0-15,10.573-15C214.132,150,210.1,180,195,180Zm30,0c-15.1,0-19.132-30-10.573-30C225,150,225,165,225,165s0-15,10.573-15C244.132,150,240.1,180,225,180Zm0-30c-15.1,0-19.132-30-10.573-30C225,120,225,135,225,135s0-15,10.573-15C244.132,120,240.1,150,225,150Zm30,30c-15.1,0-19.132-30-10.573-30C255,150,255,165,255,165s0-15,10.573-15C274.132,150,270.1,180,255,180Zm0-30c-15.1,0-19.132-30-10.573-30C255,120,255,135,255,135s0-15,10.573-15C274.132,120,270.1,150,255,150Zm0-30c-15.1,0-19.132-30-10.573-30C255,90,255,105,255,105s0-15,10.573-15C274.132,90,270.1,120,255,120ZM15,120C-0.1,120-4.132,90,4.427,90,15,90,15,105,15,105s0-15,10.573-15C34.132,90,30.1,120,15,120Zm0,30c-15.1,0-19.132-30-10.573-30C15,120,15,135,15,135s0-15,10.573-15C34.132,120,30.1,150,15,150Zm0,30c-15.1,0-19.132-30-10.573-30C15,150,15,165,15,165s0-15,10.573-15C34.132,150,30.1,180,15,180Zm30-30c-15.1,0-19.132-30-10.573-30C45,120,45,135,45,135s0-15,10.573-15C64.132,120,60.1,150,45,150Zm0,30c-15.1,0-19.132-30-10.573-30C45,150,45,165,45,165s0-15,10.573-15C64.132,150,60.1,180,45,180Zm30,0c-15.1,0-19.132-30-10.573-30C75,150,75,165,75,165s0-15,10.573-15C94.132,150,90.1,180,75,180ZM15,90C-0.1,90-4.132,60,4.427,60,15,60,15,75,15,75s0-15,10.573-15C34.132,60,30.1,90,15,90Zm30,0C29.9,90,25.868,60,34.427,60,45,60,45,75,45,75s0-15,10.573-15C64.132,60,60.1,90,45,90ZM15,60C-0.1,60-4.132,30,4.427,30,15,30,15,45,15,45s0-15,10.573-15C34.132,30,30.1,60,15,60Zm30,0C29.9,60,25.868,30,34.427,30,45,30,45,45,45,45s0-15,10.573-15C64.132,30,60.1,60,45,60Zm30,0C59.9,60,55.868,30,64.427,30,75,30,75,45,75,45s0-15,10.573-15C94.132,30,90.1,60,75,60ZM15,30C-0.1,30-4.132,0,4.427,0,15,0,15,15,15,15S15,0,25.573,0C34.132,0,30.1,30,15,30Zm30,0C29.9,30,25.868,0,34.427,0,45,0,45,15,45,15S45,0,55.573,0C64.132,0,60.1,30,45,30Zm30,0C59.9,30,55.868,0,64.427,0,75,0,75,15,75,15S75,0,85.573,0C94.132,0,90.1,30,75,30Zm30,0C89.9,30,85.868,0,94.427,0,105,0,105,15,105,15s0-15,10.573-15C124.132,0,120.1,30,105,30Zm60,0c-15.1,0-19.132-30-10.573-30C165,0,165,15,165,15s0-15,10.573-15C184.132,0,180.1,30,165,30Zm30,0c-15.1,0-19.132-30-10.573-30C195,0,195,15,195,15s0-15,10.573-15C214.132,0,210.1,30,195,30Zm0,30c-15.1,0-19.132-30-10.573-30C195,30,195,45,195,45s0-15,10.573-15C214.132,30,210.1,60,195,60Zm30,0c-15.1,0-19.132-30-10.573-30C225,30,225,45,225,45s0-15,10.573-15C244.132,30,240.1,60,225,60Zm0,30c-15.1,0-19.132-30-10.573-30C225,60,225,75,225,75s0-15,10.573-15C244.132,60,240.1,90,225,90Zm30,0c-15.1,0-19.132-30-10.573-30C255,60,255,75,255,75s0-15,10.573-15C274.132,60,270.1,90,255,90Zm0-30c-15.1,0-19.132-30-10.573-30C255,30,255,45,255,45s0-15,10.573-15C274.132,30,270.1,60,255,60ZM225,30c-15.1,0-19.132-30-10.573-30C225,0,225,15,225,15s0-15,10.573-15C244.132,0,240.1,30,225,30Zm30,0c-15.1,0-19.132-30-10.573-30C255,0,255,15,255,15s0-15,10.573-15C274.132,0,270.1,30,255,30Zm0-30c-15.1,0-19.132-30-10.573-30C255-30,255-15,255-15s0-15,10.573-15C274.132-30,270.1,0,255,0ZM225,0c-15.1,0-19.132-30-10.573-30C225-30,225-15,225-15s0-15,10.573-15C244.132-30,240.1,0,225,0ZM195,0c-15.1,0-19.132-30-10.573-30C195-30,195-15,195-15s0-15,10.573-15C214.132-30,210.1,0,195,0ZM165,0c-15.1,0-19.132-30-10.573-30C165-30,165-15,165-15s0-15,10.573-15C184.132-30,180.1,0,165,0ZM135,0c-15.1,0-19.132-30-10.573-30C135-30,135-15,135-15s0-15,10.573-15C154.132-30,150.1,0,135,0ZM105,0C89.9,0,85.868-30,94.427-30,105-30,105-15,105-15s0-15,10.573-15C124.132-30,120.1,0,105,0ZM75,0C59.9,0,55.868-30,64.427-30,75-30,75-15,75-15s0-15,10.573-15C94.132-30,90.1,0,75,0ZM45,0C29.9,0,25.868-30,34.427-30,45-30,45-15,45-15s0-15,10.573-15C64.132-30,60.1,0,45,0ZM15,0C-0.1,0-4.132-30,4.427-30,15-30,15-15,15-15s0-15,10.573-15C34.132-30,30.1,0,15,0Z"/>
</svg>
