<svg xmlns="http://www.w3.org/2000/svg" width="300" height="480" viewBox="0 0 300 480">
  <metadata><?xpacket begin="﻿" id="W5M0MpCehiHzreSzNTczkc9d"?>
<x:xmpmeta xmlns:x="adobe:ns:meta/" x:xmptk="Adobe XMP Core 5.6-c138 79.159824, 2016/09/14-01:09:01        ">
   <rdf:RDF xmlns:rdf="http://www.w3.org/1999/02/22-rdf-syntax-ns#">
      <rdf:Description rdf:about=""/>
   </rdf:RDF>
</x:xmpmeta>
                                                                                                    
                                                                                                    
                                                                                                    
                                                                                                    
                                                                                                    
                                                                                                    
                                                                                                    
                                                                                                    
                                                                                                    
                                                                                                    
                                                                                                    
                                                                                                    
                                                                                                    
                                                                                                    
                                                                                                    
                                                                                                    
                                                                                                    
                                                                                                    
                                                                                                    
                                                                                                    
                           
<?xpacket end="w"?></metadata>
<defs>
    <style>
      .cls-1 {
        fill: #dc1413;
        fill-rule: evenodd;
      }
    </style>
  </defs>
  <path class="cls-1" d="M44.984,30C29.865,30,25.833,0,34.4,0,44.984,0,44.984,15,44.984,15s0-15,10.584-15C64.136,0,60.1,30,44.984,30Zm0,30C29.865,60,25.833,30,34.4,30c10.584,0,10.584,15,10.584,15s0-15,10.584-15C64.136,30,60.1,60,44.984,60Zm0,30C29.865,90,25.833,60,34.4,60c10.584,0,10.584,15,10.584,15s0-15,10.584-15C64.136,60,60.1,90,44.984,90Zm0,30C29.865,120,25.833,90,34.4,90c10.584,0,10.584,15,10.584,15s0-15,10.584-15C64.136,90,60.1,120,44.984,120Zm0,30c-15.12,0-19.152-30-10.584-30,10.584,0,10.584,15,10.584,15s0-15,10.584-15C64.136,120,60.1,150,44.984,150Zm0,30c-15.12,0-19.152-30-10.584-30,10.584,0,10.584,15,10.584,15s0-15,10.584-15C64.136,150,60.1,180,44.984,180Zm0,30c-15.12,0-19.152-30-10.584-30,10.584,0,10.584,15,10.584,15s0-15,10.584-15C64.136,180,60.1,210,44.984,210Zm0,30c-15.12,0-19.152-30-10.584-30,10.584,0,10.584,15,10.584,15s0-15,10.584-15C64.136,210,60.1,240,44.984,240Zm0,30c-15.12,0-19.152-30-10.584-30,10.584,0,10.584,15,10.584,15s0-15,10.584-15C64.136,240,60.1,270,44.984,270Zm0,30c-15.12,0-19.152-30-10.584-30,10.584,0,10.584,15,10.584,15s0-15,10.584-15C64.136,270,60.1,300,44.984,300Zm0,30c-15.12,0-19.152-30-10.584-30,10.584,0,10.584,15,10.584,15s0-15,10.584-15C64.136,300,60.1,330,44.984,330Zm0,30c-15.12,0-19.152-30-10.584-30,10.584,0,10.584,15,10.584,15s0-15,10.584-15C64.136,330,60.1,360,44.984,360Zm0,30c-15.12,0-19.152-30-10.584-30,10.584,0,10.584,15,10.584,15s0-15,10.584-15C64.136,360,60.1,390,44.984,390Zm0,30c-15.12,0-19.152-30-10.584-30,10.584,0,10.584,15,10.584,15s0-15,10.584-15C64.136,390,60.1,420,44.984,420Zm0,30c-15.12,0-19.152-30-10.584-30,10.584,0,10.584,15,10.584,15s0-15,10.584-15C64.136,420,60.1,450,44.984,450Zm60-420C89.865,30,85.833,0,94.4,0c10.583,0,10.583,15,10.583,15s0-15,10.584-15C124.136,0,120.1,30,104.984,30Zm60,0C149.865,30,145.833,0,154.4,0c10.583,0,10.583,15,10.583,15s0-15,10.584-15C184.136,0,180.1,30,164.984,30Zm30,30c-15.119,0-19.151-30-10.583-30,10.583,0,10.583,15,10.583,15s0-15,10.584-15C214.136,30,210.1,60,194.984,60Zm-60,0c-15.119,0-19.151-30-10.583-30,10.583,0,10.583,15,10.583,15s0-15,10.584-15C154.136,30,150.1,60,134.984,60Zm30,30c-15.119,0-19.151-30-10.583-30,10.583,0,10.583,15,10.583,15s0-15,10.584-15C184.136,60,180.1,90,164.984,90Zm30,30c-15.119,0-19.151-30-10.583-30,10.583,0,10.583,15,10.583,15s0-15,10.584-15C214.136,90,210.1,120,194.984,120Zm0,30c-15.119,0-19.151-30-10.583-30,10.583,0,10.583,15,10.583,15s0-15,10.584-15C214.136,120,210.1,150,194.984,150Zm0,30c-15.119,0-19.151-30-10.583-30,10.583,0,10.583,15,10.583,15s0-15,10.584-15C214.136,150,210.1,180,194.984,180Zm0,30c-15.119,0-19.151-30-10.583-30,10.583,0,10.583,15,10.583,15s0-15,10.584-15C214.136,180,210.1,210,194.984,210Zm-30,30c-15.119,0-19.151-30-10.583-30,10.583,0,10.583,15,10.583,15s0-15,10.584-15C184.136,210,180.1,240,164.984,240Zm-30-30c-15.119,0-19.151-30-10.583-30,10.583,0,10.583,15,10.583,15s0-15,10.584-15C154.136,180,150.1,210,134.984,210Zm-30-30c-15.119,0-19.151-30-10.583-30,10.583,0,10.583,15,10.583,15s0-15,10.584-15C124.136,150,120.1,180,104.984,180Zm60,0c-15.119,0-19.151-30-10.583-30,10.583,0,10.583,15,10.583,15s0-15,10.584-15C184.136,150,180.1,180,164.984,180Zm-30-30c-15.119,0-19.151-30-10.583-30,10.583,0,10.583,15,10.583,15s0-15,10.584-15C154.136,120,150.1,150,134.984,150Zm-30-30C89.865,120,85.833,90,94.4,90c10.583,0,10.583,15,10.583,15s0-15,10.584-15C124.136,90,120.1,120,104.984,120Zm0-30C89.865,90,85.833,60,94.4,60c10.583,0,10.583,15,10.583,15s0-15,10.584-15C124.136,60,120.1,90,104.984,90Zm0-30C89.865,60,85.833,30,94.4,30c10.583,0,10.583,15,10.583,15s0-15,10.584-15C124.136,30,120.1,60,104.984,60Zm30,30c-15.119,0-19.151-30-10.583-30,10.583,0,10.583,15,10.583,15s0-15,10.584-15C154.136,60,150.1,90,134.984,90Zm0,30c-15.119,0-19.151-30-10.583-30,10.583,0,10.583,15,10.583,15s0-15,10.584-15C154.136,90,150.1,120,134.984,120Zm30,0c-15.119,0-19.151-30-10.583-30,10.583,0,10.583,15,10.583,15s0-15,10.584-15C184.136,90,180.1,120,164.984,120Zm0,30c-15.119,0-19.151-30-10.583-30,10.583,0,10.583,15,10.583,15s0-15,10.584-15C184.136,120,180.1,150,164.984,150Zm-30,120c-15.119,0-19.151-30-10.583-30,10.583,0,10.583,15,10.583,15s0-15,10.584-15C154.136,240,150.1,270,134.984,270Zm-30,30c-15.119,0-19.151-30-10.583-30,10.583,0,10.583,15,10.583,15s0-15,10.584-15C124.136,270,120.1,300,104.984,300Zm0,60c-15.119,0-19.151-30-10.583-30,10.583,0,10.583,15,10.583,15s0-15,10.584-15C124.136,330,120.1,360,104.984,360Zm30-30c-15.119,0-19.151-30-10.583-30,10.583,0,10.583,15,10.583,15s0-15,10.584-15C154.136,300,150.1,330,134.984,330Zm30-30c-15.119,0-19.151-30-10.583-30,10.583,0,10.583,15,10.583,15s0-15,10.584-15C184.136,270,180.1,300,164.984,300Zm30-30c-15.119,0-19.151-30-10.583-30,10.583,0,10.583,15,10.583,15s0-15,10.584-15C214.136,240,210.1,270,194.984,270Zm0,30c-15.119,0-19.151-30-10.583-30,10.583,0,10.583,15,10.583,15s0-15,10.584-15C214.136,270,210.1,300,194.984,300Zm0,30c-15.119,0-19.151-30-10.583-30,10.583,0,10.583,15,10.583,15s0-15,10.584-15C214.136,300,210.1,330,194.984,330Zm0,30c-15.119,0-19.151-30-10.583-30,10.583,0,10.583,15,10.583,15s0-15,10.584-15C214.136,330,210.1,360,194.984,360Zm-30,30c-15.119,0-19.151-30-10.583-30,10.583,0,10.583,15,10.583,15s0-15,10.584-15C184.136,360,180.1,390,164.984,390Zm-30,30c-15.119,0-19.151-30-10.583-30,10.583,0,10.583,15,10.583,15s0-15,10.584-15C154.136,390,150.1,420,134.984,420Zm-30,30c-15.119,0-19.151-30-10.583-30,10.583,0,10.583,15,10.583,15s0-15,10.584-15C124.136,420,120.1,450,104.984,450Zm0-30c-15.119,0-19.151-30-10.583-30,10.583,0,10.583,15,10.583,15s0-15,10.584-15C124.136,390,120.1,420,104.984,420Zm0-30c-15.119,0-19.151-30-10.583-30,10.583,0,10.583,15,10.583,15s0-15,10.584-15C124.136,360,120.1,390,104.984,390Zm30,0c-15.119,0-19.151-30-10.583-30,10.583,0,10.583,15,10.583,15s0-15,10.584-15C154.136,360,150.1,390,134.984,390Zm0-30c-15.119,0-19.151-30-10.583-30,10.583,0,10.583,15,10.583,15s0-15,10.584-15C154.136,330,150.1,360,134.984,360Zm30,0c-15.119,0-19.151-30-10.583-30,10.583,0,10.583,15,10.583,15s0-15,10.584-15C184.136,330,180.1,360,164.984,360Zm0-30c-15.119,0-19.151-30-10.583-30,10.583,0,10.583,15,10.583,15s0-15,10.584-15C184.136,300,180.1,330,164.984,330Zm-30,150c-15.119,0-19.151-30-10.583-30,10.583,0,10.583,15,10.583,15s0-15,10.584-15C154.136,450,150.1,480,134.984,480Zm-90,0c-15.12,0-19.152-30-10.584-30,10.584,0,10.584,15,10.584,15s0-15,10.584-15C64.136,450,60.1,480,44.984,480Zm120-30c-15.119,0-19.151-30-10.583-30,10.583,0,10.583,15,10.583,15s0-15,10.584-15C184.136,420,180.1,450,164.984,450Zm30-30c-15.119,0-19.151-30-10.583-30,10.583,0,10.583,15,10.583,15s0-15,10.584-15C214.136,390,210.1,420,194.984,420Zm60-390C239.865,30,235.833,0,244.4,0c10.583,0,10.583,15,10.583,15s0-15,10.584-15C274.136,0,270.1,30,254.984,30Zm0,30c-15.119,0-19.151-30-10.583-30,10.583,0,10.583,15,10.583,15s0-15,10.584-15C274.136,30,270.1,60,254.984,60Zm0,30c-15.119,0-19.151-30-10.583-30,10.583,0,10.583,15,10.583,15s0-15,10.584-15C274.136,60,270.1,90,254.984,90Zm0,30c-15.119,0-19.151-30-10.583-30,10.583,0,10.583,15,10.583,15s0-15,10.584-15C274.136,90,270.1,120,254.984,120Zm0,30c-15.119,0-19.151-30-10.583-30,10.583,0,10.583,15,10.583,15s0-15,10.584-15C274.136,120,270.1,150,254.984,150Zm0,30c-15.119,0-19.151-30-10.583-30,10.583,0,10.583,15,10.583,15s0-15,10.584-15C274.136,150,270.1,180,254.984,180Zm0,30c-15.119,0-19.151-30-10.583-30,10.583,0,10.583,15,10.583,15s0-15,10.584-15C274.136,180,270.1,210,254.984,210Zm0,30c-15.119,0-19.151-30-10.583-30,10.583,0,10.583,15,10.583,15s0-15,10.584-15C274.136,210,270.1,240,254.984,240Zm0,30c-15.119,0-19.151-30-10.583-30,10.583,0,10.583,15,10.583,15s0-15,10.584-15C274.136,240,270.1,270,254.984,270Zm0,30c-15.119,0-19.151-30-10.583-30,10.583,0,10.583,15,10.583,15s0-15,10.584-15C274.136,270,270.1,300,254.984,300Zm0,30c-15.119,0-19.151-30-10.583-30,10.583,0,10.583,15,10.583,15s0-15,10.584-15C274.136,300,270.1,330,254.984,330Zm0,30c-15.119,0-19.151-30-10.583-30,10.583,0,10.583,15,10.583,15s0-15,10.584-15C274.136,330,270.1,360,254.984,360Zm0,30c-15.119,0-19.151-30-10.583-30,10.583,0,10.583,15,10.583,15s0-15,10.584-15C274.136,360,270.1,390,254.984,390Zm0,30c-15.119,0-19.151-30-10.583-30,10.583,0,10.583,15,10.583,15s0-15,10.584-15C274.136,390,270.1,420,254.984,420Zm0,30c-15.119,0-19.151-30-10.583-30,10.583,0,10.583,15,10.583,15s0-15,10.584-15C274.136,420,270.1,450,254.984,450Zm0,30c-15.119,0-19.151-30-10.583-30,10.583,0,10.583,15,10.583,15s0-15,10.584-15C274.136,450,270.1,480,254.984,480Z"/>
</svg>
