<svg xmlns="http://www.w3.org/2000/svg" width="240" height="210" viewBox="0 0 240 210">
  <metadata><?xpacket begin="﻿" id="W5M0MpCehiHzreSzNTczkc9d"?>
<x:xmpmeta xmlns:x="adobe:ns:meta/" x:xmptk="Adobe XMP Core 5.6-c138 79.159824, 2016/09/14-01:09:01        ">
   <rdf:RDF xmlns:rdf="http://www.w3.org/1999/02/22-rdf-syntax-ns#">
      <rdf:Description rdf:about=""/>
   </rdf:RDF>
</x:xmpmeta>
                                                                                                    
                                                                                                    
                                                                                                    
                                                                                                    
                                                                                                    
                                                                                                    
                                                                                                    
                                                                                                    
                                                                                                    
                                                                                                    
                                                                                                    
                                                                                                    
                                                                                                    
                                                                                                    
                                                                                                    
                                                                                                    
                                                                                                    
                                                                                                    
                                                                                                    
                                                                                                    
                           
<?xpacket end="w"?></metadata>
<defs>
    <style>
      .cls-1 {
        fill: #fff;
        fill-rule: evenodd;
      }
    </style>
  </defs>
  <path class="cls-1" d="M195,30c15.1,0,19.132-30,10.573-30C195,0,195,15,195,15s0-15-10.573-15C175.868,0,179.9,30,195,30Zm0,30c15.1,0,19.132-30,10.573-30C195,30,195,45,195,45s0-15-10.573-15C175.868,30,179.9,60,195,60Zm0,30c15.1,0,19.132-30,10.573-30C195,60,195,75,195,75s0-15-10.573-15C175.868,60,179.9,90,195,90Zm0,30c15.1,0,19.132-30,10.573-30C195,90,195,105,195,105s0-15-10.573-15C175.868,90,179.9,120,195,120Zm0,30c15.1,0,19.132-30,10.573-30C195,120,195,135,195,135s0-15-10.573-15C175.868,120,179.9,150,195,150Zm0,30c15.1,0,19.132-30,10.573-30C195,150,195,165,195,165s0-15-10.573-15C175.868,150,179.9,180,195,180Zm0,30c15.1,0,19.132-30,10.573-30C195,180,195,195,195,195s0-15-10.573-15C175.868,180,179.9,210,195,210ZM15,90c15.1,0,19.132-30,10.573-30C15,60,15,75,15,75S15,60,4.427,60C-4.132,60-.1,90,15,90Zm0,30c15.1,0,19.132-30,10.573-30C15,90,15,105,15,105S15,90,4.427,90C-4.132,90-.1,120,15,120ZM75,90c15.1,0,19.132-30,10.573-30C75,60,75,75,75,75s0-15-10.573-15C55.868,60,59.9,90,75,90Zm0,30c15.1,0,19.132-30,10.573-30C75,90,75,105,75,105s0-15-10.573-15C55.868,90,59.9,120,75,120Zm30-60c15.1,0,19.132-30,10.573-30C105,30,105,45,105,45s0-15-10.573-15C85.868,30,89.9,60,105,60Zm0,30c15.1,0,19.132-30,10.573-30C105,60,105,75,105,75s0-15-10.573-15C85.868,60,89.9,90,105,90Zm0,30c15.1,0,19.132-30,10.573-30C105,90,105,105,105,105s0-15-10.573-15C85.868,90,89.9,120,105,120Zm0,30c15.1,0,19.132-30,10.573-30C105,120,105,135,105,135s0-15-10.573-15C85.868,120,89.9,150,105,150ZM135,30c15.1,0,19.132-30,10.573-30C135,0,135,15,135,15s0-15-10.573-15C115.868,0,119.9,30,135,30Zm0,30c15.1,0,19.132-30,10.573-30C135,30,135,45,135,45s0-15-10.573-15C115.868,30,119.9,60,135,60Zm0,30c15.1,0,19.132-30,10.573-30C135,60,135,75,135,75s0-15-10.573-15C115.868,60,119.9,90,135,90Zm0,30c15.1,0,19.132-30,10.573-30C135,90,135,105,135,105s0-15-10.573-15C115.868,90,119.9,120,135,120Zm0,30c15.1,0,19.132-30,10.573-30C135,120,135,135,135,135s0-15-10.573-15C115.868,120,119.9,150,135,150Zm0,30c15.1,0,19.132-30,10.573-30C135,150,135,165,135,165s0-15-10.573-15C115.868,150,119.9,180,135,180ZM45,150c15.1,0,19.132-30,10.573-30C45,120,45,135,45,135s0-15-10.573-15C25.868,120,29.9,150,45,150Zm30,30c15.1,0,19.132-30,10.573-30C75,150,75,165,75,165s0-15-10.573-15C55.868,150,59.9,180,75,180Zm30,30c15.1,0,19.132-30,10.573-30C105,180,105,195,105,195s0-15-10.573-15C85.868,180,89.9,210,105,210ZM45,60c15.1,0,19.132-30,10.573-30C45,30,45,45,45,45s0-15-10.573-15C25.868,30,29.9,60,45,60ZM75,30C90.1,30,94.132,0,85.573,0,75,0,75,15,75,15S75,0,64.427,0C55.868,0,59.9,30,75,30Z"/>
</svg>
