<svg xmlns="http://www.w3.org/2000/svg" width="240" height="210" viewBox="0 0 240 210">
  <metadata><?xpacket begin="﻿" id="W5M0MpCehiHzreSzNTczkc9d"?>
<x:xmpmeta xmlns:x="adobe:ns:meta/" x:xmptk="Adobe XMP Core 5.6-c138 79.159824, 2016/09/14-01:09:01        ">
   <rdf:RDF xmlns:rdf="http://www.w3.org/1999/02/22-rdf-syntax-ns#">
      <rdf:Description rdf:about=""/>
   </rdf:RDF>
</x:xmpmeta>
                                                                                                    
                                                                                                    
                                                                                                    
                                                                                                    
                                                                                                    
                                                                                                    
                                                                                                    
                                                                                                    
                                                                                                    
                                                                                                    
                                                                                                    
                                                                                                    
                                                                                                    
                                                                                                    
                                                                                                    
                                                                                                    
                                                                                                    
                                                                                                    
                                                                                                    
                                                                                                    
                           
<?xpacket end="w"?></metadata>
<defs>
    <style>
      .cls-1 {
        fill: #fff;
        fill-rule: evenodd;
      }
    </style>
  </defs>
  <path class="cls-1" d="M15,30C-0.1,30-4.132,0,4.427,0,15,0,15,15,15,15S15,0,25.573,0C34.132,0,30.1,30,15,30Zm30,0C29.9,30,25.868,0,34.427,0,45,0,45,15,45,15S45,0,55.573,0C64.132,0,60.1,30,45,30Zm30,0C59.9,30,55.868,0,64.427,0,75,0,75,15,75,15S75,0,85.573,0C94.132,0,90.1,30,75,30Zm30,0C89.9,30,85.868,0,94.427,0,105,0,105,15,105,15s0-15,10.573-15C124.132,0,120.1,30,105,30Zm30,0c-15.1,0-19.132-30-10.573-30C135,0,135,15,135,15s0-15,10.573-15C154.132,0,150.1,30,135,30Zm30,0c-15.1,0-19.132-30-10.573-30C165,0,165,15,165,15s0-15,10.573-15C184.132,0,180.1,30,165,30Zm30,0c-15.1,0-19.132-30-10.573-30C195,0,195,15,195,15s0-15,10.573-15C214.132,0,210.1,30,195,30Zm30,0c-15.1,0-19.132-30-10.573-30C225,0,225,15,225,15s0-15,10.573-15C244.132,0,240.1,30,225,30ZM15,90C-0.1,90-4.132,60,4.427,60,15,60,15,75,15,75s0-15,10.573-15C34.132,60,30.1,90,15,90Zm30,30c-15.1,0-19.132-30-10.573-30C45,90,45,105,45,105s0-15,10.573-15C64.132,90,60.1,120,45,120Zm30,30c-15.1,0-19.132-30-10.573-30C75,120,75,135,75,135s0-15,10.573-15C94.132,120,90.1,150,75,150Zm-60,0c-15.1,0-19.132-30-10.573-30C15,120,15,135,15,135s0-15,10.573-15C34.132,120,30.1,150,15,150ZM75,90C59.9,90,55.868,60,64.427,60,75,60,75,75,75,75s0-15,10.573-15C94.132,60,90.1,90,75,90Zm60,0c-15.1,0-19.132-30-10.573-30C135,60,135,75,135,75s0-15,10.573-15C154.132,60,150.1,90,135,90Zm0,30c-15.1,0-19.132-30-10.573-30C135,90,135,105,135,105s0-15,10.573-15C154.132,90,150.1,120,135,120Zm0,30c-15.1,0-19.132-30-10.573-30C135,120,135,135,135,135s0-15,10.573-15C154.132,120,150.1,150,135,150Zm30,0c-15.1,0-19.132-30-10.573-30C165,120,165,135,165,135s0-15,10.573-15C184.132,120,180.1,150,165,150Zm30,0c-15.1,0-19.132-30-10.573-30C195,120,195,135,195,135s0-15,10.573-15C214.132,120,210.1,150,195,150Zm0-30c-15.1,0-19.132-30-10.573-30C195,90,195,105,195,105s0-15,10.573-15C214.132,90,210.1,120,195,120Zm0-30c-15.1,0-19.132-30-10.573-30C195,60,195,75,195,75s0-15,10.573-15C214.132,60,210.1,90,195,90Zm-30,0c-15.1,0-19.132-30-10.573-30C165,60,165,75,165,75s0-15,10.573-15C184.132,60,180.1,90,165,90ZM15,210c-15.1,0-19.132-30-10.573-30C15,180,15,195,15,195s0-15,10.573-15C34.132,180,30.1,210,15,210Zm30,0c-15.1,0-19.132-30-10.573-30C45,180,45,195,45,195s0-15,10.573-15C64.132,180,60.1,210,45,210Zm30,0c-15.1,0-19.132-30-10.573-30C75,180,75,195,75,195s0-15,10.573-15C94.132,180,90.1,210,75,210Zm30,0c-15.1,0-19.132-30-10.573-30C105,180,105,195,105,195s0-15,10.573-15C124.132,180,120.1,210,105,210Zm30,0c-15.1,0-19.132-30-10.573-30C135,180,135,195,135,195s0-15,10.573-15C154.132,180,150.1,210,135,210Zm30,0c-15.1,0-19.132-30-10.573-30C165,180,165,195,165,195s0-15,10.573-15C184.132,180,180.1,210,165,210Zm30,0c-15.1,0-19.132-30-10.573-30C195,180,195,195,195,195s0-15,10.573-15C214.132,180,210.1,210,195,210Zm30,0c-15.1,0-19.132-30-10.573-30C225,180,225,195,225,195s0-15,10.573-15C244.132,180,240.1,210,225,210Z"/>
</svg>
