<svg xmlns="http://www.w3.org/2000/svg" width="240" height="210" viewBox="0 0 240 210">
  <metadata><?xpacket begin="﻿" id="W5M0MpCehiHzreSzNTczkc9d"?>
<x:xmpmeta xmlns:x="adobe:ns:meta/" x:xmptk="Adobe XMP Core 5.6-c138 79.159824, 2016/09/14-01:09:01        ">
   <rdf:RDF xmlns:rdf="http://www.w3.org/1999/02/22-rdf-syntax-ns#">
      <rdf:Description rdf:about=""/>
   </rdf:RDF>
</x:xmpmeta>
                                                                                                    
                                                                                                    
                                                                                                    
                                                                                                    
                                                                                                    
                                                                                                    
                                                                                                    
                                                                                                    
                                                                                                    
                                                                                                    
                                                                                                    
                                                                                                    
                                                                                                    
                                                                                                    
                                                                                                    
                                                                                                    
                                                                                                    
                                                                                                    
                                                                                                    
                                                                                                    
                           
<?xpacket end="w"?></metadata>
<defs>
    <style>
      .cls-1 {
        fill: #db1313;
        fill-rule: evenodd;
      }
    </style>
  </defs>
  <path class="cls-1" d="M45,30C29.9,30,25.868,0,34.427,0,45,0,45,15,45,15S45,0,55.573,0C64.132,0,60.1,30,45,30Zm0,30C29.9,60,25.868,30,34.427,30,45,30,45,45,45,45s0-15,10.573-15C64.132,30,60.1,60,45,60Zm0,30C29.9,90,25.868,60,34.427,60,45,60,45,75,45,75s0-15,10.573-15C64.132,60,60.1,90,45,90Zm0,30c-15.1,0-19.132-30-10.573-30C45,90,45,105,45,105s0-15,10.573-15C64.132,90,60.1,120,45,120Zm0,30c-15.1,0-19.132-30-10.573-30C45,120,45,135,45,135s0-15,10.573-15C64.132,120,60.1,150,45,150Zm0,30c-15.1,0-19.132-30-10.573-30C45,150,45,165,45,165s0-15,10.573-15C64.132,150,60.1,180,45,180Zm0,30c-15.1,0-19.132-30-10.573-30C45,180,45,195,45,195s0-15,10.573-15C64.132,180,60.1,210,45,210ZM225,90c-15.1,0-19.132-30-10.573-30C225,60,225,75,225,75s0-15,10.573-15C244.132,60,240.1,90,225,90Zm0,30c-15.1,0-19.132-30-10.573-30C225,90,225,105,225,105s0-15,10.573-15C244.132,90,240.1,120,225,120ZM165,90c-15.1,0-19.132-30-10.573-30C165,60,165,75,165,75s0-15,10.573-15C184.132,60,180.1,90,165,90Zm0,30c-15.1,0-19.132-30-10.573-30C165,90,165,105,165,105s0-15,10.573-15C184.132,90,180.1,120,165,120ZM135,60c-15.1,0-19.132-30-10.573-30C135,30,135,45,135,45s0-15,10.573-15C154.132,30,150.1,60,135,60Zm0,30c-15.1,0-19.132-30-10.573-30C135,60,135,75,135,75s0-15,10.573-15C154.132,60,150.1,90,135,90Zm0,30c-15.1,0-19.132-30-10.573-30C135,90,135,105,135,105s0-15,10.573-15C154.132,90,150.1,120,135,120Zm0,30c-15.1,0-19.132-30-10.573-30C135,120,135,135,135,135s0-15,10.573-15C154.132,120,150.1,150,135,150ZM105,30C89.9,30,85.868,0,94.427,0,105,0,105,15,105,15s0-15,10.573-15C124.132,0,120.1,30,105,30Zm0,30C89.9,60,85.868,30,94.427,30,105,30,105,45,105,45s0-15,10.573-15C124.132,30,120.1,60,105,60Zm0,30C89.9,90,85.868,60,94.427,60,105,60,105,75,105,75s0-15,10.573-15C124.132,60,120.1,90,105,90Zm0,30c-15.1,0-19.132-30-10.573-30C105,90,105,105,105,105s0-15,10.573-15C124.132,90,120.1,120,105,120Zm0,30c-15.1,0-19.132-30-10.573-30C105,120,105,135,105,135s0-15,10.573-15C124.132,120,120.1,150,105,150Zm0,30c-15.1,0-19.132-30-10.573-30C105,150,105,165,105,165s0-15,10.573-15C124.132,150,120.1,180,105,180Zm90-30c-15.1,0-19.132-30-10.573-30C195,120,195,135,195,135s0-15,10.573-15C214.132,120,210.1,150,195,150Zm-30,30c-15.1,0-19.132-30-10.573-30C165,150,165,165,165,165s0-15,10.573-15C184.132,150,180.1,180,165,180Zm-30,30c-15.1,0-19.132-30-10.573-30C135,180,135,195,135,195s0-15,10.573-15C154.132,180,150.1,210,135,210ZM195,60c-15.1,0-19.132-30-10.573-30C195,30,195,45,195,45s0-15,10.573-15C214.132,30,210.1,60,195,60ZM165,30c-15.1,0-19.132-30-10.573-30C165,0,165,15,165,15s0-15,10.573-15C184.132,0,180.1,30,165,30Z"/>
</svg>
