<svg xmlns="http://www.w3.org/2000/svg" width="240" height="60" viewBox="0 0 240 60">
  <metadata><?xpacket begin="﻿" id="W5M0MpCehiHzreSzNTczkc9d"?>
<x:xmpmeta xmlns:x="adobe:ns:meta/" x:xmptk="Adobe XMP Core 5.6-c138 79.159824, 2016/09/14-01:09:01        ">
   <rdf:RDF xmlns:rdf="http://www.w3.org/1999/02/22-rdf-syntax-ns#">
      <rdf:Description rdf:about=""/>
   </rdf:RDF>
</x:xmpmeta>
                                                                                                    
                                                                                                    
                                                                                                    
                                                                                                    
                                                                                                    
                                                                                                    
                                                                                                    
                                                                                                    
                                                                                                    
                                                                                                    
                                                                                                    
                                                                                                    
                                                                                                    
                                                                                                    
                                                                                                    
                                                                                                    
                                                                                                    
                                                                                                    
                                                                                                    
                                                                                                    
                           
<?xpacket end="w"?></metadata>
<defs>
    <style>
      .cls-1 {
        fill: #db1313;
        fill-rule: evenodd;
      }
    </style>
  </defs>
  <path class="cls-1" d="M15,60C-0.1,60-4.132,30,4.427,30,15,30,15,45,15,45s0-15,10.573-15C34.132,30,30.1,60,15,60Zm30,0C29.9,60,25.868,30,34.427,30,45,30,45,45,45,45s0-15,10.573-15C64.132,30,60.1,60,45,60Zm0-30C29.9,30,25.868,0,34.427,0,45,0,45,15,45,15S45,0,55.573,0C64.132,0,60.1,30,45,30ZM75,60C59.9,60,55.868,30,64.427,30,75,30,75,45,75,45s0-15,10.573-15C94.132,30,90.1,60,75,60Zm60-30c-15.1,0-19.132-30-10.573-30C135,0,135,15,135,15s0-15,10.573-15C154.132,0,150.1,30,135,30Zm30,30c-15.1,0-19.132-30-10.573-30C165,30,165,45,165,45s0-15,10.573-15C184.132,30,180.1,60,165,60Zm0-30c-15.1,0-19.132-30-10.573-30C165,0,165,15,165,15s0-15,10.573-15C184.132,0,180.1,30,165,30Zm30,0c-15.1,0-19.132-30-10.573-30C195,0,195,15,195,15s0-15,10.573-15C214.132,0,210.1,30,195,30Z"/>
</svg>
