<svg xmlns="http://www.w3.org/2000/svg" width="150" height="90" viewBox="0 0 150 90">
  <metadata><?xpacket begin="﻿" id="W5M0MpCehiHzreSzNTczkc9d"?>
<x:xmpmeta xmlns:x="adobe:ns:meta/" x:xmptk="Adobe XMP Core 5.6-c138 79.159824, 2016/09/14-01:09:01        ">
   <rdf:RDF xmlns:rdf="http://www.w3.org/1999/02/22-rdf-syntax-ns#">
      <rdf:Description rdf:about=""/>
   </rdf:RDF>
</x:xmpmeta>
                                                                                                    
                                                                                                    
                                                                                                    
                                                                                                    
                                                                                                    
                                                                                                    
                                                                                                    
                                                                                                    
                                                                                                    
                                                                                                    
                                                                                                    
                                                                                                    
                                                                                                    
                                                                                                    
                                                                                                    
                                                                                                    
                                                                                                    
                                                                                                    
                                                                                                    
                                                                                                    
                           
<?xpacket end="w"?></metadata>
<defs>
    <style>
      .cls-1 {
        fill: #db1313;
        fill-rule: evenodd;
      }
    </style>
  </defs>
  <path class="cls-1" d="M15,30C-0.1,30-4.132,0,4.427,0,15,0,15,15,15,15S15,0,25.573,0C34.132,0,30.1,30,15,30ZM45,60C29.9,60,25.868,30,34.427,30,45,30,45,45,45,45s0-15,10.573-15C64.132,30,60.1,60,45,60ZM75,90C59.9,90,55.868,60,64.427,60,75,60,75,75,75,75s0-15,10.573-15C94.132,60,90.1,90,75,90Zm30-30C89.9,60,85.868,30,94.427,30,105,30,105,45,105,45s0-15,10.573-15C124.132,30,120.1,60,105,60Zm30-30c-15.1,0-19.132-30-10.573-30C135,0,135,15,135,15s0-15,10.573-15C154.132,0,150.1,30,135,30Zm-30,0C89.9,30,85.868,0,94.427,0,105,0,105,15,105,15s0-15,10.573-15C124.132,0,120.1,30,105,30ZM75,60C59.9,60,55.868,30,64.427,30,75,30,75,45,75,45s0-15,10.573-15C94.132,30,90.1,60,75,60Zm0-30C59.9,30,55.868,0,64.427,0,75,0,75,15,75,15S75,0,85.573,0C94.132,0,90.1,30,75,30ZM45,30C29.9,30,25.868,0,34.427,0,45,0,45,15,45,15S45,0,55.573,0C64.132,0,60.1,30,45,30Z"/>
</svg>
