<svg xmlns="http://www.w3.org/2000/svg" width="180" height="180" viewBox="0 0 180 180">
  <metadata><?xpacket begin="﻿" id="W5M0MpCehiHzreSzNTczkc9d"?>
<x:xmpmeta xmlns:x="adobe:ns:meta/" x:xmptk="Adobe XMP Core 5.6-c138 79.159824, 2016/09/14-01:09:01        ">
   <rdf:RDF xmlns:rdf="http://www.w3.org/1999/02/22-rdf-syntax-ns#">
      <rdf:Description rdf:about=""/>
   </rdf:RDF>
</x:xmpmeta>
                                                                                                    
                                                                                                    
                                                                                                    
                                                                                                    
                                                                                                    
                                                                                                    
                                                                                                    
                                                                                                    
                                                                                                    
                                                                                                    
                                                                                                    
                                                                                                    
                                                                                                    
                                                                                                    
                                                                                                    
                                                                                                    
                                                                                                    
                                                                                                    
                                                                                                    
                                                                                                    
                           
<?xpacket end="w"?></metadata>
<defs>
    <style>
      .cls-1 {
        fill: #db1313;
        fill-rule: evenodd;
      }
    </style>
  </defs>
  <path class="cls-1" d="M15,90C-0.1,90-4.132,60,4.427,60,15,60,15,75,15,75s0-15,10.573-15C34.132,60,30.1,90,15,90ZM45,60C29.9,60,25.868,30,34.427,30,45,30,45,45,45,45s0-15,10.573-15C64.132,30,60.1,60,45,60ZM75,30C59.9,30,55.868,0,64.427,0,75,0,75,15,75,15S75,0,85.573,0C94.132,0,90.1,30,75,30Zm30,30C89.9,60,85.868,30,94.427,30,105,30,105,45,105,45s0-15,10.573-15C124.132,30,120.1,60,105,60Zm30,30c-15.1,0-19.132-30-10.573-30C135,60,135,75,135,75s0-15,10.573-15C154.132,60,150.1,90,135,90Zm-30,30c-15.1,0-19.132-30-10.573-30C105,90,105,105,105,105s0-15,10.573-15C124.132,90,120.1,120,105,120ZM75,150c-15.1,0-19.132-30-10.573-30C75,120,75,135,75,135s0-15,10.573-15C94.132,120,90.1,150,75,150ZM45,120c-15.1,0-19.132-30-10.573-30C45,90,45,105,45,105s0-15,10.573-15C64.132,90,60.1,120,45,120Z"/>
</svg>
