<svg xmlns="http://www.w3.org/2000/svg" width="871" height="871" viewBox="0 0 871 871">
  <metadata><?xpacket begin="﻿" id="W5M0MpCehiHzreSzNTczkc9d"?>
<x:xmpmeta xmlns:x="adobe:ns:meta/" x:xmptk="Adobe XMP Core 5.6-c138 79.159824, 2016/09/14-01:09:01        ">
   <rdf:RDF xmlns:rdf="http://www.w3.org/1999/02/22-rdf-syntax-ns#">
      <rdf:Description rdf:about=""/>
   </rdf:RDF>
</x:xmpmeta>
                                                                                                    
                                                                                                    
                                                                                                    
                                                                                                    
                                                                                                    
                                                                                                    
                                                                                                    
                                                                                                    
                                                                                                    
                                                                                                    
                                                                                                    
                                                                                                    
                                                                                                    
                                                                                                    
                                                                                                    
                                                                                                    
                                                                                                    
                                                                                                    
                                                                                                    
                                                                                                    
                           
<?xpacket end="w"?></metadata>
<defs>
    <style>
      .cls-1 {
        fill: #db1313;
        fill-rule: evenodd;
      }
    </style>
  </defs>
  <path class="cls-1" d="M16,271C0.9,271-3.132,241,5.427,241,16,241,16,256,16,256s0-15,10.573-15C35.132,241,31.1,271,16,271Zm30,0c-15.1,0-19.132-30-10.573-30C46,241,46,256,46,256s0-15,10.573-15C65.132,241,61.1,271,46,271Zm30,0c-15.1,0-19.132-30-10.573-30C76,241,76,256,76,256s0-15,10.573-15C95.132,241,91.1,271,76,271Zm30,0c-15.1,0-19.132-30-10.573-30C106,241,106,256,106,256s0-15,10.573-15C125.132,241,121.1,271,106,271Zm30,0c-15.1,0-19.132-30-10.573-30C136,241,136,256,136,256s0-15,10.573-15C155.132,241,151.1,271,136,271Zm30,0c-15.1,0-19.132-30-10.573-30C166,241,166,256,166,256s0-15,10.573-15C185.132,241,181.1,271,166,271Zm30,0c-15.1,0-19.132-30-10.573-30C196,241,196,256,196,256s0-15,10.573-15C215.132,241,211.1,271,196,271Zm30,0c-15.1,0-19.132-30-10.573-30C226,241,226,256,226,256s0-15,10.573-15C245.132,241,241.1,271,226,271ZM46,301c-15.1,0-19.132-30-10.573-30C46,271,46,286,46,286s0-15,10.573-15C65.132,271,61.1,301,46,301Zm30,0c-15.1,0-19.132-30-10.573-30C76,271,76,286,76,286s0-15,10.573-15C95.132,271,91.1,301,76,301Zm30,0c-15.1,0-19.132-30-10.573-30C106,271,106,286,106,286s0-15,10.573-15C125.132,271,121.1,301,106,301Zm30,0c-15.1,0-19.132-30-10.573-30C136,271,136,286,136,286s0-15,10.573-15C155.132,271,151.1,301,136,301Zm30,0c-15.1,0-19.132-30-10.573-30C166,271,166,286,166,286s0-15,10.573-15C185.132,271,181.1,301,166,301Zm30,0c-15.1,0-19.132-30-10.573-30C196,271,196,286,196,286s0-15,10.573-15C215.132,271,211.1,301,196,301Zm30,0c-15.1,0-19.132-30-10.573-30C226,271,226,286,226,286s0-15,10.573-15C245.132,271,241.1,301,226,301Zm30,0c-15.1,0-19.132-30-10.573-30C256,271,256,286,256,286s0-15,10.573-15C275.132,271,271.1,301,256,301ZM76,331c-15.1,0-19.132-30-10.573-30C76,301,76,316,76,316s0-15,10.573-15C95.132,301,91.1,331,76,331Zm30,0c-15.1,0-19.132-30-10.573-30C106,301,106,316,106,316s0-15,10.573-15C125.132,301,121.1,331,106,331Zm30,0c-15.1,0-19.132-30-10.573-30C136,301,136,316,136,316s0-15,10.573-15C155.132,301,151.1,331,136,331Zm30,0c-15.1,0-19.132-30-10.573-30C166,301,166,316,166,316s0-15,10.573-15C185.132,301,181.1,331,166,331Zm30,0c-15.1,0-19.132-30-10.573-30C196,301,196,316,196,316s0-15,10.573-15C215.132,301,211.1,331,196,331Zm30,0c-15.1,0-19.132-30-10.573-30C226,301,226,316,226,316s0-15,10.573-15C245.132,301,241.1,331,226,331Zm30,0c-15.1,0-19.132-30-10.573-30C256,301,256,316,256,316s0-15,10.573-15C275.132,301,271.1,331,256,331Zm30,0c-15.1,0-19.132-30-10.573-30C286,301,286,316,286,316s0-15,10.573-15C305.132,301,301.1,331,286,331ZM106,361c-15.1,0-19.132-30-10.573-30C106,331,106,346,106,346s0-15,10.573-15C125.132,331,121.1,361,106,361Zm30,0c-15.1,0-19.132-30-10.573-30C136,331,136,346,136,346s0-15,10.573-15C155.132,331,151.1,361,136,361Zm30,0c-15.1,0-19.132-30-10.573-30C166,331,166,346,166,346s0-15,10.573-15C185.132,331,181.1,361,166,361Zm30,0c-15.1,0-19.132-30-10.573-30C196,331,196,346,196,346s0-15,10.573-15C215.132,331,211.1,361,196,361Zm30,0c-15.1,0-19.132-30-10.573-30C226,331,226,346,226,346s0-15,10.573-15C245.132,331,241.1,361,226,361Zm30,0c-15.1,0-19.132-30-10.573-30C256,331,256,346,256,346s0-15,10.573-15C275.132,331,271.1,361,256,361Zm30,0c-15.1,0-19.132-30-10.573-30C286,331,286,346,286,346s0-15,10.573-15C305.132,331,301.1,361,286,361Zm30,0c-15.1,0-19.132-30-10.573-30C316,331,316,346,316,346s0-15,10.573-15C335.132,331,331.1,361,316,361ZM136,391c-15.1,0-19.132-30-10.573-30C136,361,136,376,136,376s0-15,10.573-15C155.132,361,151.1,391,136,391Zm30,0c-15.1,0-19.132-30-10.573-30C166,361,166,376,166,376s0-15,10.573-15C185.132,361,181.1,391,166,391Zm30,0c-15.1,0-19.132-30-10.573-30C196,361,196,376,196,376s0-15,10.573-15C215.132,361,211.1,391,196,391Zm30,0c-15.1,0-19.132-30-10.573-30C226,361,226,376,226,376s0-15,10.573-15C245.132,361,241.1,391,226,391Zm30,0c-15.1,0-19.132-30-10.573-30C256,361,256,376,256,376s0-15,10.573-15C275.132,361,271.1,391,256,391Zm30,0c-15.1,0-19.132-30-10.573-30C286,361,286,376,286,376s0-15,10.573-15C305.132,361,301.1,391,286,391Zm30,0c-15.1,0-19.132-30-10.573-30C316,361,316,376,316,376s0-15,10.573-15C335.132,361,331.1,391,316,391Zm30,0c-15.1,0-19.132-30-10.573-30C346,361,346,376,346,376s0-15,10.573-15C365.132,361,361.1,391,346,391ZM166,421c-15.1,0-19.132-30-10.573-30C166,391,166,406,166,406s0-15,10.573-15C185.132,391,181.1,421,166,421Zm30,0c-15.1,0-19.132-30-10.573-30C196,391,196,406,196,406s0-15,10.573-15C215.132,391,211.1,421,196,421Zm30,0c-15.1,0-19.132-30-10.573-30C226,391,226,406,226,406s0-15,10.573-15C245.132,391,241.1,421,226,421Zm30,0c-15.1,0-19.132-30-10.573-30C256,391,256,406,256,406s0-15,10.573-15C275.132,391,271.1,421,256,421Zm30,0c-15.1,0-19.132-30-10.573-30C286,391,286,406,286,406s0-15,10.573-15C305.132,391,301.1,421,286,421Zm30,0c-15.1,0-19.132-30-10.573-30C316,391,316,406,316,406s0-15,10.573-15C335.132,391,331.1,421,316,421Zm30,0c-15.1,0-19.132-30-10.573-30C346,391,346,406,346,406s0-15,10.573-15C365.132,391,361.1,421,346,421Zm30,0c-15.1,0-19.132-30-10.573-30C376,391,376,406,376,406s0-15,10.573-15C395.132,391,391.1,421,376,421Zm0,60c-15.1,0-19.132-30-10.573-30C376,451,376,466,376,466s0-15,10.573-15C395.132,451,391.1,481,376,481Zm-30,0c-15.1,0-19.132-30-10.573-30C346,451,346,466,346,466s0-15,10.573-15C365.132,451,361.1,481,346,481Zm-30,0c-15.1,0-19.132-30-10.573-30C316,451,316,466,316,466s0-15,10.573-15C335.132,451,331.1,481,316,481Zm-30,0c-15.1,0-19.132-30-10.573-30C286,451,286,466,286,466s0-15,10.573-15C305.132,451,301.1,481,286,481Zm-30,0c-15.1,0-19.132-30-10.573-30C256,451,256,466,256,466s0-15,10.573-15C275.132,451,271.1,481,256,481Zm-30,0c-15.1,0-19.132-30-10.573-30C226,451,226,466,226,466s0-15,10.573-15C245.132,451,241.1,481,226,481Zm-30,0c-15.1,0-19.132-30-10.573-30C196,451,196,466,196,466s0-15,10.573-15C215.132,451,211.1,481,196,481Zm-30,0c-15.1,0-19.132-30-10.573-30C166,451,166,466,166,466s0-15,10.573-15C185.132,451,181.1,481,166,481Zm90-240c-15.1,0-19.132-30-10.573-30C256,211,256,226,256,226s0-15,10.573-15C275.132,211,271.1,241,256,241Zm30,30c-15.1,0-19.132-30-10.573-30C286,241,286,256,286,256s0-15,10.573-15C305.132,241,301.1,271,286,271Zm30,30c-15.1,0-19.132-30-10.573-30C316,271,316,286,316,286s0-15,10.573-15C335.132,271,331.1,301,316,301Zm30,30c-15.1,0-19.132-30-10.573-30C346,301,346,316,346,316s0-15,10.573-15C365.132,301,361.1,331,346,331Zm30,30c-15.1,0-19.132-30-10.573-30C376,331,376,346,376,346s0-15,10.573-15C395.132,331,391.1,361,376,361Zm30,30c-15.1,0-19.132-30-10.573-30C406,361,406,376,406,376s0-15,10.573-15C425.132,361,421.1,391,406,391Zm0-210c-15.1,0-19.132-30-10.573-30C406,151,406,166,406,166s0-15,10.573-15C425.132,151,421.1,181,406,181Zm-30-30c-15.1,0-19.132-30-10.573-30C376,121,376,136,376,136s0-15,10.573-15C395.132,121,391.1,151,376,151Zm-30-30c-15.1,0-19.132-30-10.573-30C346,91,346,106,346,106s0-15,10.573-15C365.132,91,361.1,121,346,121ZM316,91c-15.1,0-19.132-30-10.573-30C316,61,316,76,316,76s0-15,10.573-15C335.132,61,331.1,91,316,91ZM286,61c-15.1,0-19.132-30-10.573-30C286,31,286,46,286,46s0-15,10.573-15C305.132,31,301.1,61,286,61ZM256,31c-15.1,0-19.132-30-10.573-30C256,1,256,16,256,16s0-15,10.573-15C275.132,1,271.1,31,256,31ZM466,181c-15.1,0-19.132-30-10.573-30C466,151,466,166,466,166s0-15,10.573-15C485.132,151,481.1,181,466,181Zm30-30c-15.1,0-19.132-30-10.573-30C496,121,496,136,496,136s0-15,10.573-15C515.132,121,511.1,151,496,151Zm30-30c-15.1,0-19.132-30-10.573-30C526,91,526,106,526,106s0-15,10.573-15C545.132,91,541.1,121,526,121Zm30-30c-15.1,0-19.132-30-10.573-30C556,61,556,76,556,76s0-15,10.573-15C575.132,61,571.1,91,556,91Zm30-30c-15.1,0-19.132-30-10.573-30C586,31,586,46,586,46s0-15,10.573-15C605.132,31,601.1,61,586,61Zm30-30c-15.1,0-19.132-30-10.573-30C616,1,616,16,616,16s0-15,10.573-15C635.132,1,631.1,31,616,31Zm0,210c-15.1,0-19.132-30-10.573-30C616,211,616,226,616,226s0-15,10.573-15C635.132,211,631.1,241,616,241ZM466,391c-15.1,0-19.132-30-10.573-30C466,361,466,376,466,376s0-15,10.573-15C485.132,361,481.1,391,466,391Zm30,30c-15.1,0-19.132-30-10.573-30C496,391,496,406,496,406s0-15,10.573-15C515.132,391,511.1,421,496,421ZM646,271c-15.1,0-19.132-30-10.573-30C646,241,646,256,646,256s0-15,10.573-15C665.132,241,661.1,271,646,271Zm210,0c-15.1,0-19.132-30-10.573-30C856,241,856,256,856,256s0-15,10.573-15C875.132,241,871.1,271,856,271ZM706,421c-15.1,0-19.132-30-10.573-30C706,391,706,406,706,406s0-15,10.573-15C725.132,391,721.1,421,706,421ZM496,481c-15.1,0-19.132-30-10.573-30C496,451,496,466,496,466s0-15,10.573-15C515.132,451,511.1,481,496,481Zm210,0c-15.1,0-19.132-30-10.573-30C706,451,706,466,706,466s0-15,10.573-15C725.132,451,721.1,481,706,481ZM466,511c-15.1,0-19.132-30-10.573-30C466,481,466,496,466,496s0-15,10.573-15C485.132,481,481.1,511,466,511Zm-60,0c-15.1,0-19.132-30-10.573-30C406,481,406,496,406,496s0-15,10.573-15C425.132,481,421.1,511,406,511Zm0,210c-15.1,0-19.132-30-10.573-30C406,691,406,706,406,706s0-15,10.573-15C425.132,691,421.1,721,406,721ZM256,871c-15.1,0-19.132-30-10.573-30C256,841,256,856,256,856s0-15,10.573-15C275.132,841,271.1,871,256,871ZM466,721c-15.1,0-19.132-30-10.573-30C466,691,466,706,466,706s0-15,10.573-15C485.132,691,481.1,721,466,721ZM616,871c-15.1,0-19.132-30-10.573-30C616,841,616,856,616,856s0-15,10.573-15C635.132,841,631.1,871,616,871Zm0-210c-15.1,0-19.132-30-10.573-30C616,631,616,646,616,646s0-15,10.573-15C635.132,631,631.1,661,616,661Zm30-30c-15.1,0-19.132-30-10.573-30C646,601,646,616,646,616s0-15,10.573-15C665.132,601,661.1,631,646,631Zm210,0c-15.1,0-19.132-30-10.573-30C856,601,856,616,856,616s0-15,10.573-15C875.132,601,871.1,631,856,631ZM256,661c-15.1,0-19.132-30-10.573-30C256,631,256,646,256,646s0-15,10.573-15C275.132,631,271.1,661,256,661Zm-30-30c-15.1,0-19.132-30-10.573-30C226,601,226,616,226,616s0-15,10.573-15C245.132,601,241.1,631,226,631ZM16,631C0.9,631-3.132,601,5.427,601,16,601,16,616,16,616s0-15,10.573-15C35.132,601,31.1,631,16,631Zm30-30c-15.1,0-19.132-30-10.573-30C46,571,46,586,46,586s0-15,10.573-15C65.132,571,61.1,601,46,601Zm30-30c-15.1,0-19.132-30-10.573-30C76,541,76,556,76,556s0-15,10.573-15C95.132,541,91.1,571,76,571Zm30-30c-15.1,0-19.132-30-10.573-30C106,511,106,526,106,526s0-15,10.573-15C125.132,511,121.1,541,106,541Zm30-30c-15.1,0-19.132-30-10.573-30C136,481,136,496,136,496s0-15,10.573-15C155.132,481,151.1,511,136,511Zm240,30c-15.1,0-19.132-30-10.573-30C376,511,376,526,376,526s0-15,10.573-15C395.132,511,391.1,541,376,541Zm-30,30c-15.1,0-19.132-30-10.573-30C346,541,346,556,346,556s0-15,10.573-15C365.132,541,361.1,571,346,571Zm-30,30c-15.1,0-19.132-30-10.573-30C316,571,316,586,316,586s0-15,10.573-15C335.132,571,331.1,601,316,601Zm-30,30c-15.1,0-19.132-30-10.573-30C286,601,286,616,286,616s0-15,10.573-15C305.132,601,301.1,631,286,631Zm-30-30c-15.1,0-19.132-30-10.573-30C256,571,256,586,256,586s0-15,10.573-15C275.132,571,271.1,601,256,601Zm30-30c-15.1,0-19.132-30-10.573-30C286,541,286,556,286,556s0-15,10.573-15C305.132,541,301.1,571,286,571Zm30-30c-15.1,0-19.132-30-10.573-30C316,511,316,526,316,526s0-15,10.573-15C335.132,511,331.1,541,316,541Zm30-30c-15.1,0-19.132-30-10.573-30C346,481,346,496,346,496s0-15,10.573-15C365.132,481,361.1,511,346,511ZM46,631c-15.1,0-19.132-30-10.573-30C46,601,46,616,46,616s0-15,10.573-15C65.132,601,61.1,631,46,631Zm30,0c-15.1,0-19.132-30-10.573-30C76,601,76,616,76,616s0-15,10.573-15C95.132,601,91.1,631,76,631Zm30,0c-15.1,0-19.132-30-10.573-30C106,601,106,616,106,616s0-15,10.573-15C125.132,601,121.1,631,106,631Zm30,0c-15.1,0-19.132-30-10.573-30C136,601,136,616,136,616s0-15,10.573-15C155.132,601,151.1,631,136,631Zm30,0c-15.1,0-19.132-30-10.573-30C166,601,166,616,166,616s0-15,10.573-15C185.132,601,181.1,631,166,631Zm30,0c-15.1,0-19.132-30-10.573-30C196,601,196,616,196,616s0-15,10.573-15C215.132,601,211.1,631,196,631ZM76,601c-15.1,0-19.132-30-10.573-30C76,571,76,586,76,586s0-15,10.573-15C95.132,571,91.1,601,76,601Zm30,0c-15.1,0-19.132-30-10.573-30C106,571,106,586,106,586s0-15,10.573-15C125.132,571,121.1,601,106,601Zm30,0c-15.1,0-19.132-30-10.573-30C136,571,136,586,136,586s0-15,10.573-15C155.132,571,151.1,601,136,601Zm30,0c-15.1,0-19.132-30-10.573-30C166,571,166,586,166,586s0-15,10.573-15C185.132,571,181.1,601,166,601Zm30,0c-15.1,0-19.132-30-10.573-30C196,571,196,586,196,586s0-15,10.573-15C215.132,571,211.1,601,196,601Zm30,0c-15.1,0-19.132-30-10.573-30C226,571,226,586,226,586s0-15,10.573-15C245.132,571,241.1,601,226,601ZM106,571c-15.1,0-19.132-30-10.573-30C106,541,106,556,106,556s0-15,10.573-15C125.132,541,121.1,571,106,571Zm30,0c-15.1,0-19.132-30-10.573-30C136,541,136,556,136,556s0-15,10.573-15C155.132,541,151.1,571,136,571Zm30,0c-15.1,0-19.132-30-10.573-30C166,541,166,556,166,556s0-15,10.573-15C185.132,541,181.1,571,166,571Zm30,0c-15.1,0-19.132-30-10.573-30C196,541,196,556,196,556s0-15,10.573-15C215.132,541,211.1,571,196,571Zm30,0c-15.1,0-19.132-30-10.573-30C226,541,226,556,226,556s0-15,10.573-15C245.132,541,241.1,571,226,571Zm30,0c-15.1,0-19.132-30-10.573-30C256,541,256,556,256,556s0-15,10.573-15C275.132,541,271.1,571,256,571ZM136,541c-15.1,0-19.132-30-10.573-30C136,511,136,526,136,526s0-15,10.573-15C155.132,511,151.1,541,136,541Zm30,0c-15.1,0-19.132-30-10.573-30C166,511,166,526,166,526s0-15,10.573-15C185.132,511,181.1,541,166,541Zm30,0c-15.1,0-19.132-30-10.573-30C196,511,196,526,196,526s0-15,10.573-15C215.132,511,211.1,541,196,541Zm30,0c-15.1,0-19.132-30-10.573-30C226,511,226,526,226,526s0-15,10.573-15C245.132,511,241.1,541,226,541Zm-60-30c-15.1,0-19.132-30-10.573-30C166,481,166,496,166,496s0-15,10.573-15C185.132,481,181.1,511,166,511Zm30,0c-15.1,0-19.132-30-10.573-30C196,481,196,496,196,496s0-15,10.573-15C215.132,481,211.1,511,196,511Zm30,0c-15.1,0-19.132-30-10.573-30C226,481,226,496,226,496s0-15,10.573-15C245.132,481,241.1,511,226,511Zm30,0c-15.1,0-19.132-30-10.573-30C256,481,256,496,256,496s0-15,10.573-15C275.132,481,271.1,511,256,511Zm30,0c-15.1,0-19.132-30-10.573-30C286,481,286,496,286,496s0-15,10.573-15C305.132,481,301.1,511,286,511Zm30,0c-15.1,0-19.132-30-10.573-30C316,481,316,496,316,496s0-15,10.573-15C335.132,481,331.1,511,316,511Zm-60,30c-15.1,0-19.132-30-10.573-30C256,511,256,526,256,526s0-15,10.573-15C275.132,511,271.1,541,256,541Zm30,0c-15.1,0-19.132-30-10.573-30C286,511,286,526,286,526s0-15,10.573-15C305.132,511,301.1,541,286,541ZM256,61c-15.1,0-19.132-30-10.573-30C256,31,256,46,256,46s0-15,10.573-15C275.132,31,271.1,61,256,61Zm0,30c-15.1,0-19.132-30-10.573-30C256,61,256,76,256,76s0-15,10.573-15C275.132,61,271.1,91,256,91Zm0,30c-15.1,0-19.132-30-10.573-30C256,91,256,106,256,106s0-15,10.573-15C275.132,91,271.1,121,256,121Zm0,30c-15.1,0-19.132-30-10.573-30C256,121,256,136,256,136s0-15,10.573-15C275.132,121,271.1,151,256,151Zm0,30c-15.1,0-19.132-30-10.573-30C256,151,256,166,256,166s0-15,10.573-15C275.132,151,271.1,181,256,181Zm0,30c-15.1,0-19.132-30-10.573-30C256,181,256,196,256,196s0-15,10.573-15C275.132,181,271.1,211,256,211ZM406,361c-15.1,0-19.132-30-10.573-30C406,331,406,346,406,346s0-15,10.573-15C425.132,331,421.1,361,406,361Zm0-30c-15.1,0-19.132-30-10.573-30C406,301,406,316,406,316s0-15,10.573-15C425.132,301,421.1,331,406,331Zm0-30c-15.1,0-19.132-30-10.573-30C406,271,406,286,406,286s0-15,10.573-15C425.132,271,421.1,301,406,301Zm0-30c-15.1,0-19.132-30-10.573-30C406,241,406,256,406,256s0-15,10.573-15C425.132,241,421.1,271,406,271Zm0-30c-15.1,0-19.132-30-10.573-30C406,211,406,226,406,226s0-15,10.573-15C425.132,211,421.1,241,406,241Zm0-30c-15.1,0-19.132-30-10.573-30C406,181,406,196,406,196s0-15,10.573-15C425.132,181,421.1,211,406,211Zm60,0c-15.1,0-19.132-30-10.573-30C466,181,466,196,466,196s0-15,10.573-15C485.132,181,481.1,211,466,211Zm0,30c-15.1,0-19.132-30-10.573-30C466,211,466,226,466,226s0-15,10.573-15C485.132,211,481.1,241,466,241Zm0,30c-15.1,0-19.132-30-10.573-30C466,241,466,256,466,256s0-15,10.573-15C485.132,241,481.1,271,466,271Zm0,30c-15.1,0-19.132-30-10.573-30C466,271,466,286,466,286s0-15,10.573-15C485.132,271,481.1,301,466,301Zm0,30c-15.1,0-19.132-30-10.573-30C466,301,466,316,466,316s0-15,10.573-15C485.132,301,481.1,331,466,331Zm0,30c-15.1,0-19.132-30-10.573-30C466,331,466,346,466,346s0-15,10.573-15C485.132,331,481.1,361,466,361ZM286,91c-15.1,0-19.132-30-10.573-30C286,61,286,76,286,76s0-15,10.573-15C305.132,61,301.1,91,286,91Zm0,30c-15.1,0-19.132-30-10.573-30C286,91,286,106,286,106s0-15,10.573-15C305.132,91,301.1,121,286,121Zm0,30c-15.1,0-19.132-30-10.573-30C286,121,286,136,286,136s0-15,10.573-15C305.132,121,301.1,151,286,151Zm0,30c-15.1,0-19.132-30-10.573-30C286,151,286,166,286,166s0-15,10.573-15C305.132,151,301.1,181,286,181Zm0,30c-15.1,0-19.132-30-10.573-30C286,181,286,196,286,196s0-15,10.573-15C305.132,181,301.1,211,286,211Zm0,30c-15.1,0-19.132-30-10.573-30C286,211,286,226,286,226s0-15,10.573-15C305.132,211,301.1,241,286,241Zm30,30c-15.1,0-19.132-30-10.573-30C316,241,316,256,316,256s0-15,10.573-15C335.132,241,331.1,271,316,271Zm0-30c-15.1,0-19.132-30-10.573-30C316,211,316,226,316,226s0-15,10.573-15C335.132,211,331.1,241,316,241Zm0-30c-15.1,0-19.132-30-10.573-30C316,181,316,196,316,196s0-15,10.573-15C335.132,181,331.1,211,316,211Zm0-30c-15.1,0-19.132-30-10.573-30C316,151,316,166,316,166s0-15,10.573-15C335.132,151,331.1,181,316,181Zm0-30c-15.1,0-19.132-30-10.573-30C316,121,316,136,316,136s0-15,10.573-15C335.132,121,331.1,151,316,151Zm0-30c-15.1,0-19.132-30-10.573-30C316,91,316,106,316,106s0-15,10.573-15C335.132,91,331.1,121,316,121Zm30,30c-15.1,0-19.132-30-10.573-30C346,121,346,136,346,136s0-15,10.573-15C365.132,121,361.1,151,346,151Zm0,30c-15.1,0-19.132-30-10.573-30C346,151,346,166,346,166s0-15,10.573-15C365.132,151,361.1,181,346,181Zm0,30c-15.1,0-19.132-30-10.573-30C346,181,346,196,346,196s0-15,10.573-15C365.132,181,361.1,211,346,211Zm0,30c-15.1,0-19.132-30-10.573-30C346,211,346,226,346,226s0-15,10.573-15C365.132,211,361.1,241,346,241Zm0,30c-15.1,0-19.132-30-10.573-30C346,241,346,256,346,256s0-15,10.573-15C365.132,241,361.1,271,346,271Zm0,30c-15.1,0-19.132-30-10.573-30C346,271,346,286,346,286s0-15,10.573-15C365.132,271,361.1,301,346,301Zm30-120c-15.1,0-19.132-30-10.573-30C376,151,376,166,376,166s0-15,10.573-15C395.132,151,391.1,181,376,181Zm0,30c-15.1,0-19.132-30-10.573-30C376,181,376,196,376,196s0-15,10.573-15C395.132,181,391.1,211,376,211Zm0,30c-15.1,0-19.132-30-10.573-30C376,211,376,226,376,226s0-15,10.573-15C395.132,211,391.1,241,376,241Zm0,30c-15.1,0-19.132-30-10.573-30C376,241,376,256,376,256s0-15,10.573-15C395.132,241,391.1,271,376,271Zm0,30c-15.1,0-19.132-30-10.573-30C376,271,376,286,376,286s0-15,10.573-15C395.132,271,391.1,301,376,301Zm0,30c-15.1,0-19.132-30-10.573-30C376,301,376,316,376,316s0-15,10.573-15C395.132,301,391.1,331,376,331ZM256,691c-15.1,0-19.132-30-10.573-30C256,661,256,676,256,676s0-15,10.573-15C275.132,661,271.1,691,256,691Zm0,30c-15.1,0-19.132-30-10.573-30C256,691,256,706,256,706s0-15,10.573-15C275.132,691,271.1,721,256,721Zm0,30c-15.1,0-19.132-30-10.573-30C256,721,256,736,256,736s0-15,10.573-15C275.132,721,271.1,751,256,751Zm0,30c-15.1,0-19.132-30-10.573-30C256,751,256,766,256,766s0-15,10.573-15C275.132,751,271.1,781,256,781Zm0,30c-15.1,0-19.132-30-10.573-30C256,781,256,796,256,796s0-15,10.573-15C275.132,781,271.1,811,256,811Zm0,30c-15.1,0-19.132-30-10.573-30C256,811,256,826,256,826s0-15,10.573-15C275.132,811,271.1,841,256,841Zm30,0c-15.1,0-19.132-30-10.573-30C286,811,286,826,286,826s0-15,10.573-15C305.132,811,301.1,841,286,841Zm30-30c-15.1,0-19.132-30-10.573-30C316,781,316,796,316,796s0-15,10.573-15C335.132,781,331.1,811,316,811Zm30-30c-15.1,0-19.132-30-10.573-30C346,751,346,766,346,766s0-15,10.573-15C365.132,751,361.1,781,346,781Zm30-30c-15.1,0-19.132-30-10.573-30C376,721,376,736,376,736s0-15,10.573-15C395.132,721,391.1,751,376,751Zm30-60c-15.1,0-19.132-30-10.573-30C406,661,406,676,406,676s0-15,10.573-15C425.132,661,421.1,691,406,691Zm0-30c-15.1,0-19.132-30-10.573-30C406,631,406,646,406,646s0-15,10.573-15C425.132,631,421.1,661,406,661Zm0-30c-15.1,0-19.132-30-10.573-30C406,601,406,616,406,616s0-15,10.573-15C425.132,601,421.1,631,406,631Zm0-30c-15.1,0-19.132-30-10.573-30C406,571,406,586,406,586s0-15,10.573-15C425.132,571,421.1,601,406,601Zm0-30c-15.1,0-19.132-30-10.573-30C406,541,406,556,406,556s0-15,10.573-15C425.132,541,421.1,571,406,571Zm0-30c-15.1,0-19.132-30-10.573-30C406,511,406,526,406,526s0-15,10.573-15C425.132,511,421.1,541,406,541Zm60,0c-15.1,0-19.132-30-10.573-30C466,511,466,526,466,526s0-15,10.573-15C485.132,511,481.1,541,466,541Zm0,30c-15.1,0-19.132-30-10.573-30C466,541,466,556,466,556s0-15,10.573-15C485.132,541,481.1,571,466,571Zm0,30c-15.1,0-19.132-30-10.573-30C466,571,466,586,466,586s0-15,10.573-15C485.132,571,481.1,601,466,601Zm0,30c-15.1,0-19.132-30-10.573-30C466,601,466,616,466,616s0-15,10.573-15C485.132,601,481.1,631,466,631Zm0,30c-15.1,0-19.132-30-10.573-30C466,631,466,646,466,646s0-15,10.573-15C485.132,631,481.1,661,466,661Zm0,30c-15.1,0-19.132-30-10.573-30C466,661,466,676,466,676s0-15,10.573-15C485.132,661,481.1,691,466,691Zm30,60c-15.1,0-19.132-30-10.573-30C496,721,496,736,496,736s0-15,10.573-15C515.132,721,511.1,751,496,751Zm30,30c-15.1,0-19.132-30-10.573-30C526,751,526,766,526,766s0-15,10.573-15C545.132,751,541.1,781,526,781Zm30,30c-15.1,0-19.132-30-10.573-30C556,781,556,796,556,796s0-15,10.573-15C575.132,781,571.1,811,556,811Zm30,30c-15.1,0-19.132-30-10.573-30C586,811,586,826,586,826s0-15,10.573-15C605.132,811,601.1,841,586,841Zm30,0c-15.1,0-19.132-30-10.573-30C616,811,616,826,616,826s0-15,10.573-15C635.132,811,631.1,841,616,841Zm0-30c-15.1,0-19.132-30-10.573-30C616,781,616,796,616,796s0-15,10.573-15C635.132,781,631.1,811,616,811Zm0-30c-15.1,0-19.132-30-10.573-30C616,751,616,766,616,766s0-15,10.573-15C635.132,751,631.1,781,616,781Zm0-30c-15.1,0-19.132-30-10.573-30C616,721,616,736,616,736s0-15,10.573-15C635.132,721,631.1,751,616,751Zm0-30c-15.1,0-19.132-30-10.573-30C616,691,616,706,616,706s0-15,10.573-15C635.132,691,631.1,721,616,721Zm0-30c-15.1,0-19.132-30-10.573-30C616,661,616,676,616,676s0-15,10.573-15C635.132,661,631.1,691,616,691Zm-30-60c-15.1,0-19.132-30-10.573-30C586,601,586,616,586,616s0-15,10.573-15C605.132,601,601.1,631,586,631Zm-30-30c-15.1,0-19.132-30-10.573-30C556,571,556,586,556,586s0-15,10.573-15C575.132,571,571.1,601,556,601Zm-30-30c-15.1,0-19.132-30-10.573-30C526,541,526,556,526,556s0-15,10.573-15C545.132,541,541.1,571,526,571Zm-30-30c-15.1,0-19.132-30-10.573-30C496,511,496,526,496,526s0-15,10.573-15C515.132,511,511.1,541,496,541Zm30-30c-15.1,0-19.132-30-10.573-30C526,481,526,496,526,496s0-15,10.573-15C545.132,481,541.1,511,526,511Zm30,30c-15.1,0-19.132-30-10.573-30C556,511,556,526,556,526s0-15,10.573-15C575.132,511,571.1,541,556,541Zm30,30c-15.1,0-19.132-30-10.573-30C586,541,586,556,586,556s0-15,10.573-15C605.132,541,601.1,571,586,571Zm30,30c-15.1,0-19.132-30-10.573-30C616,571,616,586,616,586s0-15,10.573-15C635.132,571,631.1,601,616,601Zm60,30c-15.1,0-19.132-30-10.573-30C676,601,676,616,676,616s0-15,10.573-15C695.132,601,691.1,631,676,631Zm30,0c-15.1,0-19.132-30-10.573-30C706,601,706,616,706,616s0-15,10.573-15C725.132,601,721.1,631,706,631Zm30,0c-15.1,0-19.132-30-10.573-30C736,601,736,616,736,616s0-15,10.573-15C755.132,601,751.1,631,736,631Zm30,0c-15.1,0-19.132-30-10.573-30C766,601,766,616,766,616s0-15,10.573-15C785.132,601,781.1,631,766,631Zm30,0c-15.1,0-19.132-30-10.573-30C796,601,796,616,796,616s0-15,10.573-15C815.132,601,811.1,631,796,631Zm30,0c-15.1,0-19.132-30-10.573-30C826,601,826,616,826,616s0-15,10.573-15C845.132,601,841.1,631,826,631Zm0-30c-15.1,0-19.132-30-10.573-30C826,571,826,586,826,586s0-15,10.573-15C845.132,571,841.1,601,826,601Zm-30-30c-15.1,0-19.132-30-10.573-30C796,541,796,556,796,556s0-15,10.573-15C815.132,541,811.1,571,796,571Zm-30-30c-15.1,0-19.132-30-10.573-30C766,511,766,526,766,526s0-15,10.573-15C785.132,511,781.1,541,766,541Zm-30-30c-15.1,0-19.132-30-10.573-30C736,481,736,496,736,496s0-15,10.573-15C755.132,481,751.1,511,736,511Zm-60-30c-15.1,0-19.132-30-10.573-30C676,451,676,466,676,466s0-15,10.573-15C695.132,451,691.1,481,676,481Zm-30,0c-15.1,0-19.132-30-10.573-30C646,451,646,466,646,466s0-15,10.573-15C665.132,451,661.1,481,646,481Zm-30,0c-15.1,0-19.132-30-10.573-30C616,451,616,466,616,466s0-15,10.573-15C635.132,451,631.1,481,616,481Zm-30,0c-15.1,0-19.132-30-10.573-30C586,451,586,466,586,466s0-15,10.573-15C605.132,451,601.1,481,586,481Zm-30,0c-15.1,0-19.132-30-10.573-30C556,451,556,466,556,466s0-15,10.573-15C575.132,451,571.1,481,556,481Zm-30,0c-15.1,0-19.132-30-10.573-30C526,451,526,466,526,466s0-15,10.573-15C545.132,451,541.1,481,526,481Zm0-60c-15.1,0-19.132-30-10.573-30C526,391,526,406,526,406s0-15,10.573-15C545.132,391,541.1,421,526,421Zm30,0c-15.1,0-19.132-30-10.573-30C556,391,556,406,556,406s0-15,10.573-15C575.132,391,571.1,421,556,421Zm30,0c-15.1,0-19.132-30-10.573-30C586,391,586,406,586,406s0-15,10.573-15C605.132,391,601.1,421,586,421Zm30,0c-15.1,0-19.132-30-10.573-30C616,391,616,406,616,406s0-15,10.573-15C635.132,391,631.1,421,616,421Zm30,0c-15.1,0-19.132-30-10.573-30C646,391,646,406,646,406s0-15,10.573-15C665.132,391,661.1,421,646,421Zm30,0c-15.1,0-19.132-30-10.573-30C676,391,676,406,676,406s0-15,10.573-15C695.132,391,691.1,421,676,421Zm60-30c-15.1,0-19.132-30-10.573-30C736,361,736,376,736,376s0-15,10.573-15C755.132,361,751.1,391,736,391Zm30-30c-15.1,0-19.132-30-10.573-30C766,331,766,346,766,346s0-15,10.573-15C785.132,331,781.1,361,766,361Zm30-30c-15.1,0-19.132-30-10.573-30C796,301,796,316,796,316s0-15,10.573-15C815.132,301,811.1,331,796,331Zm30-30c-15.1,0-19.132-30-10.573-30C826,271,826,286,826,286s0-15,10.573-15C845.132,271,841.1,301,826,301Zm0-30c-15.1,0-19.132-30-10.573-30C826,241,826,256,826,256s0-15,10.573-15C845.132,241,841.1,271,826,271Zm-30,0c-15.1,0-19.132-30-10.573-30C796,241,796,256,796,256s0-15,10.573-15C815.132,241,811.1,271,796,271Zm-30,0c-15.1,0-19.132-30-10.573-30C766,241,766,256,766,256s0-15,10.573-15C785.132,241,781.1,271,766,271Zm-30,0c-15.1,0-19.132-30-10.573-30C736,241,736,256,736,256s0-15,10.573-15C755.132,241,751.1,271,736,271Zm-30,0c-15.1,0-19.132-30-10.573-30C706,241,706,256,706,256s0-15,10.573-15C725.132,241,721.1,271,706,271Zm-30,0c-15.1,0-19.132-30-10.573-30C676,241,676,256,676,256s0-15,10.573-15C695.132,241,691.1,271,676,271Zm-60,30c-15.1,0-19.132-30-10.573-30C616,271,616,286,616,286s0-15,10.573-15C635.132,271,631.1,301,616,301Zm-30,30c-15.1,0-19.132-30-10.573-30C586,301,586,316,586,316s0-15,10.573-15C605.132,301,601.1,331,586,331Zm-30,30c-15.1,0-19.132-30-10.573-30C556,331,556,346,556,346s0-15,10.573-15C575.132,331,571.1,361,556,361Zm-30,30c-15.1,0-19.132-30-10.573-30C526,361,526,376,526,376s0-15,10.573-15C545.132,361,541.1,391,526,391Zm-30-30c-15.1,0-19.132-30-10.573-30C496,331,496,346,496,346s0-15,10.573-15C515.132,331,511.1,361,496,361Zm30-30c-15.1,0-19.132-30-10.573-30C526,301,526,316,526,316s0-15,10.573-15C545.132,301,541.1,331,526,331Zm30-30c-15.1,0-19.132-30-10.573-30C556,271,556,286,556,286s0-15,10.573-15C575.132,271,571.1,301,556,301Zm30-30c-15.1,0-19.132-30-10.573-30C586,241,586,256,586,256s0-15,10.573-15C605.132,241,601.1,271,586,271Zm30-60c-15.1,0-19.132-30-10.573-30C616,181,616,196,616,196s0-15,10.573-15C635.132,181,631.1,211,616,211Zm0-30c-15.1,0-19.132-30-10.573-30C616,151,616,166,616,166s0-15,10.573-15C635.132,151,631.1,181,616,181Zm0-30c-15.1,0-19.132-30-10.573-30C616,121,616,136,616,136s0-15,10.573-15C635.132,121,631.1,151,616,151Zm0-30c-15.1,0-19.132-30-10.573-30C616,91,616,106,616,106s0-15,10.573-15C635.132,91,631.1,121,616,121Zm0-30c-15.1,0-19.132-30-10.573-30C616,61,616,76,616,76s0-15,10.573-15C635.132,61,631.1,91,616,91Zm0-30c-15.1,0-19.132-30-10.573-30C616,31,616,46,616,46s0-15,10.573-15C635.132,31,631.1,61,616,61ZM286,661c-15.1,0-19.132-30-10.573-30C286,631,286,646,286,646s0-15,10.573-15C305.132,631,301.1,661,286,661Zm30,0c-15.1,0-19.132-30-10.573-30C316,631,316,646,316,646s0-15,10.573-15C335.132,631,331.1,661,316,661Zm0-30c-15.1,0-19.132-30-10.573-30C316,601,316,616,316,616s0-15,10.573-15C335.132,601,331.1,631,316,631Zm30-30c-15.1,0-19.132-30-10.573-30C346,571,346,586,346,586s0-15,10.573-15C365.132,571,361.1,601,346,601Zm30-30c-15.1,0-19.132-30-10.573-30C376,541,376,556,376,556s0-15,10.573-15C395.132,541,391.1,571,376,571Zm0,30c-15.1,0-19.132-30-10.573-30C376,571,376,586,376,586s0-15,10.573-15C395.132,571,391.1,601,376,601Zm0,30c-15.1,0-19.132-30-10.573-30C376,601,376,616,376,616s0-15,10.573-15C395.132,601,391.1,631,376,631Zm0,30c-15.1,0-19.132-30-10.573-30C376,631,376,646,376,646s0-15,10.573-15C395.132,631,391.1,661,376,661Zm0,30c-15.1,0-19.132-30-10.573-30C376,661,376,676,376,676s0-15,10.573-15C395.132,661,391.1,691,376,691Zm0,30c-15.1,0-19.132-30-10.573-30C376,691,376,706,376,706s0-15,10.573-15C395.132,691,391.1,721,376,721Zm-30-90c-15.1,0-19.132-30-10.573-30C346,601,346,616,346,616s0-15,10.573-15C365.132,601,361.1,631,346,631Zm0,30c-15.1,0-19.132-30-10.573-30C346,631,346,646,346,646s0-15,10.573-15C365.132,631,361.1,661,346,661Zm0,30c-15.1,0-19.132-30-10.573-30C346,661,346,676,346,676s0-15,10.573-15C365.132,661,361.1,691,346,691Zm0,30c-15.1,0-19.132-30-10.573-30C346,691,346,706,346,706s0-15,10.573-15C365.132,691,361.1,721,346,721Zm0,30c-15.1,0-19.132-30-10.573-30C346,721,346,736,346,736s0-15,10.573-15C365.132,721,361.1,751,346,751Zm-30-60c-15.1,0-19.132-30-10.573-30C316,661,316,676,316,676s0-15,10.573-15C335.132,661,331.1,691,316,691Zm0,30c-15.1,0-19.132-30-10.573-30C316,691,316,706,316,706s0-15,10.573-15C335.132,691,331.1,721,316,721Zm0,30c-15.1,0-19.132-30-10.573-30C316,721,316,736,316,736s0-15,10.573-15C335.132,721,331.1,751,316,751Zm0,30c-15.1,0-19.132-30-10.573-30C316,751,316,766,316,766s0-15,10.573-15C335.132,751,331.1,781,316,781Zm-30-90c-15.1,0-19.132-30-10.573-30C286,661,286,676,286,676s0-15,10.573-15C305.132,661,301.1,691,286,691Zm0,30c-15.1,0-19.132-30-10.573-30C286,691,286,706,286,706s0-15,10.573-15C305.132,691,301.1,721,286,721Zm0,30c-15.1,0-19.132-30-10.573-30C286,721,286,736,286,736s0-15,10.573-15C305.132,721,301.1,751,286,751Zm0,30c-15.1,0-19.132-30-10.573-30C286,751,286,766,286,766s0-15,10.573-15C305.132,751,301.1,781,286,781Zm0,30c-15.1,0-19.132-30-10.573-30C286,781,286,796,286,796s0-15,10.573-15C305.132,781,301.1,811,286,811ZM496,571c-15.1,0-19.132-30-10.573-30C496,541,496,556,496,556s0-15,10.573-15C515.132,541,511.1,571,496,571Zm0,30c-15.1,0-19.132-30-10.573-30C496,571,496,586,496,586s0-15,10.573-15C515.132,571,511.1,601,496,601Zm0,30c-15.1,0-19.132-30-10.573-30C496,601,496,616,496,616s0-15,10.573-15C515.132,601,511.1,631,496,631Zm0,30c-15.1,0-19.132-30-10.573-30C496,631,496,646,496,646s0-15,10.573-15C515.132,631,511.1,661,496,661Zm0,30c-15.1,0-19.132-30-10.573-30C496,661,496,676,496,676s0-15,10.573-15C515.132,661,511.1,691,496,691Zm0,30c-15.1,0-19.132-30-10.573-30C496,691,496,706,496,706s0-15,10.573-15C515.132,691,511.1,721,496,721Zm30-120c-15.1,0-19.132-30-10.573-30C526,571,526,586,526,586s0-15,10.573-15C545.132,571,541.1,601,526,601Zm0,30c-15.1,0-19.132-30-10.573-30C526,601,526,616,526,616s0-15,10.573-15C545.132,601,541.1,631,526,631Zm0,30c-15.1,0-19.132-30-10.573-30C526,631,526,646,526,646s0-15,10.573-15C545.132,631,541.1,661,526,661Zm0,30c-15.1,0-19.132-30-10.573-30C526,661,526,676,526,676s0-15,10.573-15C545.132,661,541.1,691,526,691Zm0,30c-15.1,0-19.132-30-10.573-30C526,691,526,706,526,706s0-15,10.573-15C545.132,691,541.1,721,526,721Zm0,30c-15.1,0-19.132-30-10.573-30C526,721,526,736,526,736s0-15,10.573-15C545.132,721,541.1,751,526,751Zm30-120c-15.1,0-19.132-30-10.573-30C556,601,556,616,556,616s0-15,10.573-15C575.132,601,571.1,631,556,631Zm0,30c-15.1,0-19.132-30-10.573-30C556,631,556,646,556,646s0-15,10.573-15C575.132,631,571.1,661,556,661Zm0,30c-15.1,0-19.132-30-10.573-30C556,661,556,676,556,676s0-15,10.573-15C575.132,661,571.1,691,556,691Zm0,30c-15.1,0-19.132-30-10.573-30C556,691,556,706,556,706s0-15,10.573-15C575.132,691,571.1,721,556,721Zm0,30c-15.1,0-19.132-30-10.573-30C556,721,556,736,556,736s0-15,10.573-15C575.132,721,571.1,751,556,751Zm0,30c-15.1,0-19.132-30-10.573-30C556,751,556,766,556,766s0-15,10.573-15C575.132,751,571.1,781,556,781Zm30,30c-15.1,0-19.132-30-10.573-30C586,781,586,796,586,796s0-15,10.573-15C605.132,781,601.1,811,586,811Zm0-30c-15.1,0-19.132-30-10.573-30C586,751,586,766,586,766s0-15,10.573-15C605.132,751,601.1,781,586,781Zm0-30c-15.1,0-19.132-30-10.573-30C586,721,586,736,586,736s0-15,10.573-15C605.132,721,601.1,751,586,751Zm0-30c-15.1,0-19.132-30-10.573-30C586,691,586,706,586,706s0-15,10.573-15C605.132,691,601.1,721,586,721Zm0-30c-15.1,0-19.132-30-10.573-30C586,661,586,676,586,676s0-15,10.573-15C605.132,661,601.1,691,586,691Zm0-30c-15.1,0-19.132-30-10.573-30C586,631,586,646,586,646s0-15,10.573-15C605.132,631,601.1,661,586,661ZM556,511c-15.1,0-19.132-30-10.573-30C556,481,556,496,556,496s0-15,10.573-15C575.132,481,571.1,511,556,511Zm30,0c-15.1,0-19.132-30-10.573-30C586,481,586,496,586,496s0-15,10.573-15C605.132,481,601.1,511,586,511Zm30,0c-15.1,0-19.132-30-10.573-30C616,481,616,496,616,496s0-15,10.573-15C635.132,481,631.1,511,616,511Zm30,0c-15.1,0-19.132-30-10.573-30C646,481,646,496,646,496s0-15,10.573-15C665.132,481,661.1,511,646,511Zm30,0c-15.1,0-19.132-30-10.573-30C676,481,676,496,676,496s0-15,10.573-15C695.132,481,691.1,511,676,511Zm30,0c-15.1,0-19.132-30-10.573-30C706,481,706,496,706,496s0-15,10.573-15C725.132,481,721.1,511,706,511Zm30,30c-15.1,0-19.132-30-10.573-30C736,511,736,526,736,526s0-15,10.573-15C755.132,511,751.1,541,736,541Zm-30,0c-15.1,0-19.132-30-10.573-30C706,511,706,526,706,526s0-15,10.573-15C725.132,511,721.1,541,706,541Zm-30,0c-15.1,0-19.132-30-10.573-30C676,511,676,526,676,526s0-15,10.573-15C695.132,511,691.1,541,676,541Zm-30,0c-15.1,0-19.132-30-10.573-30C646,511,646,526,646,526s0-15,10.573-15C665.132,511,661.1,541,646,541Zm-30,0c-15.1,0-19.132-30-10.573-30C616,511,616,526,616,526s0-15,10.573-15C635.132,511,631.1,541,616,541Zm-30,0c-15.1,0-19.132-30-10.573-30C586,511,586,526,586,526s0-15,10.573-15C605.132,511,601.1,541,586,541Zm30,30c-15.1,0-19.132-30-10.573-30C616,541,616,556,616,556s0-15,10.573-15C635.132,541,631.1,571,616,571Zm30,0c-15.1,0-19.132-30-10.573-30C646,541,646,556,646,556s0-15,10.573-15C665.132,541,661.1,571,646,571Zm30,0c-15.1,0-19.132-30-10.573-30C676,541,676,556,676,556s0-15,10.573-15C695.132,541,691.1,571,676,571Zm30,0c-15.1,0-19.132-30-10.573-30C706,541,706,556,706,556s0-15,10.573-15C725.132,541,721.1,571,706,571Zm30,0c-15.1,0-19.132-30-10.573-30C736,541,736,556,736,556s0-15,10.573-15C755.132,541,751.1,571,736,571Zm30,0c-15.1,0-19.132-30-10.573-30C766,541,766,556,766,556s0-15,10.573-15C785.132,541,781.1,571,766,571Zm30,30c-15.1,0-19.132-30-10.573-30C796,571,796,586,796,586s0-15,10.573-15C815.132,571,811.1,601,796,601Zm-30,0c-15.1,0-19.132-30-10.573-30C766,571,766,586,766,586s0-15,10.573-15C785.132,571,781.1,601,766,601Zm-30,0c-15.1,0-19.132-30-10.573-30C736,571,736,586,736,586s0-15,10.573-15C755.132,571,751.1,601,736,601Zm-30,0c-15.1,0-19.132-30-10.573-30C706,571,706,586,706,586s0-15,10.573-15C725.132,571,721.1,601,706,601Zm-30,0c-15.1,0-19.132-30-10.573-30C676,571,676,586,676,586s0-15,10.573-15C695.132,571,691.1,601,676,601Zm-30,0c-15.1,0-19.132-30-10.573-30C646,571,646,586,646,586s0-15,10.573-15C665.132,571,661.1,601,646,601ZM556,391c-15.1,0-19.132-30-10.573-30C556,361,556,376,556,376s0-15,10.573-15C575.132,361,571.1,391,556,391Zm30,0c-15.1,0-19.132-30-10.573-30C586,361,586,376,586,376s0-15,10.573-15C605.132,361,601.1,391,586,391Zm30,0c-15.1,0-19.132-30-10.573-30C616,361,616,376,616,376s0-15,10.573-15C635.132,361,631.1,391,616,391Zm30,0c-15.1,0-19.132-30-10.573-30C646,361,646,376,646,376s0-15,10.573-15C665.132,361,661.1,391,646,391Zm30,0c-15.1,0-19.132-30-10.573-30C676,361,676,376,676,376s0-15,10.573-15C695.132,361,691.1,391,676,391Zm30,0c-15.1,0-19.132-30-10.573-30C706,361,706,376,706,376s0-15,10.573-15C725.132,361,721.1,391,706,391Zm30-30c-15.1,0-19.132-30-10.573-30C736,331,736,346,736,346s0-15,10.573-15C755.132,331,751.1,361,736,361Zm-30,0c-15.1,0-19.132-30-10.573-30C706,331,706,346,706,346s0-15,10.573-15C725.132,331,721.1,361,706,361Zm-30,0c-15.1,0-19.132-30-10.573-30C676,331,676,346,676,346s0-15,10.573-15C695.132,331,691.1,361,676,361Zm-30,0c-15.1,0-19.132-30-10.573-30C646,331,646,346,646,346s0-15,10.573-15C665.132,331,661.1,361,646,361Zm-30,0c-15.1,0-19.132-30-10.573-30C616,331,616,346,616,346s0-15,10.573-15C635.132,331,631.1,361,616,361Zm-30,0c-15.1,0-19.132-30-10.573-30C586,331,586,346,586,346s0-15,10.573-15C605.132,331,601.1,361,586,361Zm30-30c-15.1,0-19.132-30-10.573-30C616,301,616,316,616,316s0-15,10.573-15C635.132,301,631.1,331,616,331Zm30,0c-15.1,0-19.132-30-10.573-30C646,301,646,316,646,316s0-15,10.573-15C665.132,301,661.1,331,646,331Zm30,0c-15.1,0-19.132-30-10.573-30C676,301,676,316,676,316s0-15,10.573-15C695.132,301,691.1,331,676,331Zm30,0c-15.1,0-19.132-30-10.573-30C706,301,706,316,706,316s0-15,10.573-15C725.132,301,721.1,331,706,331Zm30,0c-15.1,0-19.132-30-10.573-30C736,301,736,316,736,316s0-15,10.573-15C755.132,301,751.1,331,736,331Zm30,0c-15.1,0-19.132-30-10.573-30C766,301,766,316,766,316s0-15,10.573-15C785.132,301,781.1,331,766,331Zm30-30c-15.1,0-19.132-30-10.573-30C796,271,796,286,796,286s0-15,10.573-15C815.132,271,811.1,301,796,301Zm-30,0c-15.1,0-19.132-30-10.573-30C766,271,766,286,766,286s0-15,10.573-15C785.132,271,781.1,301,766,301Zm-30,0c-15.1,0-19.132-30-10.573-30C736,271,736,286,736,286s0-15,10.573-15C755.132,271,751.1,301,736,301Zm-30,0c-15.1,0-19.132-30-10.573-30C706,271,706,286,706,286s0-15,10.573-15C725.132,271,721.1,301,706,301Zm-30,0c-15.1,0-19.132-30-10.573-30C676,271,676,286,676,286s0-15,10.573-15C695.132,271,691.1,301,676,301Zm-30,0c-15.1,0-19.132-30-10.573-30C646,271,646,286,646,286s0-15,10.573-15C665.132,271,661.1,301,646,301ZM496,331c-15.1,0-19.132-30-10.573-30C496,301,496,316,496,316s0-15,10.573-15C515.132,301,511.1,331,496,331Zm30-30c-15.1,0-19.132-30-10.573-30C526,271,526,286,526,286s0-15,10.573-15C545.132,271,541.1,301,526,301Zm30-30c-15.1,0-19.132-30-10.573-30C556,241,556,256,556,256s0-15,10.573-15C575.132,241,571.1,271,556,271Zm30-30c-15.1,0-19.132-30-10.573-30C586,211,586,226,586,226s0-15,10.573-15C605.132,211,601.1,241,586,241Zm0-30c-15.1,0-19.132-30-10.573-30C586,181,586,196,586,196s0-15,10.573-15C605.132,181,601.1,211,586,211Zm-30,30c-15.1,0-19.132-30-10.573-30C556,211,556,226,556,226s0-15,10.573-15C575.132,211,571.1,241,556,241Zm-30,30c-15.1,0-19.132-30-10.573-30C526,241,526,256,526,256s0-15,10.573-15C545.132,241,541.1,271,526,271Zm-27,24c-12.083,0-15.305-24-8.458-24C499,271,499,283,499,283s0-12,8.458-12C514.3,271,511.083,295,499,295Zm-3-24c-15.1,0-19.132-30-10.573-30C496,241,496,256,496,256s0-15,10.573-15C515.132,241,511.1,271,496,271Zm30-30c-15.1,0-19.132-30-10.573-30C526,211,526,226,526,226s0-15,10.573-15C545.132,211,541.1,241,526,241Zm30-30c-15.1,0-19.132-30-10.573-30C556,181,556,196,556,196s0-15,10.573-15C575.132,181,571.1,211,556,211Zm30-30c-15.1,0-19.132-30-10.573-30C586,151,586,166,586,166s0-15,10.573-15C605.132,151,601.1,181,586,181Zm0-30c-15.1,0-19.132-30-10.573-30C586,121,586,136,586,136s0-15,10.573-15C605.132,121,601.1,151,586,151Zm-30,30c-15.1,0-19.132-30-10.573-30C556,151,556,166,556,166s0-15,10.573-15C575.132,151,571.1,181,556,181Zm-30,30c-15.1,0-19.132-30-10.573-30C526,181,526,196,526,196s0-15,10.573-15C545.132,181,541.1,211,526,211Zm-30,30c-15.1,0-19.132-30-10.573-30C496,211,496,226,496,226s0-15,10.573-15C515.132,211,511.1,241,496,241Zm0-30c-15.1,0-19.132-30-10.573-30C496,181,496,196,496,196s0-15,10.573-15C515.132,181,511.1,211,496,211Zm30-30c-15.1,0-19.132-30-10.573-30C526,151,526,166,526,166s0-15,10.573-15C545.132,151,541.1,181,526,181Zm30-30c-15.1,0-19.132-30-10.573-30C556,121,556,136,556,136s0-15,10.573-15C575.132,121,571.1,151,556,151Zm30-30c-15.1,0-19.132-30-10.573-30C586,91,586,106,586,106s0-15,10.573-15C605.132,91,601.1,121,586,121Zm0-30c-15.1,0-19.132-30-10.573-30C586,61,586,76,586,76s0-15,10.573-15C605.132,61,601.1,91,586,91Zm-30,30c-15.1,0-19.132-30-10.573-30C556,91,556,106,556,106s0-15,10.573-15C575.132,91,571.1,121,556,121Zm-30,30c-15.1,0-19.132-30-10.573-30C526,121,526,136,526,136s0-15,10.573-15C545.132,121,541.1,151,526,151Zm-30,30c-15.1,0-19.132-30-10.573-30C496,151,496,166,496,166s0-15,10.573-15C515.132,151,511.1,181,496,181Z"/>
</svg>
