<svg xmlns="http://www.w3.org/2000/svg" width="600" height="150" viewBox="0 0 600 150">
  <metadata><?xpacket begin="﻿" id="W5M0MpCehiHzreSzNTczkc9d"?>
<x:xmpmeta xmlns:x="adobe:ns:meta/" x:xmptk="Adobe XMP Core 5.6-c138 79.159824, 2016/09/14-01:09:01        ">
   <rdf:RDF xmlns:rdf="http://www.w3.org/1999/02/22-rdf-syntax-ns#">
      <rdf:Description rdf:about=""/>
   </rdf:RDF>
</x:xmpmeta>
                                                                                                    
                                                                                                    
                                                                                                    
                                                                                                    
                                                                                                    
                                                                                                    
                                                                                                    
                                                                                                    
                                                                                                    
                                                                                                    
                                                                                                    
                                                                                                    
                                                                                                    
                                                                                                    
                                                                                                    
                                                                                                    
                                                                                                    
                                                                                                    
                                                                                                    
                                                                                                    
                           
<?xpacket end="w"?></metadata>
<defs>
    <style>
      .cls-1 {
        fill: #db1313;
        fill-rule: evenodd;
      }
    </style>
  </defs>
  <path class="cls-1" d="M15,90C-0.1,90-4.132,60,4.427,60,15,60,15,75,15,75s0-15,10.573-15C34.132,60,30.1,90,15,90Zm90,0C89.9,90,85.868,60,94.427,60,105,60,105,75,105,75s0-15,10.573-15C124.132,60,120.1,90,105,90Zm30,0c-15.1,0-19.132-30-10.573-30C135,60,135,75,135,75s0-15,10.573-15C154.132,60,150.1,90,135,90Zm60,0c-15.1,0-19.132-30-10.573-30C195,60,195,75,195,75s0-15,10.573-15C214.132,60,210.1,90,195,90Zm30,0c-15.1,0-19.132-30-10.573-30C225,60,225,75,225,75s0-15,10.573-15C244.132,60,240.1,90,225,90Zm30,0c-15.1,0-19.132-30-10.573-30C255,60,255,75,255,75s0-15,10.573-15C274.132,60,270.1,90,255,90Zm330,0c-15.1,0-19.132-30-10.573-30C585,60,585,75,585,75s0-15,10.573-15C604.132,60,600.1,90,585,90Zm-60,0c-15.1,0-19.132-30-10.573-30C525,60,525,75,525,75s0-15,10.573-15C544.132,60,540.1,90,525,90Zm-30,0c-15.1,0-19.132-30-10.573-30C495,60,495,75,495,75s0-15,10.573-15C514.132,60,510.1,90,495,90Zm-60,0c-15.1,0-19.132-30-10.573-30C435,60,435,75,435,75s0-15,10.573-15C454.132,60,450.1,90,435,90Zm-30,0c-15.1,0-19.132-30-10.573-30C405,60,405,75,405,75s0-15,10.573-15C424.132,60,420.1,90,405,90Zm-30,0c-15.1,0-19.132-30-10.573-30C375,60,375,75,375,75s0-15,10.573-15C394.132,60,390.1,90,375,90ZM285,60c-15.1,0-19.132-30-10.573-30C285,30,285,45,285,45s0-15,10.573-15C304.132,30,300.1,60,285,60ZM255,30c-15.1,0-19.132-30-10.573-30C255,0,255,15,255,15s0-15,10.573-15C274.132,0,270.1,30,255,30Zm0,120c-15.1,0-19.132-30-10.573-30C255,120,255,135,255,135s0-15,10.573-15C274.132,120,270.1,150,255,150Zm30-30c-15.1,0-19.132-30-10.573-30C285,90,285,105,285,105s0-15,10.573-15C304.132,90,300.1,120,285,120Zm60,0c-15.1,0-19.132-30-10.573-30C345,90,345,105,345,105s0-15,10.573-15C364.132,90,360.1,120,345,120Zm30,30c-15.1,0-19.132-30-10.573-30C375,120,375,135,375,135s0-15,10.573-15C394.132,120,390.1,150,375,150ZM345,60c-15.1,0-19.132-30-10.573-30C345,30,345,45,345,45s0-15,10.573-15C364.132,30,360.1,60,345,60Zm30-30c-15.1,0-19.132-30-10.573-30C375,0,375,15,375,15s0-15,10.573-15C394.132,0,390.1,30,375,30ZM315,90c-15.1,0-19.132-30-10.573-30C315,60,315,75,315,75s0-15,10.573-15C334.132,60,330.1,90,315,90Z"/>
</svg>
