<svg xmlns="http://www.w3.org/2000/svg" width="810" height="450" viewBox="0 0 810 450">
  <metadata><?xpacket begin="﻿" id="W5M0MpCehiHzreSzNTczkc9d"?>
<x:xmpmeta xmlns:x="adobe:ns:meta/" x:xmptk="Adobe XMP Core 5.6-c138 79.159824, 2016/09/14-01:09:01        ">
   <rdf:RDF xmlns:rdf="http://www.w3.org/1999/02/22-rdf-syntax-ns#">
      <rdf:Description rdf:about=""/>
   </rdf:RDF>
</x:xmpmeta>
                                                                                                    
                                                                                                    
                                                                                                    
                                                                                                    
                                                                                                    
                                                                                                    
                                                                                                    
                                                                                                    
                                                                                                    
                                                                                                    
                                                                                                    
                                                                                                    
                                                                                                    
                                                                                                    
                                                                                                    
                                                                                                    
                                                                                                    
                                                                                                    
                                                                                                    
                                                                                                    
                           
<?xpacket end="w"?></metadata>
<defs>
    <style>
      .cls-1 {
        fill: #db1313;
        fill-rule: evenodd;
      }
    </style>
  </defs>
  <path class="cls-1" d="M45,240c-15.1,0-19.132-30-10.573-30C45,210,45,225,45,225s0-15,10.573-15C64.132,210,60.1,240,45,240Zm60,0c-15.1,0-19.132-30-10.573-30C105,210,105,225,105,225s0-15,10.573-15C124.132,210,120.1,240,105,240Zm60,0c-15.1,0-19.132-30-10.573-30C165,210,165,225,165,225s0-15,10.573-15C184.132,210,180.1,240,165,240Zm30,0c-15.1,0-19.132-30-10.573-30C195,210,195,225,195,225s0-15,10.573-15C214.132,210,210.1,240,195,240Zm30,0c-15.1,0-19.132-30-10.573-30C225,210,225,225,225,225s0-15,10.573-15C244.132,210,240.1,240,225,240Zm-30-30c-15.1,0-19.132-30-10.573-30C195,180,195,195,195,195s0-15,10.573-15C214.132,180,210.1,210,195,210Zm0,60c-15.1,0-19.132-30-10.573-30C195,240,195,255,195,255s0-15,10.573-15C214.132,240,210.1,270,195,270Zm60-90c-15.1,0-19.132-30-10.573-30C255,150,255,165,255,165s0-15,10.573-15C274.132,150,270.1,180,255,180Zm30,0c-15.1,0-19.132-30-10.573-30C285,150,285,165,285,165s0-15,10.573-15C304.132,150,300.1,180,285,180Zm0,30c-15.1,0-19.132-30-10.573-30C285,180,285,195,285,195s0-15,10.573-15C304.132,180,300.1,210,285,210Zm30,0c-15.1,0-19.132-30-10.573-30C315,180,315,195,315,195s0-15,10.573-15C334.132,180,330.1,210,315,210Zm-60,90c-15.1,0-19.132-30-10.573-30C255,270,255,285,255,285s0-15,10.573-15C274.132,270,270.1,300,255,300Zm30,0c-15.1,0-19.132-30-10.573-30C285,270,285,285,285,285s0-15,10.573-15C304.132,270,300.1,300,285,300Zm0-30c-15.1,0-19.132-30-10.573-30C285,240,285,255,285,255s0-15,10.573-15C304.132,240,300.1,270,285,270Zm30,0c-15.1,0-19.132-30-10.573-30C315,240,315,255,315,255s0-15,10.573-15C334.132,240,330.1,270,315,270Zm60-120c-15.1,0-19.132-30-10.573-30C375,120,375,135,375,135s0-15,10.573-15C394.132,120,390.1,150,375,150Zm0-30c-15.1,0-19.132-30-10.573-30C375,90,375,105,375,105s0-15,10.573-15C394.132,90,390.1,120,375,120Zm-30,0c-15.1,0-19.132-30-10.573-30C345,90,345,105,345,105s0-15,10.573-15C364.132,90,360.1,120,345,120Zm0-30c-15.1,0-19.132-30-10.573-30C345,60,345,75,345,75s0-15,10.573-15C364.132,60,360.1,90,345,90Zm30,240c-15.1,0-19.132-30-10.573-30C375,300,375,315,375,315s0-15,10.573-15C394.132,300,390.1,330,375,330Zm0,30c-15.1,0-19.132-30-10.573-30C375,330,375,345,375,345s0-15,10.573-15C394.132,330,390.1,360,375,360Zm-30,0c-15.1,0-19.132-30-10.573-30C345,330,345,345,345,345s0-15,10.573-15C364.132,330,360.1,360,345,360Zm0,30c-15.1,0-19.132-30-10.573-30C345,360,345,375,345,375s0-15,10.573-15C364.132,360,360.1,390,345,390Zm90-60c-15.1,0-19.132-30-10.573-30C435,300,435,315,435,315s0-15,10.573-15C454.132,300,450.1,330,435,330Zm0,30c-15.1,0-19.132-30-10.573-30C435,330,435,345,435,345s0-15,10.573-15C454.132,330,450.1,360,435,360Zm30,0c-15.1,0-19.132-30-10.573-30C465,330,465,345,465,345s0-15,10.573-15C484.132,330,480.1,360,465,360Zm0,30c-15.1,0-19.132-30-10.573-30C465,360,465,375,465,375s0-15,10.573-15C484.132,360,480.1,390,465,390ZM435,150c-15.1,0-19.132-30-10.573-30C435,120,435,135,435,135s0-15,10.573-15C454.132,120,450.1,150,435,150Zm0-30c-15.1,0-19.132-30-10.573-30C435,90,435,105,435,105s0-15,10.573-15C454.132,90,450.1,120,435,120Zm30-30c-15.1,0-19.132-30-10.573-30C465,60,465,75,465,75s0-15,10.573-15C484.132,60,480.1,90,465,90Zm0,30c-15.1,0-19.132-30-10.573-30C465,90,465,105,465,105s0-15,10.573-15C484.132,90,480.1,120,465,120Zm30,90c-15.1,0-19.132-30-10.573-30C495,180,495,195,495,195s0-15,10.573-15C514.132,180,510.1,210,495,210Zm30,0c-15.1,0-19.132-30-10.573-30C525,180,525,195,525,195s0-15,10.573-15C544.132,180,540.1,210,525,210Zm0-30c-15.1,0-19.132-30-10.573-30C525,150,525,165,525,165s0-15,10.573-15C544.132,150,540.1,180,525,180Zm30,0c-15.1,0-19.132-30-10.573-30C555,150,555,165,555,165s0-15,10.573-15C574.132,150,570.1,180,555,180Zm-60,90c-15.1,0-19.132-30-10.573-30C495,240,495,255,495,255s0-15,10.573-15C514.132,240,510.1,270,495,270Zm30,0c-15.1,0-19.132-30-10.573-30C525,240,525,255,525,255s0-15,10.573-15C544.132,240,540.1,270,525,270Zm0,30c-15.1,0-19.132-30-10.573-30C525,270,525,285,525,285s0-15,10.573-15C544.132,270,540.1,300,525,300Zm30,0c-15.1,0-19.132-30-10.573-30C555,270,555,285,555,285s0-15,10.573-15C574.132,270,570.1,300,555,300Zm30-60c-15.1,0-19.132-30-10.573-30C585,210,585,225,585,225s0-15,10.573-15C604.132,210,600.1,240,585,240Zm30,0c-15.1,0-19.132-30-10.573-30C615,210,615,225,615,225s0-15,10.573-15C634.132,210,630.1,240,615,240Zm30,0c-15.1,0-19.132-30-10.573-30C645,210,645,225,645,225s0-15,10.573-15C664.132,210,660.1,240,645,240Zm-30-30c-15.1,0-19.132-30-10.573-30C615,180,615,195,615,195s0-15,10.573-15C634.132,180,630.1,210,615,210Zm0,60c-15.1,0-19.132-30-10.573-30C615,240,615,255,615,255s0-15,10.573-15C634.132,240,630.1,270,615,270Zm90-30c-15.1,0-19.132-30-10.573-30C705,210,705,225,705,225s0-15,10.573-15C724.132,210,720.1,240,705,240Zm60,0c-15.1,0-19.132-30-10.573-30C765,210,765,225,765,225s0-15,10.573-15C784.132,210,780.1,240,765,240ZM15,240c-15.1,0-19.132-30-10.573-30C15,210,15,225,15,225s0-15,10.573-15C34.132,210,30.1,240,15,240Zm60,0c-15.1,0-19.132-30-10.573-30C75,210,75,225,75,225s0-15,10.573-15C94.132,210,90.1,240,75,240Zm60,0c-15.1,0-19.132-30-10.573-30C135,210,135,225,135,225s0-15,10.573-15C154.132,210,150.1,240,135,240Zm540,0c-15.1,0-19.132-30-10.573-30C675,210,675,225,675,225s0-15,10.573-15C694.132,210,690.1,240,675,240Zm60,0c-15.1,0-19.132-30-10.573-30C735,210,735,225,735,225s0-15,10.573-15C754.132,210,750.1,240,735,240Zm60,0c-15.1,0-19.132-30-10.573-30C795,210,795,225,795,225s0-15,10.573-15C814.132,210,810.1,240,795,240Z"/>
</svg>
