<svg xmlns="http://www.w3.org/2000/svg" width="810" height="450" viewBox="0 0 810 450">
  <metadata><?xpacket begin="﻿" id="W5M0MpCehiHzreSzNTczkc9d"?>
<x:xmpmeta xmlns:x="adobe:ns:meta/" x:xmptk="Adobe XMP Core 5.6-c138 79.159824, 2016/09/14-01:09:01        ">
   <rdf:RDF xmlns:rdf="http://www.w3.org/1999/02/22-rdf-syntax-ns#">
      <rdf:Description rdf:about=""/>
   </rdf:RDF>
</x:xmpmeta>
                                                                                                    
                                                                                                    
                                                                                                    
                                                                                                    
                                                                                                    
                                                                                                    
                                                                                                    
                                                                                                    
                                                                                                    
                                                                                                    
                                                                                                    
                                                                                                    
                                                                                                    
                                                                                                    
                                                                                                    
                                                                                                    
                                                                                                    
                                                                                                    
                                                                                                    
                                                                                                    
                           
<?xpacket end="w"?></metadata>
<defs>
    <style>
      .cls-1 {
        fill: #db1313;
        fill-rule: evenodd;
      }
    </style>
  </defs>
  <path class="cls-1" d="M45,240c-15.1,0-19.132-30-10.573-30C45,210,45,225,45,225s0-15,10.573-15C64.132,210,60.1,240,45,240Zm60,0c-15.1,0-19.132-30-10.573-30C105,210,105,225,105,225s0-15,10.573-15C124.132,210,120.1,240,105,240Zm30,0c-15.1,0-19.132-30-10.573-30C135,210,135,225,135,225s0-15,10.573-15C154.132,210,150.1,240,135,240Zm30,0c-15.1,0-19.132-30-10.573-30C165,210,165,225,165,225s0-15,10.573-15C184.132,210,180.1,240,165,240Zm-30-30c-15.1,0-19.132-30-10.573-30C135,180,135,195,135,195s0-15,10.573-15C154.132,180,150.1,210,135,210Zm0,60c-15.1,0-19.132-30-10.573-30C135,240,135,255,135,255s0-15,10.573-15C154.132,240,150.1,270,135,270Zm60-30c-15.1,0-19.132-30-10.573-30C195,210,195,225,195,225s0-15,10.573-15C214.132,210,210.1,240,195,240Zm0-30c-15.1,0-19.132-30-10.573-30C195,180,195,195,195,195s0-15,10.573-15C214.132,180,210.1,210,195,210Zm0,60c-15.1,0-19.132-30-10.573-30C195,240,195,255,195,255s0-15,10.573-15C214.132,240,210.1,270,195,270Zm30-30c-15.1,0-19.132-30-10.573-30C225,210,225,225,225,225s0-15,10.573-15C244.132,210,240.1,240,225,240Zm60-30c-15.1,0-19.132-30-10.573-30C285,180,285,195,285,195s0-15,10.573-15C304.132,180,300.1,210,285,210Zm30,0c-15.1,0-19.132-30-10.573-30C315,180,315,195,315,195s0-15,10.573-15C334.132,180,330.1,210,315,210Zm0-30c-15.1,0-19.132-30-10.573-30C315,150,315,165,315,165s0-15,10.573-15C334.132,150,330.1,180,315,180Zm-30,0c-15.1,0-19.132-30-10.573-30C285,150,285,165,285,165s0-15,10.573-15C304.132,150,300.1,180,285,180Zm-30,0c-15.1,0-19.132-30-10.573-30C255,150,255,165,255,165s0-15,10.573-15C274.132,150,270.1,180,255,180Zm-30-30c-15.1,0-19.132-30-10.573-30C225,120,225,135,225,135s0-15,10.573-15C244.132,120,240.1,150,225,150Zm30,0c-15.1,0-19.132-30-10.573-30C255,120,255,135,255,135s0-15,10.573-15C274.132,120,270.1,150,255,150Zm30,0c-15.1,0-19.132-30-10.573-30C285,120,285,135,285,135s0-15,10.573-15C304.132,120,300.1,150,285,150Zm0,120c-15.1,0-19.132-30-10.573-30C285,240,285,255,285,255s0-15,10.573-15C304.132,240,300.1,270,285,270Zm30,0c-15.1,0-19.132-30-10.573-30C315,240,315,255,315,255s0-15,10.573-15C334.132,240,330.1,270,315,270Zm0,30c-15.1,0-19.132-30-10.573-30C315,270,315,285,315,285s0-15,10.573-15C334.132,270,330.1,300,315,300Zm-30,0c-15.1,0-19.132-30-10.573-30C285,270,285,285,285,285s0-15,10.573-15C304.132,270,300.1,300,285,300Zm-30,0c-15.1,0-19.132-30-10.573-30C255,270,255,285,255,285s0-15,10.573-15C274.132,270,270.1,300,255,300Zm30,30c-15.1,0-19.132-30-10.573-30C285,300,285,315,285,315s0-15,10.573-15C304.132,300,300.1,330,285,330Zm-30,0c-15.1,0-19.132-30-10.573-30C255,300,255,315,255,315s0-15,10.573-15C274.132,300,270.1,330,255,330Zm-30,0c-15.1,0-19.132-30-10.573-30C225,300,225,315,225,315s0-15,10.573-15C244.132,300,240.1,330,225,330ZM345,150c-15.1,0-19.132-30-10.573-30C345,120,345,135,345,135s0-15,10.573-15C364.132,120,360.1,150,345,150Zm30,0c-15.1,0-19.132-30-10.573-30C375,120,375,135,375,135s0-15,10.573-15C394.132,120,390.1,150,375,150Zm-60-30c-15.1,0-19.132-30-10.573-30C315,90,315,105,315,105s0-15,10.573-15C334.132,90,330.1,120,315,120Zm30,0c-15.1,0-19.132-30-10.573-30C345,90,345,105,345,105s0-15,10.573-15C364.132,90,360.1,120,345,120Zm0-30c-15.1,0-19.132-30-10.573-30C345,60,345,75,345,75s0-15,10.573-15C364.132,60,360.1,90,345,90Zm-30,0c-15.1,0-19.132-30-10.573-30C315,60,315,75,315,75s0-15,10.573-15C334.132,60,330.1,90,315,90Zm0-30c-15.1,0-19.132-30-10.573-30C315,30,315,45,315,45s0-15,10.573-15C334.132,30,330.1,60,315,60Zm30,270c-15.1,0-19.132-30-10.573-30C345,300,345,315,345,315s0-15,10.573-15C364.132,300,360.1,330,345,330Zm30,0c-15.1,0-19.132-30-10.573-30C375,300,375,315,375,315s0-15,10.573-15C394.132,300,390.1,330,375,330Zm0-210c-15.1,0-19.132-30-10.573-30C375,90,375,105,375,105s0-15,10.573-15C394.132,90,390.1,120,375,120Zm0,240c-15.1,0-19.132-30-10.573-30C375,330,375,345,375,345s0-15,10.573-15C394.132,330,390.1,360,375,360Zm-30,0c-15.1,0-19.132-30-10.573-30C345,330,345,345,345,345s0-15,10.573-15C364.132,330,360.1,360,345,360Zm0,30c-15.1,0-19.132-30-10.573-30C345,360,345,375,345,375s0-15,10.573-15C364.132,360,360.1,390,345,390Zm-30,0c-15.1,0-19.132-30-10.573-30C315,360,315,375,315,375s0-15,10.573-15C334.132,360,330.1,390,315,390Zm0,30c-15.1,0-19.132-30-10.573-30C315,390,315,405,315,405s0-15,10.573-15C334.132,390,330.1,420,315,420Zm0-60c-15.1,0-19.132-30-10.573-30C315,330,315,345,315,345s0-15,10.573-15C334.132,330,330.1,360,315,360Zm120-30c-15.1,0-19.132-30-10.573-30C435,300,435,315,435,315s0-15,10.573-15C454.132,300,450.1,330,435,330Zm0,30c-15.1,0-19.132-30-10.573-30C435,330,435,345,435,345s0-15,10.573-15C454.132,330,450.1,360,435,360Zm30,0c-15.1,0-19.132-30-10.573-30C465,330,465,345,465,345s0-15,10.573-15C484.132,330,480.1,360,465,360Zm0-30c-15.1,0-19.132-30-10.573-30C465,300,465,315,465,315s0-15,10.573-15C484.132,300,480.1,330,465,330Zm0,60c-15.1,0-19.132-30-10.573-30C465,360,465,375,465,375s0-15,10.573-15C484.132,360,480.1,390,465,390Zm30-30c-15.1,0-19.132-30-10.573-30C495,330,495,345,495,345s0-15,10.573-15C514.132,330,510.1,360,495,360Zm0,30c-15.1,0-19.132-30-10.573-30C495,360,495,375,495,375s0-15,10.573-15C514.132,360,510.1,390,495,390Zm0,30c-15.1,0-19.132-30-10.573-30C495,390,495,405,495,405s0-15,10.573-15C514.132,390,510.1,420,495,420Zm0-150c-15.1,0-19.132-30-10.573-30C495,240,495,255,495,255s0-15,10.573-15C514.132,240,510.1,270,495,270Zm0,30c-15.1,0-19.132-30-10.573-30C495,270,495,285,495,285s0-15,10.573-15C514.132,270,510.1,300,495,300Zm30-30c-15.1,0-19.132-30-10.573-30C525,240,525,255,525,255s0-15,10.573-15C544.132,240,540.1,270,525,270Zm0,30c-15.1,0-19.132-30-10.573-30C525,270,525,285,525,285s0-15,10.573-15C544.132,270,540.1,300,525,300Zm30,0c-15.1,0-19.132-30-10.573-30C555,270,555,285,555,285s0-15,10.573-15C574.132,270,570.1,300,555,300Zm-30,30c-15.1,0-19.132-30-10.573-30C525,300,525,315,525,315s0-15,10.573-15C544.132,300,540.1,330,525,330Zm30,0c-15.1,0-19.132-30-10.573-30C555,300,555,315,555,315s0-15,10.573-15C574.132,300,570.1,330,555,330Zm30,0c-15.1,0-19.132-30-10.573-30C585,300,585,315,585,315s0-15,10.573-15C604.132,300,600.1,330,585,330ZM495,210c-15.1,0-19.132-30-10.573-30C495,180,495,195,495,195s0-15,10.573-15C514.132,180,510.1,210,495,210Zm30,0c-15.1,0-19.132-30-10.573-30C525,180,525,195,525,195s0-15,10.573-15C544.132,180,540.1,210,525,210Zm-30-30c-15.1,0-19.132-30-10.573-30C495,150,495,165,495,165s0-15,10.573-15C514.132,150,510.1,180,495,180Zm30,0c-15.1,0-19.132-30-10.573-30C525,150,525,165,525,165s0-15,10.573-15C544.132,150,540.1,180,525,180Zm30,0c-15.1,0-19.132-30-10.573-30C555,150,555,165,555,165s0-15,10.573-15C574.132,150,570.1,180,555,180Zm-30-30c-15.1,0-19.132-30-10.573-30C525,120,525,135,525,135s0-15,10.573-15C544.132,120,540.1,150,525,150Zm30,0c-15.1,0-19.132-30-10.573-30C555,120,555,135,555,135s0-15,10.573-15C574.132,120,570.1,150,555,150Zm30,0c-15.1,0-19.132-30-10.573-30C585,120,585,135,585,135s0-15,10.573-15C604.132,120,600.1,150,585,150Zm-150,0c-15.1,0-19.132-30-10.573-30C435,120,435,135,435,135s0-15,10.573-15C454.132,120,450.1,150,435,150Zm30,0c-15.1,0-19.132-30-10.573-30C465,120,465,135,465,135s0-15,10.573-15C484.132,120,480.1,150,465,150Zm-30-30c-15.1,0-19.132-30-10.573-30C435,90,435,105,435,105s0-15,10.573-15C454.132,90,450.1,120,435,120Zm30,0c-15.1,0-19.132-30-10.573-30C465,90,465,105,465,105s0-15,10.573-15C484.132,90,480.1,120,465,120Zm30,0c-15.1,0-19.132-30-10.573-30C495,90,495,105,495,105s0-15,10.573-15C514.132,90,510.1,120,495,120ZM465,90c-15.1,0-19.132-30-10.573-30C465,60,465,75,465,75s0-15,10.573-15C484.132,60,480.1,90,465,90Zm30,0c-15.1,0-19.132-30-10.573-30C495,60,495,75,495,75s0-15,10.573-15C514.132,60,510.1,90,495,90Zm0-30c-15.1,0-19.132-30-10.573-30C495,30,495,45,495,45s0-15,10.573-15C514.132,30,510.1,60,495,60Zm90,180c-15.1,0-19.132-30-10.573-30C585,210,585,225,585,225s0-15,10.573-15C604.132,210,600.1,240,585,240Zm30,0c-15.1,0-19.132-30-10.573-30C615,210,615,225,615,225s0-15,10.573-15C634.132,210,630.1,240,615,240Zm30,0c-15.1,0-19.132-30-10.573-30C645,210,645,225,645,225s0-15,10.573-15C664.132,210,660.1,240,645,240Zm30,0c-15.1,0-19.132-30-10.573-30C675,210,675,225,675,225s0-15,10.573-15C694.132,210,690.1,240,675,240Zm30,0c-15.1,0-19.132-30-10.573-30C705,210,705,225,705,225s0-15,10.573-15C724.132,210,720.1,240,705,240Zm-30-30c-15.1,0-19.132-30-10.573-30C675,180,675,195,675,195s0-15,10.573-15C694.132,180,690.1,210,675,210Zm0,60c-15.1,0-19.132-30-10.573-30C675,240,675,255,675,255s0-15,10.573-15C694.132,240,690.1,270,675,270Zm-60,0c-15.1,0-19.132-30-10.573-30C615,240,615,255,615,255s0-15,10.573-15C634.132,240,630.1,270,615,270Zm0-60c-15.1,0-19.132-30-10.573-30C615,180,615,195,615,195s0-15,10.573-15C634.132,180,630.1,210,615,210Zm150,30c-15.1,0-19.132-30-10.573-30C765,210,765,225,765,225s0-15,10.573-15C784.132,210,780.1,240,765,240ZM15,240c-15.1,0-19.132-30-10.573-30C15,210,15,225,15,225s0-15,10.573-15C34.132,210,30.1,240,15,240Zm60,0c-15.1,0-19.132-30-10.573-30C75,210,75,225,75,225s0-15,10.573-15C94.132,210,90.1,240,75,240Zm660,0c-15.1,0-19.132-30-10.573-30C735,210,735,225,735,225s0-15,10.573-15C754.132,210,750.1,240,735,240Zm60,0c-15.1,0-19.132-30-10.573-30C795,210,795,225,795,225s0-15,10.573-15C814.132,210,810.1,240,795,240Z"/>
</svg>
