<svg xmlns="http://www.w3.org/2000/svg" width="870" height="870" viewBox="0 0 870 870">
  <metadata><?xpacket begin="﻿" id="W5M0MpCehiHzreSzNTczkc9d"?>
<x:xmpmeta xmlns:x="adobe:ns:meta/" x:xmptk="Adobe XMP Core 5.6-c138 79.159824, 2016/09/14-01:09:01        ">
   <rdf:RDF xmlns:rdf="http://www.w3.org/1999/02/22-rdf-syntax-ns#">
      <rdf:Description rdf:about=""/>
   </rdf:RDF>
</x:xmpmeta>
                                                                                                    
                                                                                                    
                                                                                                    
                                                                                                    
                                                                                                    
                                                                                                    
                                                                                                    
                                                                                                    
                                                                                                    
                                                                                                    
                                                                                                    
                                                                                                    
                                                                                                    
                                                                                                    
                                                                                                    
                                                                                                    
                                                                                                    
                                                                                                    
                                                                                                    
                                                                                                    
                           
<?xpacket end="w"?></metadata>
<defs>
    <style>
      .cls-1 {
        fill: #fff;
        fill-rule: evenodd;
      }
    </style>
  </defs>
  <path class="cls-1" d="M15,271c-15.1,0-19.132-30-10.573-30C15,241,15,256,15,256s0-15,10.573-15C34.132,241,30.1,271,15,271Zm30,0c-15.1,0-19.132-30-10.573-30C45,241,45,256,45,256s0-15,10.573-15C64.132,241,60.1,271,45,271Zm30,0c-15.1,0-19.132-30-10.573-30C75,241,75,256,75,256s0-15,10.573-15C94.132,241,90.1,271,75,271Zm30,0c-15.1,0-19.132-30-10.573-30C105,241,105,256,105,256s0-15,10.573-15C124.132,241,120.1,271,105,271Zm30,0c-15.1,0-19.132-30-10.573-30C135,241,135,256,135,256s0-15,10.573-15C154.132,241,150.1,271,135,271Zm30,0c-15.1,0-19.132-30-10.573-30C165,241,165,256,165,256s0-15,10.573-15C184.132,241,180.1,271,165,271Zm30,0c-15.1,0-19.132-30-10.573-30C195,241,195,256,195,256s0-15,10.573-15C214.132,241,210.1,271,195,271Zm30,0c-15.1,0-19.132-30-10.573-30C225,241,225,256,225,256s0-15,10.573-15C244.132,241,240.1,271,225,271ZM45,301c-15.1,0-19.132-30-10.573-30C45,271,45,286,45,286s0-15,10.573-15C64.132,271,60.1,301,45,301Zm30,0c-15.1,0-19.132-30-10.573-30C75,271,75,286,75,286s0-15,10.573-15C94.132,271,90.1,301,75,301Zm30,0c-15.1,0-19.132-30-10.573-30C105,271,105,286,105,286s0-15,10.573-15C124.132,271,120.1,301,105,301Zm30,0c-15.1,0-19.132-30-10.573-30C135,271,135,286,135,286s0-15,10.573-15C154.132,271,150.1,301,135,301Zm30,0c-15.1,0-19.132-30-10.573-30C165,271,165,286,165,286s0-15,10.573-15C184.132,271,180.1,301,165,301Zm30,0c-15.1,0-19.132-30-10.573-30C195,271,195,286,195,286s0-15,10.573-15C214.132,271,210.1,301,195,301Zm30,0c-15.1,0-19.132-30-10.573-30C225,271,225,286,225,286s0-15,10.573-15C244.132,271,240.1,301,225,301Zm30,0c-15.1,0-19.132-30-10.573-30C255,271,255,286,255,286s0-15,10.573-15C274.132,271,270.1,301,255,301ZM75,331c-15.1,0-19.132-30-10.573-30C75,301,75,316,75,316s0-15,10.573-15C94.132,301,90.1,331,75,331Zm30,0c-15.1,0-19.132-30-10.573-30C105,301,105,316,105,316s0-15,10.573-15C124.132,301,120.1,331,105,331Zm30,0c-15.1,0-19.132-30-10.573-30C135,301,135,316,135,316s0-15,10.573-15C154.132,301,150.1,331,135,331Zm30,0c-15.1,0-19.132-30-10.573-30C165,301,165,316,165,316s0-15,10.573-15C184.132,301,180.1,331,165,331Zm30,0c-15.1,0-19.132-30-10.573-30C195,301,195,316,195,316s0-15,10.573-15C214.132,301,210.1,331,195,331Zm30,0c-15.1,0-19.132-30-10.573-30C225,301,225,316,225,316s0-15,10.573-15C244.132,301,240.1,331,225,331Zm30,0c-15.1,0-19.132-30-10.573-30C255,301,255,316,255,316s0-15,10.573-15C274.132,301,270.1,331,255,331Zm30,0c-15.1,0-19.132-30-10.573-30C285,301,285,316,285,316s0-15,10.573-15C304.132,301,300.1,331,285,331ZM105,361c-15.1,0-19.132-30-10.573-30C105,331,105,346,105,346s0-15,10.573-15C124.132,331,120.1,361,105,361Zm30,0c-15.1,0-19.132-30-10.573-30C135,331,135,346,135,346s0-15,10.573-15C154.132,331,150.1,361,135,361Zm30,0c-15.1,0-19.132-30-10.573-30C165,331,165,346,165,346s0-15,10.573-15C184.132,331,180.1,361,165,361Zm30,0c-15.1,0-19.132-30-10.573-30C195,331,195,346,195,346s0-15,10.573-15C214.132,331,210.1,361,195,361Zm30,0c-15.1,0-19.132-30-10.573-30C225,331,225,346,225,346s0-15,10.573-15C244.132,331,240.1,361,225,361Zm30,0c-15.1,0-19.132-30-10.573-30C255,331,255,346,255,346s0-15,10.573-15C274.132,331,270.1,361,255,361Zm30,0c-15.1,0-19.132-30-10.573-30C285,331,285,346,285,346s0-15,10.573-15C304.132,331,300.1,361,285,361Zm30,0c-15.1,0-19.132-30-10.573-30C315,331,315,346,315,346s0-15,10.573-15C334.132,331,330.1,361,315,361ZM135,391c-15.1,0-19.132-30-10.573-30C135,361,135,376,135,376s0-15,10.573-15C154.132,361,150.1,391,135,391Zm30,0c-15.1,0-19.132-30-10.573-30C165,361,165,376,165,376s0-15,10.573-15C184.132,361,180.1,391,165,391Zm30,0c-15.1,0-19.132-30-10.573-30C195,361,195,376,195,376s0-15,10.573-15C214.132,361,210.1,391,195,391Zm30,0c-15.1,0-19.132-30-10.573-30C225,361,225,376,225,376s0-15,10.573-15C244.132,361,240.1,391,225,391Zm30,0c-15.1,0-19.132-30-10.573-30C255,361,255,376,255,376s0-15,10.573-15C274.132,361,270.1,391,255,391Zm30,0c-15.1,0-19.132-30-10.573-30C285,361,285,376,285,376s0-15,10.573-15C304.132,361,300.1,391,285,391Zm30,0c-15.1,0-19.132-30-10.573-30C315,361,315,376,315,376s0-15,10.573-15C334.132,361,330.1,391,315,391Zm30,0c-15.1,0-19.132-30-10.573-30C345,361,345,376,345,376s0-15,10.573-15C364.132,361,360.1,391,345,391ZM165,421c-15.1,0-19.132-30-10.573-30C165,391,165,406,165,406s0-15,10.573-15C184.132,391,180.1,421,165,421Zm30,0c-15.1,0-19.132-30-10.573-30C195,391,195,406,195,406s0-15,10.573-15C214.132,391,210.1,421,195,421Zm30,0c-15.1,0-19.132-30-10.573-30C225,391,225,406,225,406s0-15,10.573-15C244.132,391,240.1,421,225,421Zm30,0c-15.1,0-19.132-30-10.573-30C255,391,255,406,255,406s0-15,10.573-15C274.132,391,270.1,421,255,421Zm30,0c-15.1,0-19.132-30-10.573-30C285,391,285,406,285,406s0-15,10.573-15C304.132,391,300.1,421,285,421Zm30,0c-15.1,0-19.132-30-10.573-30C315,391,315,406,315,406s0-15,10.573-15C334.132,391,330.1,421,315,421Zm30,0c-15.1,0-19.132-30-10.573-30C345,391,345,406,345,406s0-15,10.573-15C364.132,391,360.1,421,345,421Zm30,0c-15.1,0-19.132-30-10.573-30C375,391,375,406,375,406s0-15,10.573-15C394.132,391,390.1,421,375,421Zm0,60c-15.1,0-19.132-30-10.573-30C375,451,375,466,375,466s0-15,10.573-15C394.132,451,390.1,481,375,481Zm-30,0c-15.1,0-19.132-30-10.573-30C345,451,345,466,345,466s0-15,10.573-15C364.132,451,360.1,481,345,481Zm-30,0c-15.1,0-19.132-30-10.573-30C315,451,315,466,315,466s0-15,10.573-15C334.132,451,330.1,481,315,481Zm-30,0c-15.1,0-19.132-30-10.573-30C285,451,285,466,285,466s0-15,10.573-15C304.132,451,300.1,481,285,481Zm-30,0c-15.1,0-19.132-30-10.573-30C255,451,255,466,255,466s0-15,10.573-15C274.132,451,270.1,481,255,481Zm-30,0c-15.1,0-19.132-30-10.573-30C225,451,225,466,225,466s0-15,10.573-15C244.132,451,240.1,481,225,481Zm-30,0c-15.1,0-19.132-30-10.573-30C195,451,195,466,195,466s0-15,10.573-15C214.132,451,210.1,481,195,481Zm-30,0c-15.1,0-19.132-30-10.573-30C165,451,165,466,165,466s0-15,10.573-15C184.132,451,180.1,481,165,481Zm90-240c-15.1,0-19.132-30-10.573-30C255,211,255,226,255,226s0-15,10.573-15C274.132,211,270.1,241,255,241Zm30,30c-15.1,0-19.132-30-10.573-30C285,241,285,256,285,256s0-15,10.573-15C304.132,241,300.1,271,285,271Zm30,30c-15.1,0-19.132-30-10.573-30C315,271,315,286,315,286s0-15,10.573-15C334.132,271,330.1,301,315,301Zm30,30c-15.1,0-19.132-30-10.573-30C345,301,345,316,345,316s0-15,10.573-15C364.132,301,360.1,331,345,331Zm30,30c-15.1,0-19.132-30-10.573-30C375,331,375,346,375,346s0-15,10.573-15C394.132,331,390.1,361,375,361Zm30,30c-15.1,0-19.132-30-10.573-30C405,361,405,376,405,376s0-15,10.573-15C424.132,361,420.1,391,405,391Zm0-210c-15.1,0-19.132-30-10.573-30C405,151,405,166,405,166s0-15,10.573-15C424.132,151,420.1,181,405,181Zm-30-30c-15.1,0-19.132-30-10.573-30C375,121,375,136,375,136s0-15,10.573-15C394.132,121,390.1,151,375,151Zm-30-30c-15.1,0-19.132-30-10.573-30C345,91,345,106,345,106s0-15,10.573-15C364.132,91,360.1,121,345,121ZM315,91c-15.1,0-19.132-30-10.573-30C315,61,315,76,315,76s0-15,10.573-15C334.132,61,330.1,91,315,91ZM285,61c-15.1,0-19.132-30-10.573-30C285,31,285,46,285,46s0-15,10.573-15C304.132,31,300.1,61,285,61ZM255,31c-15.1,0-19.132-30-10.573-30C255,1,255,16,255,16s0-15,10.573-15C274.132,1,270.1,31,255,31ZM465,181c-15.1,0-19.132-30-10.573-30C465,151,465,166,465,166s0-15,10.573-15C484.132,151,480.1,181,465,181Zm30-30c-15.1,0-19.132-30-10.573-30C495,121,495,136,495,136s0-15,10.573-15C514.132,121,510.1,151,495,151Zm30-30c-15.1,0-19.132-30-10.573-30C525,91,525,106,525,106s0-15,10.573-15C544.132,91,540.1,121,525,121Zm30-30c-15.1,0-19.132-30-10.573-30C555,61,555,76,555,76s0-15,10.573-15C574.132,61,570.1,91,555,91Zm30-30c-15.1,0-19.132-30-10.573-30C585,31,585,46,585,46s0-15,10.573-15C604.132,31,600.1,61,585,61Zm30-30c-15.1,0-19.132-30-10.573-30C615,1,615,16,615,16s0-15,10.573-15C634.132,1,630.1,31,615,31Zm0,210c-15.1,0-19.132-30-10.573-30C615,211,615,226,615,226s0-15,10.573-15C634.132,211,630.1,241,615,241ZM465,391c-15.1,0-19.132-30-10.573-30C465,361,465,376,465,376s0-15,10.573-15C484.132,361,480.1,391,465,391Zm30,30c-15.1,0-19.132-30-10.573-30C495,391,495,406,495,406s0-15,10.573-15C514.132,391,510.1,421,495,421ZM645,271c-15.1,0-19.132-30-10.573-30C645,241,645,256,645,256s0-15,10.573-15C664.132,241,660.1,271,645,271Zm210,0c-15.1,0-19.132-30-10.573-30C855,241,855,256,855,256s0-15,10.573-15C874.132,241,870.1,271,855,271ZM705,421c-15.1,0-19.132-30-10.573-30C705,391,705,406,705,406s0-15,10.573-15C724.132,391,720.1,421,705,421ZM495,481c-15.1,0-19.132-30-10.573-30C495,451,495,466,495,466s0-15,10.573-15C514.132,451,510.1,481,495,481Zm210,0c-15.1,0-19.132-30-10.573-30C705,451,705,466,705,466s0-15,10.573-15C724.132,451,720.1,481,705,481ZM465,511c-15.1,0-19.132-30-10.573-30C465,481,465,496,465,496s0-15,10.573-15C484.132,481,480.1,511,465,511Zm-60,0c-15.1,0-19.132-30-10.573-30C405,481,405,496,405,496s0-15,10.573-15C424.132,481,420.1,511,405,511Zm0,210c-15.1,0-19.132-30-10.573-30C405,691,405,706,405,706s0-15,10.573-15C424.132,691,420.1,721,405,721ZM255,871c-15.1,0-19.132-30-10.573-30C255,841,255,856,255,856s0-15,10.573-15C274.132,841,270.1,871,255,871ZM465,721c-15.1,0-19.132-30-10.573-30C465,691,465,706,465,706s0-15,10.573-15C484.132,691,480.1,721,465,721ZM615,871c-15.1,0-19.132-30-10.573-30C615,841,615,856,615,856s0-15,10.573-15C634.132,841,630.1,871,615,871Zm0-210c-15.1,0-19.132-30-10.573-30C615,631,615,646,615,646s0-15,10.573-15C634.132,631,630.1,661,615,661Zm30-30c-15.1,0-19.132-30-10.573-30C645,601,645,616,645,616s0-15,10.573-15C664.132,601,660.1,631,645,631Zm210,0c-15.1,0-19.132-30-10.573-30C855,601,855,616,855,616s0-15,10.573-15C874.132,601,870.1,631,855,631ZM255,661c-15.1,0-19.132-30-10.573-30C255,631,255,646,255,646s0-15,10.573-15C274.132,631,270.1,661,255,661Zm-30-30c-15.1,0-19.132-30-10.573-30C225,601,225,616,225,616s0-15,10.573-15C244.132,601,240.1,631,225,631ZM15,631c-15.1,0-19.132-30-10.573-30C15,601,15,616,15,616s0-15,10.573-15C34.132,601,30.1,631,15,631Zm30-30c-15.1,0-19.132-30-10.573-30C45,571,45,586,45,586s0-15,10.573-15C64.132,571,60.1,601,45,601Zm30-30c-15.1,0-19.132-30-10.573-30C75,541,75,556,75,556s0-15,10.573-15C94.132,541,90.1,571,75,571Zm30-30c-15.1,0-19.132-30-10.573-30C105,511,105,526,105,526s0-15,10.573-15C124.132,511,120.1,541,105,541Zm30-30c-15.1,0-19.132-30-10.573-30C135,481,135,496,135,496s0-15,10.573-15C154.132,481,150.1,511,135,511Zm240,30c-15.1,0-19.132-30-10.573-30C375,511,375,526,375,526s0-15,10.573-15C394.132,511,390.1,541,375,541Zm-30,30c-15.1,0-19.132-30-10.573-30C345,541,345,556,345,556s0-15,10.573-15C364.132,541,360.1,571,345,571Zm-30,30c-15.1,0-19.132-30-10.573-30C315,571,315,586,315,586s0-15,10.573-15C334.132,571,330.1,601,315,601Zm-30,30c-15.1,0-19.132-30-10.573-30C285,601,285,616,285,616s0-15,10.573-15C304.132,601,300.1,631,285,631Zm-30-30c-15.1,0-19.132-30-10.573-30C255,571,255,586,255,586s0-15,10.573-15C274.132,571,270.1,601,255,601Zm30-30c-15.1,0-19.132-30-10.573-30C285,541,285,556,285,556s0-15,10.573-15C304.132,541,300.1,571,285,571Zm30-30c-15.1,0-19.132-30-10.573-30C315,511,315,526,315,526s0-15,10.573-15C334.132,511,330.1,541,315,541Zm30-30c-15.1,0-19.132-30-10.573-30C345,481,345,496,345,496s0-15,10.573-15C364.132,481,360.1,511,345,511ZM45,631c-15.1,0-19.132-30-10.573-30C45,601,45,616,45,616s0-15,10.573-15C64.132,601,60.1,631,45,631Zm30,0c-15.1,0-19.132-30-10.573-30C75,601,75,616,75,616s0-15,10.573-15C94.132,601,90.1,631,75,631Zm30,0c-15.1,0-19.132-30-10.573-30C105,601,105,616,105,616s0-15,10.573-15C124.132,601,120.1,631,105,631Zm30,0c-15.1,0-19.132-30-10.573-30C135,601,135,616,135,616s0-15,10.573-15C154.132,601,150.1,631,135,631Zm30,0c-15.1,0-19.132-30-10.573-30C165,601,165,616,165,616s0-15,10.573-15C184.132,601,180.1,631,165,631Zm30,0c-15.1,0-19.132-30-10.573-30C195,601,195,616,195,616s0-15,10.573-15C214.132,601,210.1,631,195,631ZM75,601c-15.1,0-19.132-30-10.573-30C75,571,75,586,75,586s0-15,10.573-15C94.132,571,90.1,601,75,601Zm30,0c-15.1,0-19.132-30-10.573-30C105,571,105,586,105,586s0-15,10.573-15C124.132,571,120.1,601,105,601Zm30,0c-15.1,0-19.132-30-10.573-30C135,571,135,586,135,586s0-15,10.573-15C154.132,571,150.1,601,135,601Zm30,0c-15.1,0-19.132-30-10.573-30C165,571,165,586,165,586s0-15,10.573-15C184.132,571,180.1,601,165,601Zm30,0c-15.1,0-19.132-30-10.573-30C195,571,195,586,195,586s0-15,10.573-15C214.132,571,210.1,601,195,601Zm30,0c-15.1,0-19.132-30-10.573-30C225,571,225,586,225,586s0-15,10.573-15C244.132,571,240.1,601,225,601ZM105,571c-15.1,0-19.132-30-10.573-30C105,541,105,556,105,556s0-15,10.573-15C124.132,541,120.1,571,105,571Zm30,0c-15.1,0-19.132-30-10.573-30C135,541,135,556,135,556s0-15,10.573-15C154.132,541,150.1,571,135,571Zm30,0c-15.1,0-19.132-30-10.573-30C165,541,165,556,165,556s0-15,10.573-15C184.132,541,180.1,571,165,571Zm30,0c-15.1,0-19.132-30-10.573-30C195,541,195,556,195,556s0-15,10.573-15C214.132,541,210.1,571,195,571Zm30,0c-15.1,0-19.132-30-10.573-30C225,541,225,556,225,556s0-15,10.573-15C244.132,541,240.1,571,225,571Zm30,0c-15.1,0-19.132-30-10.573-30C255,541,255,556,255,556s0-15,10.573-15C274.132,541,270.1,571,255,571ZM135,541c-15.1,0-19.132-30-10.573-30C135,511,135,526,135,526s0-15,10.573-15C154.132,511,150.1,541,135,541Zm30,0c-15.1,0-19.132-30-10.573-30C165,511,165,526,165,526s0-15,10.573-15C184.132,511,180.1,541,165,541Zm30,0c-15.1,0-19.132-30-10.573-30C195,511,195,526,195,526s0-15,10.573-15C214.132,511,210.1,541,195,541Zm30,0c-15.1,0-19.132-30-10.573-30C225,511,225,526,225,526s0-15,10.573-15C244.132,511,240.1,541,225,541Zm-60-30c-15.1,0-19.132-30-10.573-30C165,481,165,496,165,496s0-15,10.573-15C184.132,481,180.1,511,165,511Zm30,0c-15.1,0-19.132-30-10.573-30C195,481,195,496,195,496s0-15,10.573-15C214.132,481,210.1,511,195,511Zm30,0c-15.1,0-19.132-30-10.573-30C225,481,225,496,225,496s0-15,10.573-15C244.132,481,240.1,511,225,511Zm30,0c-15.1,0-19.132-30-10.573-30C255,481,255,496,255,496s0-15,10.573-15C274.132,481,270.1,511,255,511Zm30,0c-15.1,0-19.132-30-10.573-30C285,481,285,496,285,496s0-15,10.573-15C304.132,481,300.1,511,285,511Zm30,0c-15.1,0-19.132-30-10.573-30C315,481,315,496,315,496s0-15,10.573-15C334.132,481,330.1,511,315,511Zm-60,30c-15.1,0-19.132-30-10.573-30C255,511,255,526,255,526s0-15,10.573-15C274.132,511,270.1,541,255,541Zm30,0c-15.1,0-19.132-30-10.573-30C285,511,285,526,285,526s0-15,10.573-15C304.132,511,300.1,541,285,541ZM255,61c-15.1,0-19.132-30-10.573-30C255,31,255,46,255,46s0-15,10.573-15C274.132,31,270.1,61,255,61Zm0,30c-15.1,0-19.132-30-10.573-30C255,61,255,76,255,76s0-15,10.573-15C274.132,61,270.1,91,255,91Zm0,30c-15.1,0-19.132-30-10.573-30C255,91,255,106,255,106s0-15,10.573-15C274.132,91,270.1,121,255,121Zm0,30c-15.1,0-19.132-30-10.573-30C255,121,255,136,255,136s0-15,10.573-15C274.132,121,270.1,151,255,151Zm0,30c-15.1,0-19.132-30-10.573-30C255,151,255,166,255,166s0-15,10.573-15C274.132,151,270.1,181,255,181Zm0,30c-15.1,0-19.132-30-10.573-30C255,181,255,196,255,196s0-15,10.573-15C274.132,181,270.1,211,255,211ZM405,361c-15.1,0-19.132-30-10.573-30C405,331,405,346,405,346s0-15,10.573-15C424.132,331,420.1,361,405,361Zm0-30c-15.1,0-19.132-30-10.573-30C405,301,405,316,405,316s0-15,10.573-15C424.132,301,420.1,331,405,331Zm0-30c-15.1,0-19.132-30-10.573-30C405,271,405,286,405,286s0-15,10.573-15C424.132,271,420.1,301,405,301Zm0-30c-15.1,0-19.132-30-10.573-30C405,241,405,256,405,256s0-15,10.573-15C424.132,241,420.1,271,405,271Zm0-30c-15.1,0-19.132-30-10.573-30C405,211,405,226,405,226s0-15,10.573-15C424.132,211,420.1,241,405,241Zm0-30c-15.1,0-19.132-30-10.573-30C405,181,405,196,405,196s0-15,10.573-15C424.132,181,420.1,211,405,211Zm60,0c-15.1,0-19.132-30-10.573-30C465,181,465,196,465,196s0-15,10.573-15C484.132,181,480.1,211,465,211Zm0,30c-15.1,0-19.132-30-10.573-30C465,211,465,226,465,226s0-15,10.573-15C484.132,211,480.1,241,465,241Zm0,30c-15.1,0-19.132-30-10.573-30C465,241,465,256,465,256s0-15,10.573-15C484.132,241,480.1,271,465,271Zm0,30c-15.1,0-19.132-30-10.573-30C465,271,465,286,465,286s0-15,10.573-15C484.132,271,480.1,301,465,301Zm0,30c-15.1,0-19.132-30-10.573-30C465,301,465,316,465,316s0-15,10.573-15C484.132,301,480.1,331,465,331Zm0,30c-15.1,0-19.132-30-10.573-30C465,331,465,346,465,346s0-15,10.573-15C484.132,331,480.1,361,465,361ZM285,91c-15.1,0-19.132-30-10.573-30C285,61,285,76,285,76s0-15,10.573-15C304.132,61,300.1,91,285,91Zm0,30c-15.1,0-19.132-30-10.573-30C285,91,285,106,285,106s0-15,10.573-15C304.132,91,300.1,121,285,121Zm0,30c-15.1,0-19.132-30-10.573-30C285,121,285,136,285,136s0-15,10.573-15C304.132,121,300.1,151,285,151Zm0,30c-15.1,0-19.132-30-10.573-30C285,151,285,166,285,166s0-15,10.573-15C304.132,151,300.1,181,285,181Zm0,30c-15.1,0-19.132-30-10.573-30C285,181,285,196,285,196s0-15,10.573-15C304.132,181,300.1,211,285,211Zm0,30c-15.1,0-19.132-30-10.573-30C285,211,285,226,285,226s0-15,10.573-15C304.132,211,300.1,241,285,241Zm30,30c-15.1,0-19.132-30-10.573-30C315,241,315,256,315,256s0-15,10.573-15C334.132,241,330.1,271,315,271Zm0-30c-15.1,0-19.132-30-10.573-30C315,211,315,226,315,226s0-15,10.573-15C334.132,211,330.1,241,315,241Zm0-30c-15.1,0-19.132-30-10.573-30C315,181,315,196,315,196s0-15,10.573-15C334.132,181,330.1,211,315,211Zm0-30c-15.1,0-19.132-30-10.573-30C315,151,315,166,315,166s0-15,10.573-15C334.132,151,330.1,181,315,181Zm0-30c-15.1,0-19.132-30-10.573-30C315,121,315,136,315,136s0-15,10.573-15C334.132,121,330.1,151,315,151Zm0-30c-15.1,0-19.132-30-10.573-30C315,91,315,106,315,106s0-15,10.573-15C334.132,91,330.1,121,315,121Zm30,30c-15.1,0-19.132-30-10.573-30C345,121,345,136,345,136s0-15,10.573-15C364.132,121,360.1,151,345,151Zm0,30c-15.1,0-19.132-30-10.573-30C345,151,345,166,345,166s0-15,10.573-15C364.132,151,360.1,181,345,181Zm0,30c-15.1,0-19.132-30-10.573-30C345,181,345,196,345,196s0-15,10.573-15C364.132,181,360.1,211,345,211Zm0,30c-15.1,0-19.132-30-10.573-30C345,211,345,226,345,226s0-15,10.573-15C364.132,211,360.1,241,345,241Zm0,30c-15.1,0-19.132-30-10.573-30C345,241,345,256,345,256s0-15,10.573-15C364.132,241,360.1,271,345,271Zm0,30c-15.1,0-19.132-30-10.573-30C345,271,345,286,345,286s0-15,10.573-15C364.132,271,360.1,301,345,301Zm30-120c-15.1,0-19.132-30-10.573-30C375,151,375,166,375,166s0-15,10.573-15C394.132,151,390.1,181,375,181Zm0,30c-15.1,0-19.132-30-10.573-30C375,181,375,196,375,196s0-15,10.573-15C394.132,181,390.1,211,375,211Zm0,30c-15.1,0-19.132-30-10.573-30C375,211,375,226,375,226s0-15,10.573-15C394.132,211,390.1,241,375,241Zm0,30c-15.1,0-19.132-30-10.573-30C375,241,375,256,375,256s0-15,10.573-15C394.132,241,390.1,271,375,271Zm0,30c-15.1,0-19.132-30-10.573-30C375,271,375,286,375,286s0-15,10.573-15C394.132,271,390.1,301,375,301Zm0,30c-15.1,0-19.132-30-10.573-30C375,301,375,316,375,316s0-15,10.573-15C394.132,301,390.1,331,375,331ZM255,691c-15.1,0-19.132-30-10.573-30C255,661,255,676,255,676s0-15,10.573-15C274.132,661,270.1,691,255,691Zm0,30c-15.1,0-19.132-30-10.573-30C255,691,255,706,255,706s0-15,10.573-15C274.132,691,270.1,721,255,721Zm0,30c-15.1,0-19.132-30-10.573-30C255,721,255,736,255,736s0-15,10.573-15C274.132,721,270.1,751,255,751Zm0,30c-15.1,0-19.132-30-10.573-30C255,751,255,766,255,766s0-15,10.573-15C274.132,751,270.1,781,255,781Zm0,30c-15.1,0-19.132-30-10.573-30C255,781,255,796,255,796s0-15,10.573-15C274.132,781,270.1,811,255,811Zm0,30c-15.1,0-19.132-30-10.573-30C255,811,255,826,255,826s0-15,10.573-15C274.132,811,270.1,841,255,841Zm30,0c-15.1,0-19.132-30-10.573-30C285,811,285,826,285,826s0-15,10.573-15C304.132,811,300.1,841,285,841Zm30-30c-15.1,0-19.132-30-10.573-30C315,781,315,796,315,796s0-15,10.573-15C334.132,781,330.1,811,315,811Zm30-30c-15.1,0-19.132-30-10.573-30C345,751,345,766,345,766s0-15,10.573-15C364.132,751,360.1,781,345,781Zm30-30c-15.1,0-19.132-30-10.573-30C375,721,375,736,375,736s0-15,10.573-15C394.132,721,390.1,751,375,751Zm30-60c-15.1,0-19.132-30-10.573-30C405,661,405,676,405,676s0-15,10.573-15C424.132,661,420.1,691,405,691Zm0-30c-15.1,0-19.132-30-10.573-30C405,631,405,646,405,646s0-15,10.573-15C424.132,631,420.1,661,405,661Zm0-30c-15.1,0-19.132-30-10.573-30C405,601,405,616,405,616s0-15,10.573-15C424.132,601,420.1,631,405,631Zm0-30c-15.1,0-19.132-30-10.573-30C405,571,405,586,405,586s0-15,10.573-15C424.132,571,420.1,601,405,601Zm0-30c-15.1,0-19.132-30-10.573-30C405,541,405,556,405,556s0-15,10.573-15C424.132,541,420.1,571,405,571Zm0-30c-15.1,0-19.132-30-10.573-30C405,511,405,526,405,526s0-15,10.573-15C424.132,511,420.1,541,405,541Zm60,0c-15.1,0-19.132-30-10.573-30C465,511,465,526,465,526s0-15,10.573-15C484.132,511,480.1,541,465,541Zm0,30c-15.1,0-19.132-30-10.573-30C465,541,465,556,465,556s0-15,10.573-15C484.132,541,480.1,571,465,571Zm0,30c-15.1,0-19.132-30-10.573-30C465,571,465,586,465,586s0-15,10.573-15C484.132,571,480.1,601,465,601Zm0,30c-15.1,0-19.132-30-10.573-30C465,601,465,616,465,616s0-15,10.573-15C484.132,601,480.1,631,465,631Zm0,30c-15.1,0-19.132-30-10.573-30C465,631,465,646,465,646s0-15,10.573-15C484.132,631,480.1,661,465,661Zm0,30c-15.1,0-19.132-30-10.573-30C465,661,465,676,465,676s0-15,10.573-15C484.132,661,480.1,691,465,691Zm30,60c-15.1,0-19.132-30-10.573-30C495,721,495,736,495,736s0-15,10.573-15C514.132,721,510.1,751,495,751Zm30,30c-15.1,0-19.132-30-10.573-30C525,751,525,766,525,766s0-15,10.573-15C544.132,751,540.1,781,525,781Zm30,30c-15.1,0-19.132-30-10.573-30C555,781,555,796,555,796s0-15,10.573-15C574.132,781,570.1,811,555,811Zm30,30c-15.1,0-19.132-30-10.573-30C585,811,585,826,585,826s0-15,10.573-15C604.132,811,600.1,841,585,841Zm30,0c-15.1,0-19.132-30-10.573-30C615,811,615,826,615,826s0-15,10.573-15C634.132,811,630.1,841,615,841Zm0-30c-15.1,0-19.132-30-10.573-30C615,781,615,796,615,796s0-15,10.573-15C634.132,781,630.1,811,615,811Zm0-30c-15.1,0-19.132-30-10.573-30C615,751,615,766,615,766s0-15,10.573-15C634.132,751,630.1,781,615,781Zm0-30c-15.1,0-19.132-30-10.573-30C615,721,615,736,615,736s0-15,10.573-15C634.132,721,630.1,751,615,751Zm0-30c-15.1,0-19.132-30-10.573-30C615,691,615,706,615,706s0-15,10.573-15C634.132,691,630.1,721,615,721Zm0-30c-15.1,0-19.132-30-10.573-30C615,661,615,676,615,676s0-15,10.573-15C634.132,661,630.1,691,615,691Zm-30-60c-15.1,0-19.132-30-10.573-30C585,601,585,616,585,616s0-15,10.573-15C604.132,601,600.1,631,585,631Zm-30-30c-15.1,0-19.132-30-10.573-30C555,571,555,586,555,586s0-15,10.573-15C574.132,571,570.1,601,555,601Zm-30-30c-15.1,0-19.132-30-10.573-30C525,541,525,556,525,556s0-15,10.573-15C544.132,541,540.1,571,525,571Zm-30-30c-15.1,0-19.132-30-10.573-30C495,511,495,526,495,526s0-15,10.573-15C514.132,511,510.1,541,495,541Zm30-30c-15.1,0-19.132-30-10.573-30C525,481,525,496,525,496s0-15,10.573-15C544.132,481,540.1,511,525,511Zm30,30c-15.1,0-19.132-30-10.573-30C555,511,555,526,555,526s0-15,10.573-15C574.132,511,570.1,541,555,541Zm30,30c-15.1,0-19.132-30-10.573-30C585,541,585,556,585,556s0-15,10.573-15C604.132,541,600.1,571,585,571Zm30,30c-15.1,0-19.132-30-10.573-30C615,571,615,586,615,586s0-15,10.573-15C634.132,571,630.1,601,615,601Zm60,30c-15.1,0-19.132-30-10.573-30C675,601,675,616,675,616s0-15,10.573-15C694.132,601,690.1,631,675,631Zm30,0c-15.1,0-19.132-30-10.573-30C705,601,705,616,705,616s0-15,10.573-15C724.132,601,720.1,631,705,631Zm30,0c-15.1,0-19.132-30-10.573-30C735,601,735,616,735,616s0-15,10.573-15C754.132,601,750.1,631,735,631Zm30,0c-15.1,0-19.132-30-10.573-30C765,601,765,616,765,616s0-15,10.573-15C784.132,601,780.1,631,765,631Zm30,0c-15.1,0-19.132-30-10.573-30C795,601,795,616,795,616s0-15,10.573-15C814.132,601,810.1,631,795,631Zm30,0c-15.1,0-19.132-30-10.573-30C825,601,825,616,825,616s0-15,10.573-15C844.132,601,840.1,631,825,631Zm0-30c-15.1,0-19.132-30-10.573-30C825,571,825,586,825,586s0-15,10.573-15C844.132,571,840.1,601,825,601Zm-30-30c-15.1,0-19.132-30-10.573-30C795,541,795,556,795,556s0-15,10.573-15C814.132,541,810.1,571,795,571Zm-30-30c-15.1,0-19.132-30-10.573-30C765,511,765,526,765,526s0-15,10.573-15C784.132,511,780.1,541,765,541Zm-30-30c-15.1,0-19.132-30-10.573-30C735,481,735,496,735,496s0-15,10.573-15C754.132,481,750.1,511,735,511Zm-60-30c-15.1,0-19.132-30-10.573-30C675,451,675,466,675,466s0-15,10.573-15C694.132,451,690.1,481,675,481Zm-30,0c-15.1,0-19.132-30-10.573-30C645,451,645,466,645,466s0-15,10.573-15C664.132,451,660.1,481,645,481Zm-30,0c-15.1,0-19.132-30-10.573-30C615,451,615,466,615,466s0-15,10.573-15C634.132,451,630.1,481,615,481Zm-30,0c-15.1,0-19.132-30-10.573-30C585,451,585,466,585,466s0-15,10.573-15C604.132,451,600.1,481,585,481Zm-30,0c-15.1,0-19.132-30-10.573-30C555,451,555,466,555,466s0-15,10.573-15C574.132,451,570.1,481,555,481Zm-30,0c-15.1,0-19.132-30-10.573-30C525,451,525,466,525,466s0-15,10.573-15C544.132,451,540.1,481,525,481Zm0-60c-15.1,0-19.132-30-10.573-30C525,391,525,406,525,406s0-15,10.573-15C544.132,391,540.1,421,525,421Zm30,0c-15.1,0-19.132-30-10.573-30C555,391,555,406,555,406s0-15,10.573-15C574.132,391,570.1,421,555,421Zm30,0c-15.1,0-19.132-30-10.573-30C585,391,585,406,585,406s0-15,10.573-15C604.132,391,600.1,421,585,421Zm30,0c-15.1,0-19.132-30-10.573-30C615,391,615,406,615,406s0-15,10.573-15C634.132,391,630.1,421,615,421Zm30,0c-15.1,0-19.132-30-10.573-30C645,391,645,406,645,406s0-15,10.573-15C664.132,391,660.1,421,645,421Zm30,0c-15.1,0-19.132-30-10.573-30C675,391,675,406,675,406s0-15,10.573-15C694.132,391,690.1,421,675,421Zm60-30c-15.1,0-19.132-30-10.573-30C735,361,735,376,735,376s0-15,10.573-15C754.132,361,750.1,391,735,391Zm30-30c-15.1,0-19.132-30-10.573-30C765,331,765,346,765,346s0-15,10.573-15C784.132,331,780.1,361,765,361Zm30-30c-15.1,0-19.132-30-10.573-30C795,301,795,316,795,316s0-15,10.573-15C814.132,301,810.1,331,795,331Zm30-30c-15.1,0-19.132-30-10.573-30C825,271,825,286,825,286s0-15,10.573-15C844.132,271,840.1,301,825,301Zm0-30c-15.1,0-19.132-30-10.573-30C825,241,825,256,825,256s0-15,10.573-15C844.132,241,840.1,271,825,271Zm-30,0c-15.1,0-19.132-30-10.573-30C795,241,795,256,795,256s0-15,10.573-15C814.132,241,810.1,271,795,271Zm-30,0c-15.1,0-19.132-30-10.573-30C765,241,765,256,765,256s0-15,10.573-15C784.132,241,780.1,271,765,271Zm-30,0c-15.1,0-19.132-30-10.573-30C735,241,735,256,735,256s0-15,10.573-15C754.132,241,750.1,271,735,271Zm-30,0c-15.1,0-19.132-30-10.573-30C705,241,705,256,705,256s0-15,10.573-15C724.132,241,720.1,271,705,271Zm-30,0c-15.1,0-19.132-30-10.573-30C675,241,675,256,675,256s0-15,10.573-15C694.132,241,690.1,271,675,271Zm-60,30c-15.1,0-19.132-30-10.573-30C615,271,615,286,615,286s0-15,10.573-15C634.132,271,630.1,301,615,301Zm-30,30c-15.1,0-19.132-30-10.573-30C585,301,585,316,585,316s0-15,10.573-15C604.132,301,600.1,331,585,331Zm-30,30c-15.1,0-19.132-30-10.573-30C555,331,555,346,555,346s0-15,10.573-15C574.132,331,570.1,361,555,361Zm-30,30c-15.1,0-19.132-30-10.573-30C525,361,525,376,525,376s0-15,10.573-15C544.132,361,540.1,391,525,391Zm-30-30c-15.1,0-19.132-30-10.573-30C495,331,495,346,495,346s0-15,10.573-15C514.132,331,510.1,361,495,361Zm30-30c-15.1,0-19.132-30-10.573-30C525,301,525,316,525,316s0-15,10.573-15C544.132,301,540.1,331,525,331Zm30-30c-15.1,0-19.132-30-10.573-30C555,271,555,286,555,286s0-15,10.573-15C574.132,271,570.1,301,555,301Zm30-30c-15.1,0-19.132-30-10.573-30C585,241,585,256,585,256s0-15,10.573-15C604.132,241,600.1,271,585,271Zm30-60c-15.1,0-19.132-30-10.573-30C615,181,615,196,615,196s0-15,10.573-15C634.132,181,630.1,211,615,211Zm0-30c-15.1,0-19.132-30-10.573-30C615,151,615,166,615,166s0-15,10.573-15C634.132,151,630.1,181,615,181Zm0-30c-15.1,0-19.132-30-10.573-30C615,121,615,136,615,136s0-15,10.573-15C634.132,121,630.1,151,615,151Zm0-30c-15.1,0-19.132-30-10.573-30C615,91,615,106,615,106s0-15,10.573-15C634.132,91,630.1,121,615,121Zm0-30c-15.1,0-19.132-30-10.573-30C615,61,615,76,615,76s0-15,10.573-15C634.132,61,630.1,91,615,91Zm0-30c-15.1,0-19.132-30-10.573-30C615,31,615,46,615,46s0-15,10.573-15C634.132,31,630.1,61,615,61ZM285,661c-15.1,0-19.132-30-10.573-30C285,631,285,646,285,646s0-15,10.573-15C304.132,631,300.1,661,285,661Zm30,0c-15.1,0-19.132-30-10.573-30C315,631,315,646,315,646s0-15,10.573-15C334.132,631,330.1,661,315,661Zm0-30c-15.1,0-19.132-30-10.573-30C315,601,315,616,315,616s0-15,10.573-15C334.132,601,330.1,631,315,631Zm30-30c-15.1,0-19.132-30-10.573-30C345,571,345,586,345,586s0-15,10.573-15C364.132,571,360.1,601,345,601Zm30-30c-15.1,0-19.132-30-10.573-30C375,541,375,556,375,556s0-15,10.573-15C394.132,541,390.1,571,375,571Zm0,30c-15.1,0-19.132-30-10.573-30C375,571,375,586,375,586s0-15,10.573-15C394.132,571,390.1,601,375,601Zm0,30c-15.1,0-19.132-30-10.573-30C375,601,375,616,375,616s0-15,10.573-15C394.132,601,390.1,631,375,631Zm0,30c-15.1,0-19.132-30-10.573-30C375,631,375,646,375,646s0-15,10.573-15C394.132,631,390.1,661,375,661Zm0,30c-15.1,0-19.132-30-10.573-30C375,661,375,676,375,676s0-15,10.573-15C394.132,661,390.1,691,375,691Zm0,30c-15.1,0-19.132-30-10.573-30C375,691,375,706,375,706s0-15,10.573-15C394.132,691,390.1,721,375,721Zm-30-90c-15.1,0-19.132-30-10.573-30C345,601,345,616,345,616s0-15,10.573-15C364.132,601,360.1,631,345,631Zm0,30c-15.1,0-19.132-30-10.573-30C345,631,345,646,345,646s0-15,10.573-15C364.132,631,360.1,661,345,661Zm0,30c-15.1,0-19.132-30-10.573-30C345,661,345,676,345,676s0-15,10.573-15C364.132,661,360.1,691,345,691Zm0,30c-15.1,0-19.132-30-10.573-30C345,691,345,706,345,706s0-15,10.573-15C364.132,691,360.1,721,345,721Zm0,30c-15.1,0-19.132-30-10.573-30C345,721,345,736,345,736s0-15,10.573-15C364.132,721,360.1,751,345,751Zm-30-60c-15.1,0-19.132-30-10.573-30C315,661,315,676,315,676s0-15,10.573-15C334.132,661,330.1,691,315,691Zm0,30c-15.1,0-19.132-30-10.573-30C315,691,315,706,315,706s0-15,10.573-15C334.132,691,330.1,721,315,721Zm0,30c-15.1,0-19.132-30-10.573-30C315,721,315,736,315,736s0-15,10.573-15C334.132,721,330.1,751,315,751Zm0,30c-15.1,0-19.132-30-10.573-30C315,751,315,766,315,766s0-15,10.573-15C334.132,751,330.1,781,315,781Zm-30-90c-15.1,0-19.132-30-10.573-30C285,661,285,676,285,676s0-15,10.573-15C304.132,661,300.1,691,285,691Zm0,30c-15.1,0-19.132-30-10.573-30C285,691,285,706,285,706s0-15,10.573-15C304.132,691,300.1,721,285,721Zm0,30c-15.1,0-19.132-30-10.573-30C285,721,285,736,285,736s0-15,10.573-15C304.132,721,300.1,751,285,751Zm0,30c-15.1,0-19.132-30-10.573-30C285,751,285,766,285,766s0-15,10.573-15C304.132,751,300.1,781,285,781Zm0,30c-15.1,0-19.132-30-10.573-30C285,781,285,796,285,796s0-15,10.573-15C304.132,781,300.1,811,285,811ZM495,571c-15.1,0-19.132-30-10.573-30C495,541,495,556,495,556s0-15,10.573-15C514.132,541,510.1,571,495,571Zm0,30c-15.1,0-19.132-30-10.573-30C495,571,495,586,495,586s0-15,10.573-15C514.132,571,510.1,601,495,601Zm0,30c-15.1,0-19.132-30-10.573-30C495,601,495,616,495,616s0-15,10.573-15C514.132,601,510.1,631,495,631Zm0,30c-15.1,0-19.132-30-10.573-30C495,631,495,646,495,646s0-15,10.573-15C514.132,631,510.1,661,495,661Zm0,30c-15.1,0-19.132-30-10.573-30C495,661,495,676,495,676s0-15,10.573-15C514.132,661,510.1,691,495,691Zm0,30c-15.1,0-19.132-30-10.573-30C495,691,495,706,495,706s0-15,10.573-15C514.132,691,510.1,721,495,721Zm30-120c-15.1,0-19.132-30-10.573-30C525,571,525,586,525,586s0-15,10.573-15C544.132,571,540.1,601,525,601Zm0,30c-15.1,0-19.132-30-10.573-30C525,601,525,616,525,616s0-15,10.573-15C544.132,601,540.1,631,525,631Zm0,30c-15.1,0-19.132-30-10.573-30C525,631,525,646,525,646s0-15,10.573-15C544.132,631,540.1,661,525,661Zm0,30c-15.1,0-19.132-30-10.573-30C525,661,525,676,525,676s0-15,10.573-15C544.132,661,540.1,691,525,691Zm0,30c-15.1,0-19.132-30-10.573-30C525,691,525,706,525,706s0-15,10.573-15C544.132,691,540.1,721,525,721Zm0,30c-15.1,0-19.132-30-10.573-30C525,721,525,736,525,736s0-15,10.573-15C544.132,721,540.1,751,525,751Zm30-120c-15.1,0-19.132-30-10.573-30C555,601,555,616,555,616s0-15,10.573-15C574.132,601,570.1,631,555,631Zm0,30c-15.1,0-19.132-30-10.573-30C555,631,555,646,555,646s0-15,10.573-15C574.132,631,570.1,661,555,661Zm0,30c-15.1,0-19.132-30-10.573-30C555,661,555,676,555,676s0-15,10.573-15C574.132,661,570.1,691,555,691Zm0,30c-15.1,0-19.132-30-10.573-30C555,691,555,706,555,706s0-15,10.573-15C574.132,691,570.1,721,555,721Zm0,30c-15.1,0-19.132-30-10.573-30C555,721,555,736,555,736s0-15,10.573-15C574.132,721,570.1,751,555,751Zm0,30c-15.1,0-19.132-30-10.573-30C555,751,555,766,555,766s0-15,10.573-15C574.132,751,570.1,781,555,781Zm30,30c-15.1,0-19.132-30-10.573-30C585,781,585,796,585,796s0-15,10.573-15C604.132,781,600.1,811,585,811Zm0-30c-15.1,0-19.132-30-10.573-30C585,751,585,766,585,766s0-15,10.573-15C604.132,751,600.1,781,585,781Zm0-30c-15.1,0-19.132-30-10.573-30C585,721,585,736,585,736s0-15,10.573-15C604.132,721,600.1,751,585,751Zm0-30c-15.1,0-19.132-30-10.573-30C585,691,585,706,585,706s0-15,10.573-15C604.132,691,600.1,721,585,721Zm0-30c-15.1,0-19.132-30-10.573-30C585,661,585,676,585,676s0-15,10.573-15C604.132,661,600.1,691,585,691Zm0-30c-15.1,0-19.132-30-10.573-30C585,631,585,646,585,646s0-15,10.573-15C604.132,631,600.1,661,585,661ZM555,511c-15.1,0-19.132-30-10.573-30C555,481,555,496,555,496s0-15,10.573-15C574.132,481,570.1,511,555,511Zm30,0c-15.1,0-19.132-30-10.573-30C585,481,585,496,585,496s0-15,10.573-15C604.132,481,600.1,511,585,511Zm30,0c-15.1,0-19.132-30-10.573-30C615,481,615,496,615,496s0-15,10.573-15C634.132,481,630.1,511,615,511Zm30,0c-15.1,0-19.132-30-10.573-30C645,481,645,496,645,496s0-15,10.573-15C664.132,481,660.1,511,645,511Zm30,0c-15.1,0-19.132-30-10.573-30C675,481,675,496,675,496s0-15,10.573-15C694.132,481,690.1,511,675,511Zm30,0c-15.1,0-19.132-30-10.573-30C705,481,705,496,705,496s0-15,10.573-15C724.132,481,720.1,511,705,511Zm30,30c-15.1,0-19.132-30-10.573-30C735,511,735,526,735,526s0-15,10.573-15C754.132,511,750.1,541,735,541Zm-30,0c-15.1,0-19.132-30-10.573-30C705,511,705,526,705,526s0-15,10.573-15C724.132,511,720.1,541,705,541Zm-30,0c-15.1,0-19.132-30-10.573-30C675,511,675,526,675,526s0-15,10.573-15C694.132,511,690.1,541,675,541Zm-30,0c-15.1,0-19.132-30-10.573-30C645,511,645,526,645,526s0-15,10.573-15C664.132,511,660.1,541,645,541Zm-30,0c-15.1,0-19.132-30-10.573-30C615,511,615,526,615,526s0-15,10.573-15C634.132,511,630.1,541,615,541Zm-30,0c-15.1,0-19.132-30-10.573-30C585,511,585,526,585,526s0-15,10.573-15C604.132,511,600.1,541,585,541Zm30,30c-15.1,0-19.132-30-10.573-30C615,541,615,556,615,556s0-15,10.573-15C634.132,541,630.1,571,615,571Zm30,0c-15.1,0-19.132-30-10.573-30C645,541,645,556,645,556s0-15,10.573-15C664.132,541,660.1,571,645,571Zm30,0c-15.1,0-19.132-30-10.573-30C675,541,675,556,675,556s0-15,10.573-15C694.132,541,690.1,571,675,571Zm30,0c-15.1,0-19.132-30-10.573-30C705,541,705,556,705,556s0-15,10.573-15C724.132,541,720.1,571,705,571Zm30,0c-15.1,0-19.132-30-10.573-30C735,541,735,556,735,556s0-15,10.573-15C754.132,541,750.1,571,735,571Zm30,0c-15.1,0-19.132-30-10.573-30C765,541,765,556,765,556s0-15,10.573-15C784.132,541,780.1,571,765,571Zm30,30c-15.1,0-19.132-30-10.573-30C795,571,795,586,795,586s0-15,10.573-15C814.132,571,810.1,601,795,601Zm-30,0c-15.1,0-19.132-30-10.573-30C765,571,765,586,765,586s0-15,10.573-15C784.132,571,780.1,601,765,601Zm-30,0c-15.1,0-19.132-30-10.573-30C735,571,735,586,735,586s0-15,10.573-15C754.132,571,750.1,601,735,601Zm-30,0c-15.1,0-19.132-30-10.573-30C705,571,705,586,705,586s0-15,10.573-15C724.132,571,720.1,601,705,601Zm-30,0c-15.1,0-19.132-30-10.573-30C675,571,675,586,675,586s0-15,10.573-15C694.132,571,690.1,601,675,601Zm-30,0c-15.1,0-19.132-30-10.573-30C645,571,645,586,645,586s0-15,10.573-15C664.132,571,660.1,601,645,601ZM555,391c-15.1,0-19.132-30-10.573-30C555,361,555,376,555,376s0-15,10.573-15C574.132,361,570.1,391,555,391Zm30,0c-15.1,0-19.132-30-10.573-30C585,361,585,376,585,376s0-15,10.573-15C604.132,361,600.1,391,585,391Zm30,0c-15.1,0-19.132-30-10.573-30C615,361,615,376,615,376s0-15,10.573-15C634.132,361,630.1,391,615,391Zm30,0c-15.1,0-19.132-30-10.573-30C645,361,645,376,645,376s0-15,10.573-15C664.132,361,660.1,391,645,391Zm30,0c-15.1,0-19.132-30-10.573-30C675,361,675,376,675,376s0-15,10.573-15C694.132,361,690.1,391,675,391Zm30,0c-15.1,0-19.132-30-10.573-30C705,361,705,376,705,376s0-15,10.573-15C724.132,361,720.1,391,705,391Zm30-30c-15.1,0-19.132-30-10.573-30C735,331,735,346,735,346s0-15,10.573-15C754.132,331,750.1,361,735,361Zm-30,0c-15.1,0-19.132-30-10.573-30C705,331,705,346,705,346s0-15,10.573-15C724.132,331,720.1,361,705,361Zm-30,0c-15.1,0-19.132-30-10.573-30C675,331,675,346,675,346s0-15,10.573-15C694.132,331,690.1,361,675,361Zm-30,0c-15.1,0-19.132-30-10.573-30C645,331,645,346,645,346s0-15,10.573-15C664.132,331,660.1,361,645,361Zm-30,0c-15.1,0-19.132-30-10.573-30C615,331,615,346,615,346s0-15,10.573-15C634.132,331,630.1,361,615,361Zm-30,0c-15.1,0-19.132-30-10.573-30C585,331,585,346,585,346s0-15,10.573-15C604.132,331,600.1,361,585,361Zm30-30c-15.1,0-19.132-30-10.573-30C615,301,615,316,615,316s0-15,10.573-15C634.132,301,630.1,331,615,331Zm30,0c-15.1,0-19.132-30-10.573-30C645,301,645,316,645,316s0-15,10.573-15C664.132,301,660.1,331,645,331Zm30,0c-15.1,0-19.132-30-10.573-30C675,301,675,316,675,316s0-15,10.573-15C694.132,301,690.1,331,675,331Zm30,0c-15.1,0-19.132-30-10.573-30C705,301,705,316,705,316s0-15,10.573-15C724.132,301,720.1,331,705,331Zm30,0c-15.1,0-19.132-30-10.573-30C735,301,735,316,735,316s0-15,10.573-15C754.132,301,750.1,331,735,331Zm30,0c-15.1,0-19.132-30-10.573-30C765,301,765,316,765,316s0-15,10.573-15C784.132,301,780.1,331,765,331Zm30-30c-15.1,0-19.132-30-10.573-30C795,271,795,286,795,286s0-15,10.573-15C814.132,271,810.1,301,795,301Zm-30,0c-15.1,0-19.132-30-10.573-30C765,271,765,286,765,286s0-15,10.573-15C784.132,271,780.1,301,765,301Zm-30,0c-15.1,0-19.132-30-10.573-30C735,271,735,286,735,286s0-15,10.573-15C754.132,271,750.1,301,735,301Zm-30,0c-15.1,0-19.132-30-10.573-30C705,271,705,286,705,286s0-15,10.573-15C724.132,271,720.1,301,705,301Zm-30,0c-15.1,0-19.132-30-10.573-30C675,271,675,286,675,286s0-15,10.573-15C694.132,271,690.1,301,675,301Zm-30,0c-15.1,0-19.132-30-10.573-30C645,271,645,286,645,286s0-15,10.573-15C664.132,271,660.1,301,645,301ZM495,331c-15.1,0-19.132-30-10.573-30C495,301,495,316,495,316s0-15,10.573-15C514.132,301,510.1,331,495,331Zm30-30c-15.1,0-19.132-30-10.573-30C525,271,525,286,525,286s0-15,10.573-15C544.132,271,540.1,301,525,301Zm30-30c-15.1,0-19.132-30-10.573-30C555,241,555,256,555,256s0-15,10.573-15C574.132,241,570.1,271,555,271Zm30-30c-15.1,0-19.132-30-10.573-30C585,211,585,226,585,226s0-15,10.573-15C604.132,211,600.1,241,585,241Zm0-30c-15.1,0-19.132-30-10.573-30C585,181,585,196,585,196s0-15,10.573-15C604.132,181,600.1,211,585,211Zm-30,30c-15.1,0-19.132-30-10.573-30C555,211,555,226,555,226s0-15,10.573-15C574.132,211,570.1,241,555,241Zm-30,30c-15.1,0-19.132-30-10.573-30C525,241,525,256,525,256s0-15,10.573-15C544.132,241,540.1,271,525,271Zm-30,0c-15.1,0-19.132-30-10.573-30C495,241,495,256,495,256s0-15,10.573-15C514.132,241,510.1,271,495,271Zm30-30c-15.1,0-19.132-30-10.573-30C525,211,525,226,525,226s0-15,10.573-15C544.132,211,540.1,241,525,241Zm30-30c-15.1,0-19.132-30-10.573-30C555,181,555,196,555,196s0-15,10.573-15C574.132,181,570.1,211,555,211Zm30-30c-15.1,0-19.132-30-10.573-30C585,151,585,166,585,166s0-15,10.573-15C604.132,151,600.1,181,585,181Zm0-30c-15.1,0-19.132-30-10.573-30C585,121,585,136,585,136s0-15,10.573-15C604.132,121,600.1,151,585,151Zm-30,30c-15.1,0-19.132-30-10.573-30C555,151,555,166,555,166s0-15,10.573-15C574.132,151,570.1,181,555,181Zm-30,30c-15.1,0-19.132-30-10.573-30C525,181,525,196,525,196s0-15,10.573-15C544.132,181,540.1,211,525,211Zm-30,30c-15.1,0-19.132-30-10.573-30C495,211,495,226,495,226s0-15,10.573-15C514.132,211,510.1,241,495,241Zm0-30c-15.1,0-19.132-30-10.573-30C495,181,495,196,495,196s0-15,10.573-15C514.132,181,510.1,211,495,211Zm30-30c-15.1,0-19.132-30-10.573-30C525,151,525,166,525,166s0-15,10.573-15C544.132,151,540.1,181,525,181Zm30-30c-15.1,0-19.132-30-10.573-30C555,121,555,136,555,136s0-15,10.573-15C574.132,121,570.1,151,555,151Zm30-30c-15.1,0-19.132-30-10.573-30C585,91,585,106,585,106s0-15,10.573-15C604.132,91,600.1,121,585,121Zm0-30c-15.1,0-19.132-30-10.573-30C585,61,585,76,585,76s0-15,10.573-15C604.132,61,600.1,91,585,91Zm-30,30c-15.1,0-19.132-30-10.573-30C555,91,555,106,555,106s0-15,10.573-15C574.132,91,570.1,121,555,121Zm-30,30c-15.1,0-19.132-30-10.573-30C525,121,525,136,525,136s0-15,10.573-15C544.132,121,540.1,151,525,151Zm-30,30c-15.1,0-19.132-30-10.573-30C495,151,495,166,495,166s0-15,10.573-15C514.132,151,510.1,181,495,181Zm0,210c-15.1,0-19.132-30-10.573-30C495,361,495,376,495,376s0-15,10.573-15C514.132,361,510.1,391,495,391Z"/>
  <path class="cls-1" d="M495,300c-15.1,0-19.132-30-10.573-30C495,270,495,285,495,285s0-15,10.573-15C514.132,270,510.1,300,495,300Z"/>
</svg>
