<svg xmlns="http://www.w3.org/2000/svg" width="930" height="330" viewBox="0 0 930 330">
  <metadata><?xpacket begin="﻿" id="W5M0MpCehiHzreSzNTczkc9d"?>
<x:xmpmeta xmlns:x="adobe:ns:meta/" x:xmptk="Adobe XMP Core 5.6-c138 79.159824, 2016/09/14-01:09:01        ">
   <rdf:RDF xmlns:rdf="http://www.w3.org/1999/02/22-rdf-syntax-ns#">
      <rdf:Description rdf:about=""/>
   </rdf:RDF>
</x:xmpmeta>
                                                                                                    
                                                                                                    
                                                                                                    
                                                                                                    
                                                                                                    
                                                                                                    
                                                                                                    
                                                                                                    
                                                                                                    
                                                                                                    
                                                                                                    
                                                                                                    
                                                                                                    
                                                                                                    
                                                                                                    
                                                                                                    
                                                                                                    
                                                                                                    
                                                                                                    
                                                                                                    
                           
<?xpacket end="w"?></metadata>
<defs>
    <style>
      .cls-1 {
        fill: #db1313;
        fill-rule: evenodd;
      }
    </style>
  </defs>
  <path class="cls-1" d="M45,180c-15.1,0-19.132-30-10.573-30C45,150,45,165,45,165s0-15,10.573-15C64.132,150,60.1,180,45,180Zm30,0c-15.1,0-19.132-30-10.573-30C75,150,75,165,75,165s0-15,10.573-15C94.132,150,90.1,180,75,180Zm30,0c-15.1,0-19.132-30-10.573-30C105,150,105,165,105,165s0-15,10.573-15C124.132,150,120.1,180,105,180ZM75,150c-15.1,0-19.132-30-10.573-30C75,120,75,135,75,135s0-15,10.573-15C94.132,120,90.1,150,75,150Zm0,60c-15.1,0-19.132-30-10.573-30C75,180,75,195,75,195s0-15,10.573-15C94.132,180,90.1,210,75,210Zm90-30c-15.1,0-19.132-30-10.573-30C165,150,165,165,165,165s0-15,10.573-15C184.132,150,180.1,180,165,180Zm60,0c-15.1,0-19.132-30-10.573-30C225,150,225,165,225,165s0-15,10.573-15C244.132,150,240.1,180,225,180Zm30-30c-15.1,0-19.132-30-10.573-30C255,120,255,135,255,135s0-15,10.573-15C274.132,120,270.1,150,255,150Zm0,30c-15.1,0-19.132-30-10.573-30C255,150,255,165,255,165s0-15,10.573-15C274.132,150,270.1,180,255,180Zm0,30c-15.1,0-19.132-30-10.573-30C255,180,255,195,255,195s0-15,10.573-15C274.132,180,270.1,210,255,210Zm30-30c-15.1,0-19.132-30-10.573-30C285,150,285,165,285,165s0-15,10.573-15C304.132,150,300.1,180,285,180Zm30-60c-15.1,0-19.132-30-10.573-30C315,90,315,105,315,105s0-15,10.573-15C334.132,90,330.1,120,315,120Zm30,30c-15.1,0-19.132-30-10.573-30C345,120,345,135,345,135s0-15,10.573-15C364.132,120,360.1,150,345,150Zm0-30c-15.1,0-19.132-30-10.573-30C345,90,345,105,345,105s0-15,10.573-15C364.132,90,360.1,120,345,120Zm30,0c-15.1,0-19.132-30-10.573-30C375,90,375,105,375,105s0-15,10.573-15C394.132,90,390.1,120,375,120Zm0,30c-15.1,0-19.132-30-10.573-30C375,120,375,135,375,135s0-15,10.573-15C394.132,120,390.1,150,375,150Zm30,0c-15.1,0-19.132-30-10.573-30C405,120,405,135,405,135s0-15,10.573-15C424.132,120,420.1,150,405,150Zm-90,90c-15.1,0-19.132-30-10.573-30C315,210,315,225,315,225s0-15,10.573-15C334.132,210,330.1,240,315,240Zm30-30c-15.1,0-19.132-30-10.573-30C345,180,345,195,345,195s0-15,10.573-15C364.132,180,360.1,210,345,210Zm0,30c-15.1,0-19.132-30-10.573-30C345,210,345,225,345,225s0-15,10.573-15C364.132,210,360.1,240,345,240Zm30,0c-15.1,0-19.132-30-10.573-30C375,210,375,225,375,225s0-15,10.573-15C394.132,210,390.1,240,375,240Zm0-30c-15.1,0-19.132-30-10.573-30C375,180,375,195,375,195s0-15,10.573-15C394.132,180,390.1,210,375,210Zm30,0c-15.1,0-19.132-30-10.573-30C405,180,405,195,405,195s0-15,10.573-15C424.132,180,420.1,210,405,210Zm30-90c-15.1,0-19.132-30-10.573-30C435,90,435,105,435,105s0-15,10.573-15C454.132,90,450.1,120,435,120ZM405,90c-15.1,0-19.132-30-10.573-30C405,60,405,75,405,75s0-15,10.573-15C424.132,60,420.1,90,405,90Zm0-30c-15.1,0-19.132-30-10.573-30C405,30,405,45,405,45s0-15,10.573-15C424.132,30,420.1,60,405,60Zm0-30c-15.1,0-19.132-30-10.573-30C405,0,405,15,405,15s0-15,10.573-15C424.132,0,420.1,30,405,30Zm30,30c-15.1,0-19.132-30-10.573-30C435,30,435,45,435,45s0-15,10.573-15C454.132,30,450.1,60,435,60Zm0,30c-15.1,0-19.132-30-10.573-30C435,60,435,75,435,75s0-15,10.573-15C454.132,60,450.1,90,435,90Zm30,90c-15.1,0-19.132-30-10.573-30C465,150,465,165,465,165s0-15,10.573-15C484.132,150,480.1,180,465,180Zm-30,60c-15.1,0-19.132-30-10.573-30C435,210,435,225,435,225s0-15,10.573-15C454.132,210,450.1,240,435,240Zm-30,30c-15.1,0-19.132-30-10.573-30C405,240,405,255,405,255s0-15,10.573-15C424.132,240,420.1,270,405,270Zm0,30c-15.1,0-19.132-30-10.573-30C405,270,405,285,405,285s0-15,10.573-15C424.132,270,420.1,300,405,300Zm0,30c-15.1,0-19.132-30-10.573-30C405,300,405,315,405,315s0-15,10.573-15C424.132,300,420.1,330,405,330Zm30-30c-15.1,0-19.132-30-10.573-30C435,270,435,285,435,285s0-15,10.573-15C454.132,270,450.1,300,435,300Zm0-30c-15.1,0-19.132-30-10.573-30C435,240,435,255,435,255s0-15,10.573-15C454.132,240,450.1,270,435,270Zm60-30c-15.1,0-19.132-30-10.573-30C495,210,495,225,495,225s0-15,10.573-15C514.132,210,510.1,240,495,240Zm0,30c-15.1,0-19.132-30-10.573-30C495,240,495,255,495,255s0-15,10.573-15C514.132,240,510.1,270,495,270Zm0,30c-15.1,0-19.132-30-10.573-30C495,270,495,285,495,285s0-15,10.573-15C514.132,270,510.1,300,495,300Zm30-30c-15.1,0-19.132-30-10.573-30C525,240,525,255,525,255s0-15,10.573-15C544.132,240,540.1,270,525,270Zm0,30c-15.1,0-19.132-30-10.573-30C525,270,525,285,525,285s0-15,10.573-15C544.132,270,540.1,300,525,300Zm0,30c-15.1,0-19.132-30-10.573-30C525,300,525,315,525,315s0-15,10.573-15C544.132,300,540.1,330,525,330ZM495,120c-15.1,0-19.132-30-10.573-30C495,90,495,105,495,105s0-15,10.573-15C514.132,90,510.1,120,495,120Zm0-30c-15.1,0-19.132-30-10.573-30C495,60,495,75,495,75s0-15,10.573-15C514.132,60,510.1,90,495,90Zm0-30c-15.1,0-19.132-30-10.573-30C495,30,495,45,495,45s0-15,10.573-15C514.132,30,510.1,60,495,60Zm30-30c-15.1,0-19.132-30-10.573-30C525,0,525,15,525,15s0-15,10.573-15C544.132,0,540.1,30,525,30Zm0,30c-15.1,0-19.132-30-10.573-30C525,30,525,45,525,45s0-15,10.573-15C544.132,30,540.1,60,525,60Zm0,30c-15.1,0-19.132-30-10.573-30C525,60,525,75,525,75s0-15,10.573-15C544.132,60,540.1,90,525,90Zm0,60c-15.1,0-19.132-30-10.573-30C525,120,525,135,525,135s0-15,10.573-15C544.132,120,540.1,150,525,150Zm30-30c-15.1,0-19.132-30-10.573-30C555,90,555,105,555,105s0-15,10.573-15C574.132,90,570.1,120,555,120Zm30,0c-15.1,0-19.132-30-10.573-30C585,90,585,105,585,105s0-15,10.573-15C604.132,90,600.1,120,585,120Zm30,0c-15.1,0-19.132-30-10.573-30C615,90,615,105,615,105s0-15,10.573-15C634.132,90,630.1,120,615,120Zm-30,30c-15.1,0-19.132-30-10.573-30C585,120,585,135,585,135s0-15,10.573-15C604.132,120,600.1,150,585,150Zm-30,0c-15.1,0-19.132-30-10.573-30C555,120,555,135,555,135s0-15,10.573-15C574.132,120,570.1,150,555,150Zm-30,60c-15.1,0-19.132-30-10.573-30C525,180,525,195,525,195s0-15,10.573-15C544.132,180,540.1,210,525,210Zm30,0c-15.1,0-19.132-30-10.573-30C555,180,555,195,555,195s0-15,10.573-15C574.132,180,570.1,210,555,210Zm30,0c-15.1,0-19.132-30-10.573-30C585,180,585,195,585,195s0-15,10.573-15C604.132,180,600.1,210,585,210Zm-30,30c-15.1,0-19.132-30-10.573-30C555,210,555,225,555,225s0-15,10.573-15C574.132,210,570.1,240,555,240Zm30,0c-15.1,0-19.132-30-10.573-30C585,210,585,225,585,225s0-15,10.573-15C604.132,210,600.1,240,585,240Zm30,0c-15.1,0-19.132-30-10.573-30C615,210,615,225,615,225s0-15,10.573-15C634.132,210,630.1,240,615,240Zm30-60c-15.1,0-19.132-30-10.573-30C645,150,645,165,645,165s0-15,10.573-15C664.132,150,660.1,180,645,180Zm30-30c-15.1,0-19.132-30-10.573-30C675,120,675,135,675,135s0-15,10.573-15C694.132,120,690.1,150,675,150Zm0,30c-15.1,0-19.132-30-10.573-30C675,150,675,165,675,165s0-15,10.573-15C694.132,150,690.1,180,675,180Zm0,30c-15.1,0-19.132-30-10.573-30C675,180,675,195,675,195s0-15,10.573-15C694.132,180,690.1,210,675,210Zm30-30c-15.1,0-19.132-30-10.573-30C705,150,705,165,705,165s0-15,10.573-15C724.132,150,720.1,180,705,180Zm60,0c-15.1,0-19.132-30-10.573-30C765,150,765,165,765,165s0-15,10.573-15C784.132,150,780.1,180,765,180Zm60,0c-15.1,0-19.132-30-10.573-30C825,150,825,165,825,165s0-15,10.573-15C844.132,150,840.1,180,825,180Zm30-30c-15.1,0-19.132-30-10.573-30C855,120,855,135,855,135s0-15,10.573-15C874.132,120,870.1,150,855,150Zm0,30c-15.1,0-19.132-30-10.573-30C855,150,855,165,855,165s0-15,10.573-15C874.132,150,870.1,180,855,180Zm0,30c-15.1,0-19.132-30-10.573-30C855,180,855,195,855,195s0-15,10.573-15C874.132,180,870.1,210,855,210Zm30-30c-15.1,0-19.132-30-10.573-30C885,150,885,165,885,165s0-15,10.573-15C904.132,150,900.1,180,885,180Z"/>
</svg>
