<svg xmlns="http://www.w3.org/2000/svg" width="630" height="330" viewBox="0 0 630 330">
  <metadata><?xpacket begin="﻿" id="W5M0MpCehiHzreSzNTczkc9d"?>
<x:xmpmeta xmlns:x="adobe:ns:meta/" x:xmptk="Adobe XMP Core 5.6-c138 79.159824, 2016/09/14-01:09:01        ">
   <rdf:RDF xmlns:rdf="http://www.w3.org/1999/02/22-rdf-syntax-ns#">
      <rdf:Description rdf:about=""/>
   </rdf:RDF>
</x:xmpmeta>
                                                                                                    
                                                                                                    
                                                                                                    
                                                                                                    
                                                                                                    
                                                                                                    
                                                                                                    
                                                                                                    
                                                                                                    
                                                                                                    
                                                                                                    
                                                                                                    
                                                                                                    
                                                                                                    
                                                                                                    
                                                                                                    
                                                                                                    
                                                                                                    
                                                                                                    
                                                                                                    
                           
<?xpacket end="w"?></metadata>
<defs>
    <style>
      .cls-1 {
        fill: #db1313;
        fill-rule: evenodd;
      }
    </style>
  </defs>
  <path class="cls-1" d="M495,180c-15.1,0-19.132-30-10.573-30C495,150,495,165,495,165s0-15,10.573-15C514.132,150,510.1,180,495,180Zm30,0c-15.1,0-19.132-30-10.573-30C525,150,525,165,525,165s0-15,10.573-15C544.132,150,540.1,180,525,180Zm30,0c-15.1,0-19.132-30-10.573-30C555,150,555,165,555,165s0-15,10.573-15C574.132,150,570.1,180,555,180Zm30,0c-15.1,0-19.132-30-10.573-30C585,150,585,165,585,165s0-15,10.573-15C604.132,150,600.1,180,585,180Zm30,0c-15.1,0-19.132-30-10.573-30C615,150,615,165,615,165s0-15,10.573-15C634.132,150,630.1,180,615,180ZM15,180c-15.1,0-19.132-30-10.573-30C15,150,15,165,15,165s0-15,10.573-15C34.132,150,30.1,180,15,180Zm30,0c-15.1,0-19.132-30-10.573-30C45,150,45,165,45,165s0-15,10.573-15C64.132,150,60.1,180,45,180Zm30,0c-15.1,0-19.132-30-10.573-30C75,150,75,165,75,165s0-15,10.573-15C94.132,150,90.1,180,75,180Zm30,0c-15.1,0-19.132-30-10.573-30C105,150,105,165,105,165s0-15,10.573-15C124.132,150,120.1,180,105,180Zm30,0c-15.1,0-19.132-30-10.573-30C135,150,135,165,135,165s0-15,10.573-15C154.132,150,150.1,180,135,180ZM285,30c-15.1,0-19.132-30-10.573-30C285,0,285,15,285,15s0-15,10.573-15C304.132,0,300.1,30,285,30Zm0,30c-15.1,0-19.132-30-10.573-30C285,30,285,45,285,45s0-15,10.573-15C304.132,30,300.1,60,285,60Zm0,30c-15.1,0-19.132-30-10.573-30C285,60,285,75,285,75s0-15,10.573-15C304.132,60,300.1,90,285,90Zm-60,0c-15.1,0-19.132-30-10.573-30C225,60,225,75,225,75s0-15,10.573-15C244.132,60,240.1,90,225,90Zm30,0c-15.1,0-19.132-30-10.573-30C255,60,255,75,255,75s0-15,10.573-15C274.132,60,270.1,90,255,90Zm0-30c-15.1,0-19.132-30-10.573-30C255,30,255,45,255,45s0-15,10.573-15C274.132,30,270.1,60,255,60Zm90-30c-15.1,0-19.132-30-10.573-30C345,0,345,15,345,15s0-15,10.573-15C364.132,0,360.1,30,345,30Zm0,30c-15.1,0-19.132-30-10.573-30C345,30,345,45,345,45s0-15,10.573-15C364.132,30,360.1,60,345,60Zm0,30c-15.1,0-19.132-30-10.573-30C345,60,345,75,345,75s0-15,10.573-15C364.132,60,360.1,90,345,90Zm30-30c-15.1,0-19.132-30-10.573-30C375,30,375,45,375,45s0-15,10.573-15C394.132,30,390.1,60,375,60Zm0,30c-15.1,0-19.132-30-10.573-30C375,60,375,75,375,75s0-15,10.573-15C394.132,60,390.1,90,375,90Zm30,0c-15.1,0-19.132-30-10.573-30C405,60,405,75,405,75s0-15,10.573-15C424.132,60,420.1,90,405,90ZM225,270c-15.1,0-19.132-30-10.573-30C225,240,225,255,225,255s0-15,10.573-15C244.132,240,240.1,270,225,270Zm30,0c-15.1,0-19.132-30-10.573-30C255,240,255,255,255,255s0-15,10.573-15C274.132,240,270.1,270,255,270Zm30,0c-15.1,0-19.132-30-10.573-30C285,240,285,255,285,255s0-15,10.573-15C304.132,240,300.1,270,285,270Zm60,0c-15.1,0-19.132-30-10.573-30C345,240,345,255,345,255s0-15,10.573-15C364.132,240,360.1,270,345,270Zm30,0c-15.1,0-19.132-30-10.573-30C375,240,375,255,375,255s0-15,10.573-15C394.132,240,390.1,270,375,270Zm30,0c-15.1,0-19.132-30-10.573-30C405,240,405,255,405,255s0-15,10.573-15C424.132,240,420.1,270,405,270Zm-30,30c-15.1,0-19.132-30-10.573-30C375,270,375,285,375,285s0-15,10.573-15C394.132,270,390.1,300,375,300Zm-30,0c-15.1,0-19.132-30-10.573-30C345,270,345,285,345,285s0-15,10.573-15C364.132,270,360.1,300,345,300Zm0,30c-15.1,0-19.132-30-10.573-30C345,300,345,315,345,315s0-15,10.573-15C364.132,300,360.1,330,345,330Zm-60-30c-15.1,0-19.132-30-10.573-30C285,270,285,285,285,285s0-15,10.573-15C304.132,270,300.1,300,285,300Zm0,30c-15.1,0-19.132-30-10.573-30C285,300,285,315,285,315s0-15,10.573-15C304.132,300,300.1,330,285,330Zm-30-30c-15.1,0-19.132-30-10.573-30C255,270,255,285,255,285s0-15,10.573-15C274.132,270,270.1,300,255,300ZM165,150c-15.1,0-19.132-30-10.573-30C165,120,165,135,165,135s0-15,10.573-15C184.132,120,180.1,150,165,150Zm30,0c-15.1,0-19.132-30-10.573-30C195,120,195,135,195,135s0-15,10.573-15C214.132,120,210.1,150,195,150Zm-30,60c-15.1,0-19.132-30-10.573-30C165,180,165,195,165,195s0-15,10.573-15C184.132,180,180.1,210,165,210Zm30,0c-15.1,0-19.132-30-10.573-30C195,180,195,195,195,195s0-15,10.573-15C214.132,180,210.1,210,195,210Zm240,0c-15.1,0-19.132-30-10.573-30C435,180,435,195,435,195s0-15,10.573-15C454.132,180,450.1,210,435,210Zm30,0c-15.1,0-19.132-30-10.573-30C465,180,465,195,465,195s0-15,10.573-15C484.132,180,480.1,210,465,210Zm-30-60c-15.1,0-19.132-30-10.573-30C435,120,435,135,435,135s0-15,10.573-15C454.132,120,450.1,150,435,150Zm30,0c-15.1,0-19.132-30-10.573-30C465,120,465,135,465,135s0-15,10.573-15C484.132,120,480.1,150,465,150Z"/>
</svg>
